<svg xmlns="http://www.w3.org/2000/svg" xmlns:xlink="http://www.w3.org/1999/xlink" version="1.1" id="Layer_1" x="0px" y="0px" viewBox="0 0 140 60" style="enable-background:new 0 0 140 60;" xml:space="preserve" width="311"  height="133" >
<style type="text/css">
	.st0{opacity:1.000000e-02;fill:none;stroke:#F5F5F5;stroke-width:0.1;enable-background:new    ;}
	.st1{fill:#001A4C;}
</style>
<desc>Created with Sketch.</desc>
<g>
	<g id="Page-1">
		<g id="landing-page-HD-v12" transform="translate(-1050.000000, -815.000000)">
			<g id="Group-75" transform="translate(1050.000000, 815.000000)">
				<rect id="Rectangle-Copy-84" x="0.1" class="st0" width="139.9" height="59.9"/>
			</g>
		</g>
	</g>
	<g>
		<path class="st1" d="M42.6,25.7c0-0.1-0.2-0.2-0.3-0.2h-0.2c-0.1,0-0.2,0.1-0.3,0.2l-5.1,11c-0.1,0.2,0.1,0.4,0.3,0.4h1.4    c0.2,0,0.4-0.1,0.5-0.3l0.8-1.8h4.9l0.8,1.8c0.1,0.2,0.3,0.3,0.5,0.3h1.4c0.2,0,0.4-0.2,0.3-0.4L42.6,25.7z M40.6,33.2l1.6-3.6    l1.6,3.6H40.6z M58.1,25.7h-1.5c-0.2,0-0.3,0.1-0.3,0.3v6.7l-6.8-7.2h-0.4c-0.2,0-0.3,0.1-0.3,0.3v11c0,0.2,0.1,0.3,0.3,0.3h1.5    c0.2,0,0.3-0.1,0.3-0.3v-7l6.8,7.5h0.4c0.2,0,0.3-0.1,0.3-0.3V26C58.4,25.8,58.3,25.7,58.1,25.7L58.1,25.7z M65.4,25.7    c0-0.1-0.2-0.2-0.3-0.2H65c-0.1,0-0.2,0.1-0.3,0.2l-5.1,11c-0.1,0.2,0,0.4,0.3,0.4h1.4c0.2,0,0.4-0.1,0.5-0.3l0.8-1.8h4.8l0.8,1.8    c0.1,0.2,0.3,0.3,0.5,0.3h1.4c0.2,0,0.4-0.2,0.3-0.4L65.4,25.7z M63.4,33.2l1.6-3.6l0,0l1.6,3.6H63.4z M79.4,34.2    c-0.1-0.1-0.3-0.1-0.4,0c-0.7,0.6-1.6,0.9-2.5,0.9c-2.1,0-3.7-1.7-3.7-3.8c-0.1-2,1.6-3.8,3.6-3.8c0.9,0,1.8,0.4,2.5,1    c0.1,0.1,0.3,0.1,0.4,0l1-1c0.1-0.1,0.1-0.3,0-0.5c-1.1-1-2.5-1.6-4-1.5c-1.6-0.1-3.1,0.5-4.3,1.7c-1.1,1.1-1.8,2.6-1.8,4.2    c0,1.6,0.6,3.1,1.8,4.2c1.1,1.1,2.7,1.7,4.3,1.7c1.5,0,2.9-0.5,4-1.6c0.1-0.1,0.1-0.3,0-0.4L79.4,34.2z M87,25.5    c-1.6,0-3,0.6-4.2,1.7c-1.1,1.1-1.7,2.6-1.7,4.2c0,3.2,2.6,5.9,5.9,5.9s5.9-2.6,5.9-5.9c0-1.6-0.6-3.1-1.7-4.2    C90.1,26.1,88.6,25.5,87,25.5L87,25.5z M87,35.2c-3.3,0-5-4-2.6-6.4s6.4-0.7,6.4,2.7C90.8,33.5,89.1,35.2,87,35.2L87,35.2z     M104,25.7h-1.5c-0.2,0-0.3,0.1-0.3,0.3v6.7l-6.8-7.2H95c-0.2,0-0.3,0.1-0.3,0.3v11c0,0.2,0.1,0.3,0.3,0.3h1.5    c0.2,0,0.3-0.1,0.3-0.3v-7l6.8,7.5h0.4c0.2,0,0.3-0.1,0.3-0.3V26C104.3,25.8,104.2,25.7,104,25.7L104,25.7z M110.6,25.7h-3.9    c-0.2,0-0.3,0.1-0.3,0.3v10.8c0,0.2,0.1,0.3,0.3,0.3h3.9c1.6,0,3-0.5,4.2-1.6s1.7-2.6,1.7-4.1c0-1.6-0.6-3-1.7-4.1    C113.6,26.2,112.1,25.6,110.6,25.7L110.6,25.7z M110.3,35.1h-1.9v-7.4h1.9c2.1,0,3.7,1.7,3.7,3.7    C114.1,33.4,112.4,35.1,110.3,35.1L110.3,35.1z M127.2,36.7l-5-11c0-0.1-0.2-0.2-0.3-0.2h-0.2c-0.1,0-0.2,0.1-0.3,0.2l-5.1,11    c-0.1,0.2,0.1,0.4,0.3,0.4h1.4c0.2,0,0.4-0.1,0.5-0.3l0.8-1.8h4.9l0.8,1.8c0.1,0.2,0.3,0.3,0.5,0.3h1.4    C127.1,37.1,127.3,36.9,127.2,36.7L127.2,36.7z M120.1,33.2l1.6-3.6h0.1l1.6,3.6H120.1z M129.2,36.9h0.1l0,0v-0.3h0.2l0.1,0.3l0,0    h0.1c0,0,0.1,0,0-0.1c0-0.1-0.1-0.2-0.1-0.3c0.1,0,0.2-0.2,0.2-0.3c0-0.2-0.1-0.3-0.3-0.3h-0.4l0,0L129.2,36.9L129.2,36.9    L129.2,36.9z M129.3,36.1h0.2c0.1,0,0.1,0.1,0.1,0.1c0,0.1-0.1,0.1-0.1,0.1h-0.2V36.1z"/>
		<path class="st1" d="M129.5,37.4c0.6,0,1-0.4,1-1s-0.5-1-1-1C128.3,35.6,128.3,37.3,129.5,37.4L129.5,37.4z M129.5,35.7    c0.5,0,0.8,0.3,0.8,0.8s-0.4,0.8-0.8,0.8c-0.5,0-0.8-0.3-0.8-0.8C128.6,36,129,35.6,129.5,35.7L129.5,35.7z"/>
		<path class="st1" d="M13.2,35.3L13.2,35.3c0-0.7,0.1-1.2,0.1-1.8v-0.1h-0.1c-0.5-0.2-1-0.5-1.6-0.7h-0.1v0.1    c-0.3,0.7-0.6,1.4-0.8,2.1V35h0.1C11.6,35,12.4,35.2,13.2,35.3L13.2,35.3z M14.8,25.1c-0.4,0-0.9,0-1.3,0.1    c0.1,0.4,0.1,0.9,0.2,1.3C14,26,14.4,25.5,14.8,25.1L14.8,25.1z M13.2,35.8L13.2,35.8L13.2,35.8c-0.7-0.1-1.4-0.2-2-0.4H11    l0.1,0.1c0.6,0.9,1.3,1.7,2.1,2.3l0.1,0.1v-0.2C13.3,37.1,13.2,36.5,13.2,35.8L13.2,35.8z M16.3,20.4c-0.8,0.3-1.5,0.6-2.2,1.1    c0.5,0.1,1,0.2,1.5,0.4C15.9,21.4,16.1,20.9,16.3,20.4L16.3,20.4z M19.6,19.9c-0.4,0-0.8,0-1.1,0.1c0.5,0.4,1,0.8,1.5,1.2l0.4,0.4    L20,21.9c-0.3,0.3-0.6,0.7-0.9,1L19,23.1c0.2,0,0.5,0,0.7,0c2.1,0,4.1,1,5.4,2.7s1.7,3.9,1.1,6s-2.1,3.7-4.1,4.5    c-2,0.8-4.2,0.6-6.1-0.5c-0.5,0.1-1,0.1-1.6,0.1h-0.7c0,0.8,0.1,1.6,0.2,2.4c2.6,1.8,6,2.2,9,1.1s5.3-3.5,6.3-6.5    c0.9-3,0.4-6.4-1.5-8.9C25.8,21.4,22.8,19.9,19.6,19.9L19.6,19.9z M18.3,22.3c0.2-0.2,0.4-0.5,0.6-0.7c-0.5-0.4-0.9-0.8-1.5-1.1    c-0.3,0.5-0.6,1.1-0.8,1.7c0.5,0.2,0.9,0.3,1.4,0.5C18,22.6,18.2,22.4,18.3,22.3L18.3,22.3z M11.5,28L11.5,28h0.1    c0.5-0.3,0.9-0.6,1.5-0.9l0,0l0,0c-0.2-0.6-0.3-1.2-0.3-1.8v-0.1h-0.1c-0.7,0.1-1.5,0.3-2.2,0.6h-0.1v0.1    C10.7,26.6,11,27.3,11.5,28L11.5,28z M11.3,29L11.3,29c-0.6,0.5-1.1,1-1.6,1.5v0.1h0.1c0.5,0.5,1.1,0.9,1.7,1.3h0.1v-0.1    c0.3-0.5,0.6-0.9,0.9-1.4l0,0l0,0C12,30,11.7,29.5,11.3,29L11.3,29z M15.3,35.3h0.2H15.3c-0.4-0.5-0.9-1.1-1.3-1.6h-0.1v0.1    c-0.1,0.5-0.1,1-0.1,1.5v0.1h0.8C14.7,35.3,15,35.3,15.3,35.3L15.3,35.3z M14.9,24.2c0.1-0.5,0.2-1,0.4-1.5    c-0.6-0.2-1.3-0.3-1.9-0.4c-0.1,0.6-0.1,1.3,0,2C13.9,24.3,14.4,24.2,14.9,24.2L14.9,24.2z M15.9,24.2c0.4-0.3,0.9-0.5,1.4-0.7    c-0.4-0.2-0.7-0.3-1.1-0.5C16.1,23.4,16,23.8,15.9,24.2L15.9,24.2z M11.2,32.4L11.2,32.4c-0.6-0.4-1.1-0.7-1.6-1.1l-0.1-0.1v0.2    c0.1,1,0.4,1.9,0.8,2.8l0.1,0.2l0.1-0.2C10.6,33.5,10.9,33,11.2,32.4L11.2,32.4z M12.5,22.8c-0.6,0.6-1.1,1.3-1.6,2    c0.5-0.2,1-0.3,1.6-0.4C12.5,23.9,12.5,23.4,12.5,22.8L12.5,22.8z M12.8,29.9v-0.2c0-0.6,0.1-1.2,0.3-1.8l0.1-0.2L13,27.8    c-0.4,0.2-0.8,0.5-1.1,0.7h-0.1v0.1c0.3,0.4,0.5,0.7,0.8,1.1L12.8,29.9z M12.9,30.9v-0.2l-0.1,0.1c-0.3,0.4-0.5,0.8-0.8,1.2v0.1    h0.1c0.4,0.2,0.9,0.4,1.3,0.6l0.2,0.1l-0.1-0.2C13.2,32.2,13,31.5,12.9,30.9L12.9,30.9z M10.9,28.5L10.9,28.5v-0.1    c-0.3-0.5-0.6-1-0.9-1.6v-0.1l-0.1,0.2c-0.3,0.9-0.5,1.9-0.5,2.8v0.2l0.1-0.1C10,29.3,10.5,28.9,10.9,28.5L10.9,28.5z"/>
	</g>
</g>
</svg>