<svg xmlns:xlink="http://www.w3.org/1999/xlink" xmlns="http://www.w3.org/2000/svg" width="167" height="72" viewBox="0 0 167 72" fill="none">
<path opacity="0.01" d="M166.941 0.0600586H0.0605469V71.9401H166.941V0.0600586Z" stroke="#CECDD3" strokeWidth="0.1"/>
<g clipPath="url(#clip0_137:909)">
<path d="M98.5827 52.3166H86.0944C85.7392 52.3157 85.3878 52.2444 85.0607 52.1069C84.7336 51.9694 84.4373 51.7685 84.1891 51.5159C83.9409 51.2632 83.7458 50.964 83.6151 50.6355C83.4845 50.3071 83.421 49.956 83.4283 49.6029V21.5193C83.4219 21.1678 83.4868 20.8185 83.619 20.4925C83.7513 20.1664 83.9482 19.8702 84.1981 19.6215C84.448 19.3728 84.7457 19.1767 85.0734 19.0449C85.4012 18.9132 85.7523 18.8484 86.1057 18.8545H97.7824C104.197 18.8545 108.038 22.5675 108.038 27.3927C108.038 32.2706 105.041 34.0095 103.996 34.384C105.616 34.7905 110.01 36.6422 110.01 42.7415C110.01 47.9694 105.769 52.326 98.5903 52.326L98.5827 52.3166ZM97.5421 23.7776H88.838V32.2198H97.5421C100.999 32.2198 102.624 30.3097 102.624 27.9968C102.624 25.6369 101.099 23.7776 97.5421 23.7776ZM98.7776 37.0939H88.8286V47.3484H98.7776C102.764 47.3484 104.594 44.7852 104.594 42.2202C104.594 39.6552 102.789 37.0939 98.7776 37.0939V37.0939ZM125.563 52.3222H117.277C116.917 52.3297 116.559 52.2646 116.225 52.1308C115.89 51.9971 115.586 51.7975 115.331 51.544C115.077 51.2905 114.876 50.9884 114.741 50.6558C114.607 50.3232 114.541 49.967 114.549 49.6085V21.5193C114.548 21.1651 114.619 20.8143 114.756 20.4875C114.894 20.1607 115.096 19.8646 115.35 19.6164C115.604 19.3682 115.905 19.1729 116.236 19.0421C116.567 18.9113 116.921 18.8475 117.277 18.8545H125.563C136.797 18.8545 143 26.3426 143 35.5903C143 44.8379 136.729 52.326 125.563 52.326V52.3222ZM125.215 23.7776H120.006V47.3954H125.215C133.162 47.3954 137.592 42.7227 137.592 35.5865C137.592 28.3958 133.24 23.7776 125.215 23.7776" fill="#CECDD3"/>
<path d="M38.0012 34.3151L25.2195 38.6435C25.0726 37.5979 24.9992 36.5433 25 35.4876C24.997 32.3086 25.6736 29.1654 26.9849 26.2662C26.9849 26.2662 37.9841 33.982 38.0504 34.0291C38.1166 34.0761 38.1469 34.1194 38.1469 34.1683C38.1469 34.2568 38.0769 34.2944 38.0012 34.3189V34.3151ZM47.5396 12.9988C43.2464 13.0058 39.0447 14.2334 35.4297 16.5368C35.4297 16.5368 44.4156 25.9952 44.7184 26.3114C44.7808 26.3754 44.8244 26.413 44.8811 26.413C44.9379 26.413 44.9984 26.3792 45.0193 26.2738L47.5302 12.9988H47.5396ZM40.4175 29.234C40.4159 29.1956 40.4069 29.1579 40.391 29.123L35.2991 16.6253C31.7073 18.9488 28.8498 22.2358 27.0568 26.1063L40.1791 29.3337C40.2162 29.3432 40.2543 29.3483 40.2926 29.3488C40.3091 29.349 40.3254 29.346 40.3407 29.3399C40.356 29.3337 40.3698 29.3246 40.3815 29.313C40.3931 29.3014 40.4023 29.2876 40.4085 29.2724C40.4147 29.2572 40.4177 29.241 40.4175 29.2246V29.234ZM57.2427 34.3151L70.0225 38.6435C70.6212 34.4312 70.0099 30.1364 68.259 26.2549C68.259 26.2549 57.2598 33.9707 57.1935 34.0178C57.1273 34.0648 57.0951 34.1081 57.0951 34.157C57.0951 34.2455 57.1651 34.2831 57.2427 34.3076V34.3151ZM50.2152 26.2625C50.236 26.3679 50.2965 26.4017 50.3533 26.4017C50.4101 26.4017 50.4555 26.3641 50.5179 26.3001L59.8047 16.5255C56.1898 14.2221 51.988 12.9945 47.6948 12.9875L50.2057 26.2625H50.2152ZM54.9362 29.3394C54.9745 29.3389 55.0126 29.3338 55.0497 29.3243L68.1719 26.0969C66.3807 22.2323 63.529 18.9492 59.9448 16.6253C59.9448 16.6253 54.8794 29.0458 54.8567 29.1154C54.8408 29.1504 54.8318 29.1881 54.8302 29.2265C54.8299 29.2428 54.833 29.2591 54.8392 29.2743C54.8454 29.2895 54.8546 29.3033 54.8662 29.3149C54.8779 29.3264 54.8917 29.3356 54.907 29.3417C54.9223 29.3479 54.9386 29.3509 54.9551 29.3507" fill="#CECDD3"/>
<path d="M47.6215 58C53.0323 58.0008 58.2643 56.0733 62.3688 52.5669C66.4734 49.0605 69.1788 44.2074 69.9946 38.8875L61.5611 40.0561C61.5113 40.0594 61.4637 40.0782 61.4253 40.11C61.3869 40.1418 61.3596 40.1849 61.3473 40.233C60.5077 42.6505 59.0365 44.8022 57.0846 46.4674C55.1327 48.1325 52.7704 49.2511 50.2402 49.7084C51.4557 49.1203 52.4348 48.1397 53.0176 46.9268C53.6005 45.7139 53.7526 44.3402 53.4492 43.0302C53.1458 41.7202 52.4048 40.5512 51.3472 39.714C50.2896 38.8769 48.9779 38.4211 47.6262 38.4211C46.2745 38.4211 44.9628 38.8769 43.9052 39.714C42.8476 40.5512 42.1066 41.7202 41.8032 43.0302C41.4998 44.3402 41.6519 45.7139 42.2348 46.9268C42.8176 48.1397 43.7967 49.1203 45.0122 49.7084C42.4817 49.2514 40.119 48.133 38.1667 46.4678C36.2145 44.8026 34.7429 42.6507 33.9032 40.233C33.8912 40.1847 33.8639 40.1415 33.8255 40.1097C33.787 40.0778 33.7393 40.0591 33.6894 40.0561L25.2578 38.8875C26.0726 44.2061 28.7764 49.0584 32.8792 52.5647C36.9819 56.071 42.2121 57.9993 47.6215 58" fill="#CECDD3"/>
</g>
<defs>
<clipPath id="clip0_137:909">
<rect width="118" height="45" fill="white" transform="translate(25 13)"/>
</clipPath>
</defs>
</svg>