   <svg
          width="218"
          height="312"
          viewBox="0 0 218 312"
          fill="none"
          xmlns="http://www.w3.org/2000/svg"
          class="constellation left-auto"
          data-v-2c70770e=""
          data-v-70ebf7ad=""
        >
          <path
            d="M219.942 1L6 102.623"
            stroke="url(#paint0_linear)"
            strokeOpacity="0.4"
            strokeWidth="2"
            class="iRvdTgMa_0"
            data-v-2c70770e=""
          ></path>
          <path
            d="M219.942 102.623L6 204.245"
            stroke="url(#paint1_linear)"
            strokeOpacity="0.4"
            strokeWidth="2"
            class="iRvdTgMa_1"
            data-v-2c70770e=""
          ></path>
          <path
            d="M219.942 204.245L6 305.868"
            stroke="url(#paint2_linear)"
            strokeOpacity="0.4"
            strokeWidth="2"
            class="iRvdTgMa_2"
            data-v-2c70770e=""
          ></path>
          <path
            fill="white"
            fillOpacity="0.2"
            d="M0,306A6,6 0,1,1 12,306A6,6 0,1,1 0,306"
            class="iRvdTgMa_3"
            data-v-2c70770e=""
          ></path>
          <path
            fill="url(#paint3_linear)"
            d="M3,306A3,3 0,1,1 9,306A3,3 0,1,1 3,306"
            class="iRvdTgMa_4"
            data-v-2c70770e=""
          ></path>
          <path
            fill="white"
            fillOpacity="0.2"
            d="M0,204A6,6 0,1,1 12,204A6,6 0,1,1 0,204"
            class="iRvdTgMa_5"
            data-v-2c70770e=""
          ></path>
          <path
            fill="url(#paint4_linear)"
            d="M3,204A3,3 0,1,1 9,204A3,3 0,1,1 3,204"
            class="iRvdTgMa_6"
            data-v-2c70770e=""
          ></path>
          <path
            fill="white"
            fillOpacity="0.2"
            d="M0,103A6,6 0,1,1 12,103A6,6 0,1,1 0,103"
            class="iRvdTgMa_7"
            data-v-2c70770e=""
          ></path>
          <path
            fill="url(#paint5_linear)"
            d="M3,103A3,3 0,1,1 9,103A3,3 0,1,1 3,103"
            class="iRvdTgMa_8"
            data-v-2c70770e=""
          ></path>
          <defs data-v-2c70770e="">
            <linearGradient
              id="paint0_linear"
              x1="112.971"
              y1="1"
              x2="112.971"
              y2="102.623"
              gradientUnits="userSpaceOnUse"
              data-v-2c70770e=""
            >
              <stop stopColor="#91EBFF" data-v-2c70770e=""></stop>
              <stop offset="1" stopColor="#8497FF" data-v-2c70770e=""></stop>
            </linearGradient>
            <linearGradient
              id="paint1_linear"
              x1="112.971"
              y1="102.623"
              x2="112.971"
              y2="204.245"
              gradientUnits="userSpaceOnUse"
              data-v-2c70770e=""
            >
              <stop stopColor="#91EBFF" data-v-2c70770e=""></stop>
              <stop offset="1" stopColor="#8497FF" data-v-2c70770e=""></stop>
            </linearGradient>
            <linearGradient
              id="paint2_linear"
              x1="112.971"
              y1="204.245"
              x2="112.971"
              y2="305.868"
              gradientUnits="userSpaceOnUse"
              data-v-2c70770e=""
            >
              <stop stopColor="#91EBFF" data-v-2c70770e=""></stop>
              <stop offset="1" stopColor="#8497FF" data-v-2c70770e=""></stop>
            </linearGradient>
            <linearGradient
              id="paint3_linear"
              x1="3.9"
              y1="303.9"
              x2="8.1"
              y2="308.1"
              gradientUnits="userSpaceOnUse"
              data-v-2c70770e=""
            >
              <stop stopColor="#91EBFF" data-v-2c70770e=""></stop>
              <stop offset="1" stopColor="#8497FF" data-v-2c70770e=""></stop>
            </linearGradient>
            <linearGradient
              id="paint4_linear"
              x1="3.9"
              y1="201.9"
              x2="8.1"
              y2="206.1"
              gradientUnits="userSpaceOnUse"
              data-v-2c70770e=""
            >
              <stop stopColor="#91EBFF" data-v-2c70770e=""></stop>
              <stop offset="1" stopColor="#8497FF" data-v-2c70770e=""></stop>
            </linearGradient>
            <linearGradient
              id="paint5_linear"
              x1="3.9"
              y1="100.9"
              x2="8.1"
              y2="105.1"
              gradientUnits="userSpaceOnUse"
              data-v-2c70770e=""
            >
              <stop stopColor="#91EBFF" data-v-2c70770e=""></stop>
              <stop offset="1" stopColor="#8497FF" data-v-2c70770e=""></stop>
            </linearGradient>
          </defs>
        </svg>