<svg xmlns:xlink="http://www.w3.org/1999/xlink" xmlns="http://www.w3.org/2000/svg" width="167" height="72" viewBox="0 0 167 72" fill="none">
<path d="M125.002 27.6415C125.002 26.6311 124.194 25.8402 123.211 25.8402C122.207 25.8402 121.399 26.653 121.399 27.6415V31.4418C121.399 32.4523 122.207 33.2651 123.211 33.2651C124.194 33.2651 125.002 32.4523 125.002 31.4418V27.6415ZM115.088 22.633C115.088 21.6445 114.28 20.8318 113.276 20.8318C112.271 20.8318 111.485 21.6445 111.485 22.633V31.4418C111.485 32.4523 112.293 33.2651 113.276 33.2651C114.302 33.2651 115.088 32.4523 115.088 31.4418V22.633ZM105.153 15.8013C105.153 14.7908 104.345 14 103.362 14C102.358 14 101.572 14.8128 101.572 15.8013V35.0664C101.572 36.0769 102.379 36.8897 103.362 36.8897C104.367 36.8897 105.153 36.0769 105.153 35.0664V15.8013ZM95.239 22.633C95.239 21.6445 94.431 20.8318 93.4484 20.8318C92.4658 20.8318 91.6578 21.6445 91.6578 22.633V31.4418C91.6578 32.4523 92.4658 33.2651 93.4484 33.2651C94.4529 33.2651 95.239 32.4523 95.239 31.4418V22.633ZM85.3035 27.6415C85.3035 26.6311 84.4955 25.8402 83.5129 25.8402C82.5084 25.8402 81.7005 26.653 81.7005 27.6415V31.4418C81.7005 32.4523 82.5084 33.2651 83.5129 33.2651C84.4955 33.2651 85.3035 32.4523 85.3035 31.4418V27.6415ZM75.3897 22.633C75.3897 21.6445 74.5818 20.8318 73.5773 20.8318C72.5729 20.8318 71.7649 21.6445 71.7649 22.633V31.4418C71.7649 32.4523 72.5729 33.2651 73.5773 33.2651C74.5818 33.2651 75.3897 32.4523 75.3897 31.4418V22.633ZM65.476 15.8013C65.476 14.7908 64.6681 14 63.6636 14C62.6591 14 61.8512 14.8128 61.8512 15.8013V35.0664C61.8512 36.0769 62.6591 36.8897 63.6636 36.8897C64.6681 36.8897 65.476 36.0769 65.476 35.0664V15.8013ZM55.5405 22.633C55.5405 21.6445 54.7326 20.8318 53.7281 20.8318C52.7236 20.8318 51.9157 21.6445 51.9157 22.633V31.4418C51.9157 32.4523 52.7236 33.2651 53.7281 33.2651C54.7326 33.2651 55.5405 32.4523 55.5405 31.4418V22.633ZM45.6268 27.6415C45.6268 26.6311 44.8188 25.8402 43.8144 25.8402C42.8099 25.8402 42.002 26.653 42.002 27.6415V31.4418C42.002 32.4523 42.8099 33.2651 43.8144 33.2651C44.8188 33.2651 45.6268 32.4523 45.6268 31.4418V27.6415ZM82.9233 43.4139C82.8141 43.3919 81.1545 42.9526 79.3858 42.9526C76.023 42.9526 74.0141 44.7758 74.0141 47.4778C74.0141 49.8722 75.6955 51.0804 77.7262 51.7174C77.9446 51.7833 78.2721 51.8932 78.5123 51.9591C79.4076 52.2446 80.1282 52.662 80.1282 53.4089C80.1282 54.2217 79.2985 54.7708 77.486 54.7708C75.892 54.7708 74.3634 54.3095 74.0577 54.2217V57.5607C74.2324 57.6046 76.0448 57.9561 77.9883 57.9561C80.7833 57.9561 83.9496 56.7259 83.9496 53.0794C83.9496 51.322 82.8796 49.6745 80.5213 48.9276L79.5168 48.5981C78.9272 48.4004 77.8573 48.0929 77.8573 47.2142C77.8573 46.5112 78.6434 46.028 80.1064 46.028C81.3729 46.028 82.9015 46.4453 82.9451 46.4673V43.4139H82.9233ZM113.669 50.4653C113.669 52.5741 112.053 54.2876 109.913 54.2876C107.751 54.2876 106.157 52.5741 106.157 50.4653C106.157 48.3565 107.751 46.643 109.913 46.643C112.053 46.665 113.669 48.3784 113.669 50.4653ZM109.913 42.9745C105.48 42.9745 102.292 46.3355 102.292 50.4873C102.292 54.639 105.48 58 109.913 58C114.346 58 117.534 54.639 117.534 50.4873C117.534 46.3355 114.346 42.9745 109.913 42.9745ZM60.4755 43.4798C60.1261 43.3699 58.8596 42.9526 57.1564 42.9526C52.7236 42.9526 49.47 46.1378 49.47 50.4653C49.47 55.1443 53.0512 57.978 57.1564 57.978C58.7723 57.978 60.0169 57.5826 60.4755 57.4508V53.5627C60.3227 53.6505 59.1217 54.3315 57.4184 54.3315C54.9946 54.3315 53.4224 52.6181 53.4224 50.4653C53.4224 48.2466 55.0601 46.5991 57.4184 46.5991C59.1653 46.5991 60.3227 47.302 60.4755 47.368V43.4798ZM98.4489 43.4798C98.0996 43.3699 96.833 42.9526 95.1298 42.9526C90.697 42.9526 87.4434 46.1378 87.4434 50.4653C87.4434 55.1443 91.0464 57.978 95.1298 57.978C96.7457 57.978 97.9904 57.5826 98.4489 57.4508V53.5627C98.2961 53.6505 97.0951 54.3315 95.3919 54.3315C92.968 54.3315 91.4176 52.6181 91.4176 50.4653C91.4176 48.2466 93.0554 46.5991 95.3919 46.5991C97.1388 46.5991 98.2961 47.302 98.4489 47.368V43.4798ZM69.1227 57.7364H65.476V43.2381H69.1227V57.7364Z" fill="#CECDD3"/>
<path opacity="0.01" d="M166.941 0.0600586H0.0605469V71.9401H166.941V0.0600586Z" stroke="#CECDD3" stroke-width="0.1"/>
</svg>