<svg xmlns="http://www.w3.org/2000/svg" xmlns:xlink="http://www.w3.org/1999/xlink" width="140" height="60" viewBox="0 0 140 60" version="1.1">
    <!-- Generator: Sketch 59.1 (86144) - https://sketch.com -->
    <title>Group 34</title>
    <desc>Created with Sketch.</desc>
    <g id="Page-1" stroke="none" stroke-width="1" fill="none" fill-rule="evenodd">
        <g id="landing-page-HD-v12" transform="translate(-410.000000, -815.000000)">
            <g id="Group-34" transform="translate(410.000000, 815.000000)">
                <rect id="Rectangle-Copy-60" stroke="#F3F3F3" stroke-width="0.1" opacity="0.01" x="0.05" y="0.05" width="139.9" height="59.9"/>
                <g id="clearcover-logo-2" transform="translate(6.000000, 19.000000)" fill="#001A4C" fill-rule="nonzero">
                    <g id="clearcover-logo">
                        <g id="Group" transform="translate(0.000000, 0.577791)">
                            <path d="M38.4342368,7.05340006 L30.433254,7.05340006 L26.2325468,13.040065 C25.795493,13.6628533 25.069887,14.0356271 24.2941768,14.0356271 L5.96789771,14.0356271 L4.71991985,15.8136819 C3.1264441,18.0839466 4.80020737,21.1601611 7.62838034,21.1601611 L28.4031268,21.1601611 C29.1790382,21.1601611 29.9050466,20.7875828 30.3423017,20.164599 L38.9189802,7.94457768 C39.184593,7.56613507 38.9056995,7.05340006 38.4342368,7.05340006" id="Path"/>
                            <path d="M15.984741,7.12461217 L30.4332741,7.12461217 L34.807032,0.891060326 C35.0724436,0.512813193 34.7935501,7.81906218e-05 34.3222886,7.81906218e-05 L11.8794131,7.81906218e-05 C8.67897969,7.81906218e-05 5.68580481,1.53730582 3.88285712,4.10664965 L0.617630317,8.76035998 C-0.975241772,11.0304292 0.697917831,14.1068392 3.52528591,14.1068392 L5.96791783,14.1068392 L7.98617289,11.2311836 C9.7893218,8.6618398 12.783704,7.12461217 15.984741,7.12461217" id="Path" fill-opacity="0.75"/>
                            <path d="M30.4849983,7.05323888 L15.986436,7.05323888 C12.7853989,7.05323888 9.78936205,8.6618398 7.98621313,11.2311836 L5.91885005,14.1068392 L24.294036,14.1068392 C25.0699474,14.1068392 25.7955533,13.7342609 26.2326072,13.1112771 L30.4849983,7.05323888 Z" id="Path" fill-opacity="0.9"/>
                        </g>
                        <path d="M49.4591344,17.4605593 C51.5175753,17.4605593 52.9996528,16.5575045 54.0206395,15.3375884 L52.9502502,14.4662197 C52.1268738,15.4484898 50.9741469,16.1455848 49.4591344,16.1455848 C46.9890052,16.1455848 45.1281746,14.4820628 45.1281746,11.8045845 C45.1281746,9.19047844 46.7913949,7.33683963 49.4591344,7.33683963 C50.8094716,7.33683963 52.0610037,7.95471923 52.9502502,9.03204778 L54.0206395,8.17652217 C52.7526399,6.65558776 51.0729521,6.02186509 49.4591344,6.02186509 C45.7045381,6.02186509 43.6296296,8.60428497 43.6296296,11.8045845 C43.6296296,15.480176 46.2973691,17.4605593 49.4591344,17.4605593 Z M56.0975562,17.381344 L57.4314259,17.381344 L57.4314259,5.72084682 L56.0975562,5.72084682 L56.0975562,17.381344 Z M67.1637346,13.4047342 C67.1637346,13.6106941 67.1307996,13.8800262 67.1307996,13.9275554 L60.9554768,13.9275554 C61.1366196,15.3692745 62.1905413,16.3040154 63.6396838,16.3040154 C64.6442029,16.3040154 65.4017092,15.8604096 65.895735,15.258373 L66.8343841,16.0346833 C66.1427479,16.8902089 65.0558911,17.4764024 63.5902812,17.4764024 C61.3177624,17.4764024 59.6051395,15.8762526 59.6051395,13.5314787 C59.6051395,11.2025479 61.2683598,9.57071205 63.4420734,9.57071205 C65.6816572,9.57071205 67.1637346,11.1867049 67.1637346,13.4047342 Z M63.5079435,10.7589421 C62.2564115,10.7589421 61.2518923,11.5510954 61.0048794,12.8660699 L65.8463324,12.8660699 C65.6322546,11.5986246 64.7924107,10.7589421 63.5079435,10.7589421 Z M75.4139659,9.66577045 L76.7478356,9.66577045 L76.7478356,17.381344 L75.4633685,17.381344 L75.4633685,16.1614278 C74.8046674,16.9852673 73.8166157,17.4764024 72.6474213,17.4764024 C70.4243051,17.4764024 68.7116822,15.9396249 68.7116822,13.5790079 C68.7116822,11.2976063 70.358435,9.57071205 72.6309538,9.57071205 C73.7342781,9.57071205 74.7223298,10.0143179 75.3974984,10.8223143 L75.4139659,9.66577045 Z M72.762694,16.3040154 C74.2118364,16.3040154 75.4633685,15.2108438 75.4633685,13.5790079 C75.4633685,11.9947013 74.3271091,10.7589421 72.7791615,10.7589421 C71.264149,10.7589421 70.0620195,11.8679567 70.0620195,13.5790079 C70.0620195,15.1316285 71.1324088,16.3040154 72.762694,16.3040154 Z M83.1701714,9.57071205 C82.0833145,9.57071205 81.1446655,10.1093763 80.5518345,11.0282742 L80.535367,11.0282742 L80.535367,9.66577045 L79.2014972,9.66577045 L79.2014972,17.381344 L80.535367,17.381344 L80.535367,13.6582233 C80.535367,12.1056027 81.4575485,10.980745 82.972561,10.980745 C83.1043013,10.980745 83.3183791,10.9965881 83.4995219,11.0124311 L83.4995219,9.58655511 C83.4171843,9.57071205 83.3019116,9.57071205 83.1701714,9.57071205 Z M88.0907489,17.4764024 C89.5234238,17.4764024 90.7255533,16.906052 91.4007219,16.1772709 L90.4785404,15.3851176 C89.9845146,15.9079388 89.1446707,16.3040154 88.2060216,16.3040154 C86.5922039,16.3040154 85.472412,15.1791577 85.472412,13.5314787 C85.472412,11.8996429 86.5922039,10.7589421 88.2060216,10.7589421 C89.1611382,10.7589421 89.9515795,11.1391757 90.4456053,11.7253691 L91.3677869,10.9490589 C90.5773456,10.0460041 89.342281,9.57071205 88.1401515,9.57071205 C85.7852951,9.57071205 84.1220748,11.2025479 84.1220748,13.5314787 C84.1220748,15.8762526 85.7852951,17.4764024 88.0907489,17.4764024 Z M96.8679411,17.4764024 C94.3648769,17.4764024 92.7181241,15.7495081 92.7181241,13.5314787 C92.7181241,11.3134494 94.3648769,9.57071205 96.8679411,9.57071205 C99.2227975,9.57071205 100.984823,11.1867049 100.984823,13.5314787 C100.984823,15.8762526 99.2227975,17.4764024 96.8679411,17.4764024 Z M96.8679411,16.3040154 C98.4158886,16.3040154 99.6344857,15.1633146 99.6344857,13.5314787 C99.6344857,11.8837998 98.4158886,10.7589421 96.8679411,10.7589421 C95.1882533,10.7589421 94.0684614,11.9947013 94.0684614,13.5314787 C94.0684614,15.0682562 95.2047208,16.3040154 96.8679411,16.3040154 Z M108.144984,9.66577045 L105.724258,15.7495081 L105.674855,15.7495081 L103.204726,9.66577045 L101.772051,9.66577045 L105.049089,17.381344 L106.333556,17.381344 L109.594127,9.66577045 L108.144984,9.66577045 Z M117.676469,13.4047342 C117.676469,13.6106941 117.643534,13.8800262 117.643534,13.9275554 L111.468212,13.9275554 C111.649354,15.3692745 112.703276,16.3040154 114.152419,16.3040154 C115.156938,16.3040154 115.914444,15.8604096 116.40847,15.258373 L117.347119,16.0346833 C116.655483,16.8902089 115.568626,17.4764024 114.103016,17.4764024 C111.830497,17.4764024 110.117874,15.8762526 110.117874,13.5314787 C110.117874,11.2025479 111.781095,9.57071205 113.954808,9.57071205 C116.194392,9.57071205 117.676469,11.1867049 117.676469,13.4047342 Z M114.020678,10.7589421 C112.769146,10.7589421 111.764627,11.5510954 111.517614,12.8660699 L116.359067,12.8660699 C116.144989,11.5986246 115.305145,10.7589421 114.020678,10.7589421 Z M123.670649,9.57071205 C122.583793,9.57071205 121.645144,10.1093763 121.052313,11.0282742 L121.035845,11.0282742 L121.035845,9.66577045 L119.701975,9.66577045 L119.701975,17.381344 L121.035845,17.381344 L121.035845,13.6582233 C121.035845,12.1056027 121.958027,10.980745 123.473039,10.980745 C123.604779,10.980745 123.818857,10.9965881 124,11.0124311 L124,9.58655511 C123.917662,9.57071205 123.80239,9.57071205 123.670649,9.57071205 Z" id="Shape"/>
                    </g>
                </g>
            </g>
        </g>
    </g>
</svg>