<svg xmlns:xlink="http://www.w3.org/1999/xlink" xmlns="http://www.w3.org/2000/svg" viewBox="0 0 430.5 43.21" width="430.5"  height="43.21" ><defs><style>.cls-1,.cls-3{fill:#fff;}.cls-1{fill-rule:evenodd;}.cls-2{opacity:0.5;}</style></defs><g id="Layer_2" data-name="Layer 2"><g id="Layer_1-2" data-name="Layer 1"><g id="LOGOTYPE"><g id="PREFECT"><path class="cls-1" d="M62,35.91V7.3H78.67c7.63,0,10.44,2.55,10.44,9.32s-2.81,9.26-10.44,9.26H67.59v10ZM67.59,21H78.15c4,0,5.37-1.07,5.37-4.34s-1.36-4.4-5.37-4.4H67.59ZM93.08,35.91V7.3h16.33c7.31,0,10,2.52,10,9.09,0,5.56-1.91,8.16-6.9,8.84l8.32,10.68H114L106,25.4H98.52V35.91Zm5.45-15.38H109c3.74,0,5-1.07,5-4.1s-1.33-4.23-5-4.23H98.53Zm25,15.38V7.3h24.78v4.92H129V19h16.39v4.87H129V31h19.63v4.9Zm29.73,0V7.3h25.11v4.92h-19.5V19h16.55v4.87H158.83V35.91Zm28.42,0V7.3h24.78v4.92H187.13V19h16.41v4.87H187.13V31h19.64v4.9ZM236.5,7.3h25.11v5H251.17V35.91h-5.56V12.28H224.94c-10,0-10-.08-10,9.32s0,9.41,10,9.41h9v4.9h-9c-15.55,0-15.55-.93-15.55-14.31s-.22-14.3,15.55-14.3Z"/></g></g><g class="cls-2"><path class="cls-1" d="M6.91,21.6A8.48,8.48,0,0,1,15,10.36a5.83,5.83,0,0,1,.59,0,8.12,8.12,0,0,1,.69-5.6A8.48,8.48,0,0,1,32.37,8.51v14.8a1.07,1.07,0,0,1-.61,1L7.42,36.07a1.79,1.79,0,0,1-1.09.19A7.37,7.37,0,0,1,6.91,21.6Z"/></g><path class="cls-1" d="M13.3,28.53a8.49,8.49,0,0,1,8.05-11.25c.2,0,.4,0,.59,0a8.16,8.16,0,0,1,.7-5.59,8.47,8.47,0,0,1,16.11,3.72V30.23a1.09,1.09,0,0,1-.61,1L13.81,43a2,2,0,0,1-1.09.19,7.37,7.37,0,0,1,.58-14.66Z"/><path class="cls-3" d="M278.48,21.6c0-10.81,4.28-14.82,15.47-14.82a28.28,28.28,0,0,1,9.61,1.49l-.38,5a28,28,0,0,0-9.06-1.49c-7.52,0-10,2.39-10,9.78s2.44,9.79,10,9.79a27.56,27.56,0,0,0,9.06-1.5l.38,5a28.48,28.48,0,0,1-9.61,1.5C282.76,36.43,278.48,32.41,278.48,21.6Z"/><path class="cls-3" d="M308,7.29h5.6V30.92H331.8v5H308Z"/><path class="cls-3" d="M333.47,21.6c0-11,4.06-14.82,15.43-14.82s15.42,3.84,15.42,14.82-4,14.83-15.42,14.83S333.47,32.58,333.47,21.6Zm25.17,0c0-7.64-2.18-9.91-9.74-9.91s-9.75,2.27-9.75,9.91,2.18,9.92,9.75,9.92S358.64,29.25,358.64,21.6Z"/><path class="cls-3" d="M369.06,24V7h5.6V24c0,5.68,1.54,7.13,8,7.13s7.95-1.41,7.95-7.13V7H396V24c0,9.62-2.86,12.22-13.5,12.22S369.06,33.57,369.06,24Z"/><path class="cls-3" d="M402.18,7.29h13.24c11.28,0,15.08,3.59,15.08,14.31s-3.8,14.32-15.08,14.32H402.18ZM415,31c7.73,0,9.78-1.92,9.78-9.4s-2.05-9.4-9.78-9.4h-7.27V31Z"/></g></g></svg>