<svg xmlns:xlink="http://www.w3.org/1999/xlink" xmlns="http://www.w3.org/2000/svg" width="167" height="72" viewBox="0 0 167 72" fill="none">
<path d="M44.7326 43.2C48.356 43.2 51.2933 40.2451 51.2933 36.6C51.2933 32.9549 48.356 30 44.7326 30C41.1092 30 38.1719 32.9549 38.1719 36.6C38.1719 40.2451 41.1092 43.2 44.7326 43.2Z" fill="#CECDD3"/>
<path fillRule="evenodd" clipRule="evenodd" d="M86.4827 28.7999C87.4708 28.7999 88.2719 27.9941 88.2719 27C88.2719 26.0058 87.4708 25.2 86.4827 25.2C85.4945 25.2 84.6934 26.0058 84.6934 27C84.6934 27.9941 85.4945 28.7999 86.4827 28.7999Z" fill="#CECDD3"/>
<path fillRule="evenodd" clipRule="evenodd" d="M44.7326 16.8C48.356 16.8 51.2933 19.755 51.2933 23.4C51.2933 27.0451 48.356 30 44.7326 30H38.1719V16.8H44.7326Z" fill="#CECDD3" fillOpacity="0.75"/>
<path fillRule="evenodd" clipRule="evenodd" d="M38.171 16.8V30H31.6115C27.9881 30 25.0508 27.0451 25.0508 23.4C25.0508 19.755 27.9881 16.8 31.6115 16.8H38.171Z" fill="#CECDD3"/>
<path fillRule="evenodd" clipRule="evenodd" d="M38.1722 30V43.2H31.6115C27.9881 43.2 25.0508 40.2451 25.0508 36.6C25.0508 32.9549 27.9881 30 31.6115 30H38.1722Z" fill="#CECDD3"/>
<path fillRule="evenodd" clipRule="evenodd" d="M31.6115 43.2H38.1722V49.8C38.1722 53.445 35.2349 56.4 31.6115 56.4C27.9881 56.4 25.0508 53.445 25.0508 49.8C25.0508 46.1549 27.9881 43.2 31.6115 43.2Z" fill="#CECDD3"/>
<path fillRule="evenodd" clipRule="evenodd" d="M82.308 24V26.8327H74.3314V31.9234H80.5313V34.8569H74.3314V44.4H71.5723V24H82.308Z" fill="#CECDD3"/>
<path fillRule="evenodd" clipRule="evenodd" d="M85.8867 31.2H88.2724V44.4H85.8867V31.2Z" fill="#CECDD3"/>
<path fillRule="evenodd" clipRule="evenodd" d="M97.5097 30C98.2278 30 98.9566 30.1828 99.696 30.5485C100.435 30.9142 100.963 31.2518 101.28 31.5612V30.2973H103.78V43.8151C103.48 46.3161 102.119 47.9562 99.696 48.7354C97.2731 49.5146 95.2913 49.3137 93.7503 48.1325L95.132 45.9312C96.7239 46.7494 98.1665 46.7494 99.4596 45.9312C100.753 45.113 101.359 43.4776 101.28 41.0251C100.697 41.5133 100.09 41.873 99.4596 42.1042C98.8292 42.3353 98.1218 42.4509 97.3374 42.4509C95.6887 42.4509 94.3736 41.796 93.392 40.4864C92.4104 39.1767 91.8969 37.7504 91.8516 36.2073C91.9583 34.5229 92.5317 33.0672 93.5718 31.8403C94.6119 30.6134 95.9245 30 97.5097 30ZM97.765 32.3188C95.6509 32.3188 94.1608 34.0597 94.1608 36.2073C94.1608 38.3549 95.6509 40.0958 97.765 40.0958C99.8792 40.0958 101.342 38.3549 101.342 36.2073C101.342 34.0597 99.8792 32.3188 97.765 32.3188Z" fill="#CECDD3"/>
<path fillRule="evenodd" clipRule="evenodd" d="M107.357 30.3407V44.4H110.199V35.5949C110.353 33.637 111.25 32.658 112.889 32.658C114.529 32.658 115.411 33.5656 115.535 35.3807V44.4H118.349V35.1551C118.447 33.4904 119.352 32.658 121.064 32.658C122.775 32.658 123.711 33.6722 123.87 35.7004V44.4H126.443V34.6874C125.79 31.7896 124.406 30.2377 122.29 30.0316C120.174 29.8254 118.585 30.6293 117.522 32.4432C116.326 30.8354 115.03 30.0316 113.635 30.0316C112.24 30.0316 111.095 30.535 110.199 31.5418V30.3407H107.357Z" fill="#CECDD3"/>
<path fillRule="evenodd" clipRule="evenodd" d="M135.371 30.0006C136.389 29.9879 137.299 30.1676 138.102 30.5397C138.904 30.9118 139.574 31.329 140.113 31.7912V30.3065H143.144V44.2149H140.113V42.6561C139.343 43.3212 138.63 43.7806 137.974 44.0345C137.318 44.2884 136.45 44.41 135.371 44.3994C133.39 44.3994 131.84 43.7107 130.721 42.3333C129.601 40.9559 128.973 39.2958 128.835 37.3529C128.766 35.6325 129.395 33.977 130.721 32.3864C132.046 30.7959 133.597 30.0006 135.371 30.0006ZM135.823 32.5798C134.448 32.5798 133.398 33.095 132.673 34.1253C131.949 35.1557 131.581 36.2309 131.572 37.351C131.572 38.5385 131.988 39.5933 132.82 40.5155C133.652 41.4378 134.653 41.9274 135.823 41.9845C137.184 41.9845 138.251 41.4734 139.023 40.4514C139.796 39.4293 140.192 38.3958 140.212 37.351C140.199 36.2044 139.803 35.1291 139.023 34.1253C138.244 33.1216 137.177 32.6064 135.823 32.5798Z" fill="#CECDD3"/>
<path opacity="0.01" d="M166.941 0.0600586H0.0605469V71.9401H166.941V0.0600586Z" stroke="#CECDD3" strokeWidth="0.1"/>
</svg>