<svg xmlns:xlink="http://www.w3.org/1999/xlink" xmlns="http://www.w3.org/2000/svg" width="106" height="30" viewBox="0 0 106 30" fill="none">
<path d="M14.6981 0C6.72393 0 0 6.40652 0 14.3224C0 14.575 0.0064778 29.15 0.0064778 29.15L14.6981 29.137C22.6852 29.137 29.15 22.4779 29.15 14.5685C29.15 6.65916 22.6852 0 14.6981 0ZM14.575 22.9054C13.3118 22.9054 12.107 22.6269 11.0381 22.1151L5.75874 23.4236L7.24863 18.5459C6.61381 17.3669 6.24458 16.0131 6.24458 14.575C6.24458 9.97578 9.97578 6.24458 14.575 6.24458C19.1742 6.24458 22.9054 9.97578 22.9054 14.575C22.9054 19.1742 19.1742 22.9054 14.575 22.9054Z" fill="white"/>
<g clip-path="url(#clip0_2598_1875)">
<path d="M33.3236 6.22769C33.7776 6.22145 34.2137 6.40837 34.5268 6.74342C34.855 7.0736 35.0361 7.52655 35.0279 7.99631C35.0361 8.46103 34.857 8.90865 34.5323 9.23519C34.2242 9.56677 33.7941 9.75288 33.3456 9.74811C32.8881 9.75458 32.4486 9.56548 32.1342 9.22678C31.8052 8.89127 31.6243 8.43384 31.6331 7.95987C31.6331 7.00689 32.3903 6.23358 33.3264 6.23049L33.3236 6.22769ZM31.991 12.1278H34.6562V23.4402H31.991V12.1278ZM43.5822 13.9188L41.9303 15.6005C41.2585 14.9166 40.6472 14.5747 40.0966 14.5747C39.8482 14.56 39.6018 14.6279 39.3945 14.7681C39.2367 14.876 39.1418 15.0568 39.1412 15.2502C39.142 15.4005 39.1992 15.5448 39.3009 15.6538C39.5381 15.8654 39.8067 16.0375 40.0966 16.1639L41.074 16.66C42.1018 17.1777 42.8085 17.7047 43.194 18.2409C44.1133 19.5893 43.9162 21.4221 42.7315 22.5349C42.0376 23.1776 41.1079 23.4991 39.9424 23.4991C38.4857 23.54 37.1011 22.8494 36.2421 21.652L37.894 19.8329C38.2026 20.2004 38.5763 20.5056 38.9953 20.7326C39.3301 20.9356 39.7076 21.0538 40.0966 21.0774C40.4008 21.0929 40.7009 21.0019 40.9474 20.8195C41.1426 20.6847 41.2623 20.4627 41.2695 20.2225C41.2695 19.804 40.8821 19.3965 40.1076 19.0004L39.2101 18.5436C37.492 17.6615 36.633 16.5583 36.633 15.2334C36.6266 14.3933 36.9816 13.5923 37.6049 13.0415C38.2844 12.4235 39.1723 12.0969 40.0828 12.1306C41.4622 12.1229 42.762 12.7876 43.5795 13.9188H43.5822ZM55.9994 14.5943L53.7802 15.836C53.4347 15.4447 53.014 15.1299 52.544 14.911C52.0881 14.73 51.6016 14.6424 51.1123 14.6532C50.2186 14.6134 49.3467 14.9407 48.6922 15.5613C48.0739 16.1681 47.7374 17.0138 47.7671 17.8877C47.7403 18.7291 48.0631 19.5434 48.6564 20.13C49.2864 20.7346 50.1289 21.0558 50.994 21.0213C52.1869 21.0213 53.1159 20.6073 53.7802 19.7796L55.8837 21.2455C54.7439 22.7535 53.136 23.5075 51.06 23.5075C49.1914 23.5075 47.7286 22.9469 46.6714 21.8257C45.4368 20.5625 44.8641 18.779 45.1273 17.016C45.3905 15.253 46.4591 13.7254 48.0072 12.893C48.9618 12.3764 50.0292 12.1132 51.1101 12.1278C52.0936 12.1116 53.0672 12.3315 53.9515 12.7696C54.7764 13.1895 55.4809 13.8179 55.9994 14.5943ZM62.5658 12.1278C63.5581 12.1248 64.5336 12.3888 65.3934 12.893C67.1354 13.8897 68.21 15.7687 68.2017 17.8036C68.2061 18.8079 67.9486 19.7953 67.4556 20.6654C66.9776 21.5351 66.2764 22.256 65.4265 22.7507C64.5614 23.2527 63.581 23.512 62.5851 23.5019C61.1152 23.5244 59.7025 22.9245 58.6838 21.8454C57.6249 20.7878 57.0404 19.3331 57.0676 17.8232C57.0538 14.7064 59.513 12.1642 62.5741 12.1278H62.5658ZM62.6099 14.684C61.8294 14.6656 61.0777 14.9856 60.5422 15.5641C59.9852 16.1704 59.6882 16.977 59.7162 17.8064C59.6822 18.6504 59.9793 19.4733 60.5422 20.0936C61.0769 20.6729 61.8296 20.991 62.6099 20.9681C63.3971 20.9898 64.1558 20.6673 64.6941 20.0824C65.256 19.466 65.5534 18.6467 65.5201 17.8064C65.5521 16.9706 65.2547 16.1561 64.6941 15.5445C64.1514 14.9688 63.3932 14.6557 62.6099 14.684ZM69.8317 12.4081H72.5271V17.6158C72.4926 18.3266 72.5613 19.0388 72.7308 19.7292C72.8503 20.0989 73.0816 20.4207 73.3916 20.6485C73.7217 20.8754 74.1141 20.9902 74.5122 20.9765C74.9131 20.9899 75.3081 20.8774 75.6438 20.6541C75.9678 20.4205 76.2098 20.0877 76.3348 19.704C76.445 19.392 76.5 18.7258 76.5 17.7055V12.4081H79.1652V16.9908C79.1652 18.8799 79.0183 20.172 78.7246 20.8672C78.4066 21.6707 77.8541 22.3555 77.1415 22.8292C76.3387 23.3116 75.4161 23.5481 74.4846 23.5103C73.3192 23.5103 72.3765 23.2449 71.6571 22.7143C70.9255 22.1652 70.3922 21.386 70.14 20.4972C69.9344 19.8357 69.8317 18.6397 69.8317 16.9095V12.4081ZM80.93 12.4081H83.2152V13.7703C83.4265 13.2781 83.7678 12.8551 84.2009 12.5482C84.5982 12.2741 85.0673 12.1286 85.5472 12.1306C85.9249 12.1386 86.2961 12.2344 86.632 12.4109L85.806 14.7485C85.5695 14.6118 85.3063 14.5305 85.0351 14.5102C84.624 14.5102 84.2771 14.769 83.9944 15.2866C83.7116 15.8042 83.5704 16.8178 83.5704 18.3277V23.2244H80.9245L80.93 12.4081ZM94.1786 13.9188L92.5267 15.6005C91.8568 14.9166 91.2483 14.5747 90.7013 14.5747C90.4528 14.56 90.2065 14.6279 89.9992 14.7681C89.8414 14.876 89.7465 15.0568 89.7459 15.2502C89.7467 15.4005 89.8039 15.5448 89.9056 15.6538C90.1435 15.8622 90.4119 16.0316 90.7013 16.1555L91.6787 16.6516C92.7065 17.1693 93.4132 17.6963 93.7987 18.2324C94.7169 19.5812 94.5197 21.4137 93.3361 22.5265C92.6423 23.1692 91.7125 23.4907 90.5471 23.4907C89.0859 23.5347 87.6975 22.8426 86.8357 21.6408L88.4877 19.8217C88.7963 20.1891 89.1696 20.4944 89.589 20.7214C89.929 20.9259 90.3125 21.0432 90.7068 21.0634C91.011 21.0789 91.3111 20.9879 91.5575 20.8055C91.7407 20.6688 91.8513 20.4535 91.8576 20.2225C91.8576 19.804 91.4703 19.3965 90.6958 19.0004L89.7982 18.5436C88.0802 17.6615 87.2212 16.5583 87.2212 15.2334C87.2147 14.3933 87.5697 13.5923 88.1931 13.0415C88.8726 12.4237 89.7605 12.0972 90.671 12.1306C92.0504 12.1229 93.3502 12.7876 94.1676 13.9188H94.1786ZM106.841 18.5996H98.2782C98.3731 19.3149 98.7264 19.9686 99.2694 20.4327C99.8528 20.9028 100.583 21.1444 101.326 21.1138C102.288 21.1286 103.215 20.7452 103.895 20.0515L106.141 21.125C105.632 21.8883 104.939 22.5057 104.129 22.9189C103.257 23.3258 102.305 23.5243 101.345 23.4991C99.6788 23.4991 98.3223 22.9637 97.2733 21.893C96.2331 20.8293 95.6684 19.3769 95.7122 17.8765C95.6654 16.3464 96.2309 14.8634 97.2788 13.7646C98.3057 12.6822 99.7327 12.0891 101.21 12.1306C102.882 12.1306 104.244 12.6752 105.293 13.7646C106.342 14.8541 106.868 16.2937 106.866 18.0839L106.841 18.5996ZM104.176 16.461C104.006 15.8665 103.643 15.3486 103.146 14.9923C102.619 14.6148 101.987 14.4186 101.343 14.4317C100.639 14.4183 99.9508 14.642 99.385 15.068C98.9511 15.4464 98.6155 15.9276 98.4076 16.4694L104.176 16.461Z" fill="white"/>
</g>
<defs>
<clipPath id="clip0_2598_1875">
<rect width="106" height="29.15" fill="white"/>
</clipPath>
</defs>
</svg>