<svg xmlns:xlink="http://www.w3.org/1999/xlink" xmlns="http://www.w3.org/2000/svg" viewBox="0 0 262.02 41.62" width="262.02"  height="41.62" ><defs><style>.cls-1,.cls-2{fill:#fff;}.cls-1{fill-rule:evenodd;}</style></defs><g id="Layer_2" data-name="Layer 2"><g id="Layer_1-2" data-name="Layer 1"><path class="cls-1" d="M62.43,35.11V6.5H79.08c7.63,0,10.44,2.56,10.44,9.32s-2.81,9.27-10.44,9.27H68v10ZM68,20.17H78.56c4,0,5.37-1.07,5.37-4.35s-1.36-4.4-5.37-4.4H68ZM93.49,35.11V6.5h16.33c7.31,0,10,2.52,10,9.1,0,5.55-1.92,8.16-6.91,8.83l8.32,10.68h-6.82l-8-10.5H98.93v10.5Zm5.45-15.37h10.43c3.74,0,5-1.07,5-4.11s-1.33-4.23-5-4.23H98.94Zm25,15.37V6.5h24.78v4.92H129.39v6.75h16.39V23H129.39v7.17H149v4.9Zm29.73,0V6.5h25.11v4.92h-19.5v6.75h16.55V23H159.24V35.11Zm28.42,0V6.5h24.79v4.92h-19.3v6.75H204V23H187.54v7.17h19.64v4.9ZM236.91,6.5H262v5H251.58V35.11H246V11.49H225.35c-10,0-10-.09-10,9.32s0,9.41,10,9.41h9v4.9h-9c-15.55,0-15.55-.94-15.55-14.31S209.58,6.5,225.35,6.5Z"/><path class="cls-2" d="M29.6,18,21,22.32,38.7,31.39A20.79,20.79,0,0,0,6,6.22Z"/><path class="cls-2" d="M12.15,22.28l8.44-4.4L3.53,9.22a20.8,20.8,0,0,0,32.8,25.42Z"/></g></g></svg>