<svg xmlns:xlink="http://www.w3.org/1999/xlink" xmlns="http://www.w3.org/2000/svg" width="88" height="22" viewBox="0 0 88 22" fill="none">
<path fillRule="evenodd" clipRule="evenodd" d="M40.2109 0H44.0227V18.8151H40.2109V0ZM28.9715 14.8436L27.8672 17.4314C29.399 18.5455 31.4118 19.0667 33.6027 19.0667C36.5951 19.0667 38.6791 17.3235 38.6791 14.8436C38.6356 12.0611 36.0306 11.3554 33.9991 10.8052C32.6982 10.4528 31.6325 10.1641 31.6255 9.4345C31.6255 8.85944 32.2489 8.41018 33.193 8.41018C34.5823 8.41018 36.0429 8.94929 37.2185 9.70405L38.2516 7.06239C36.9691 6.03808 35.1701 5.58882 33.3711 5.58882C30.3431 5.58882 28.2056 7.45774 28.2234 9.88376C28.2562 12.8139 30.8656 13.3875 32.8846 13.8313C34.1594 14.1115 35.1988 14.34 35.2057 15.0772C35.2057 15.7601 34.4754 16.2094 33.3177 16.2094C31.7502 16.2094 30.1649 15.7421 28.9715 14.8436ZM67.4633 15.5445C68.6567 15.5445 69.6898 14.8795 70.242 13.9091L73.2878 15.6163C72.1478 17.6829 69.9748 19.0667 67.4633 19.0667C63.7762 19.0667 60.7838 16.0476 60.7838 12.3277C60.7838 8.60785 63.7762 5.58882 67.4633 5.58882C69.957 5.58882 72.1478 6.99051 73.2878 9.03915L70.242 10.7463C69.6898 9.77594 68.6567 9.11103 67.4633 9.11103C65.6999 9.11103 64.2749 10.5487 64.2749 12.3277C64.2749 14.1068 65.6999 15.5445 67.4633 15.5445ZM74.784 18.8151V0H78.5958V11.0518L82.9063 5.85837H87.573L82.2472 12.1121L88.0005 18.8151H83.12L78.5958 13.1724V18.8151H74.784ZM55.3511 13.9451C54.7989 14.8616 53.659 15.5445 52.3765 15.5445C50.6131 15.5445 49.1882 14.1068 49.1882 12.3277C49.1882 10.5487 50.6131 9.11103 52.3765 9.11103C53.659 9.11103 54.7989 9.82985 55.3511 10.7643V13.9451ZM55.3511 7.38586V5.85837H59.1629V18.7971H55.3511V17.2696C54.7277 18.3299 53.178 19.0667 51.5572 19.0667C48.2085 19.0667 45.5723 16.0476 45.5723 12.3098C45.5723 8.57191 48.2085 5.58882 51.5572 5.58882C53.178 5.58882 54.7277 6.3256 55.3511 7.38586Z" fill="white" fillOpacity="0.5"/>
<path fillRule="evenodd" clipRule="evenodd" d="M2.28148 16.2964C3.54321 16.2964 4.56296 15.2766 4.56296 14.0149V11.7334H2.28148C1.01975 11.7334 0 12.7532 0 14.0149C0 15.2766 1.01975 16.2964 2.28148 16.2964ZM7.98519 11.7334C6.72346 11.7334 5.7037 12.7532 5.7037 14.0149V19.7186C5.7037 20.9803 6.72346 22.0001 7.98519 22.0001C9.24691 22.0001 10.2667 20.9803 10.2667 19.7186V14.0149C10.2667 12.7532 9.24691 11.7334 7.98519 11.7334Z" fill="white" fillOpacity="0.5"/>
<path fillRule="evenodd" clipRule="evenodd" d="M5.71137 2.27765C5.71137 3.53725 6.72941 4.55529 7.98902 4.55529H10.2667V2.27765C10.2667 1.01804 9.24863 0 7.98902 0C6.72941 0 5.71137 1.01804 5.71137 2.27765ZM10.2667 7.98902C10.2667 6.72941 9.24863 5.71137 7.98902 5.71137H2.27765C1.01804 5.71137 0 6.72941 0 7.98902C0 9.24863 1.01804 10.2667 2.27765 10.2667H7.98902C9.24863 10.2667 10.2667 9.24863 10.2667 7.98902Z" fill="white" fillOpacity="0.5"/>
<path fillRule="evenodd" clipRule="evenodd" d="M14.0139 10.2667C15.2756 10.2667 16.2954 9.24863 16.2954 7.98902V2.27765C16.2954 1.01804 15.2756 0 14.0139 0C12.7522 0 11.7324 1.01804 11.7324 2.27765V7.98902C11.7324 9.24863 12.7522 10.2667 14.0139 10.2667ZM19.7176 5.71137C18.4559 5.71137 17.4361 6.72941 17.4361 7.98902V10.2667H19.7176C20.9793 10.2667 21.9991 9.24863 21.9991 7.98902C21.9991 6.72941 20.9793 5.71137 19.7176 5.71137Z" fill="white" fillOpacity="0.5"/>
<path fillRule="evenodd" clipRule="evenodd" d="M11.7324 14.0149C11.7324 15.2766 12.7505 16.2964 14.0101 16.2964H19.7214C20.981 16.2964 21.9991 15.2766 21.9991 14.0149C21.9991 12.7532 20.981 11.7334 19.7214 11.7334H14.0101C12.7505 11.7334 11.7324 12.7532 11.7324 14.0149ZM16.2877 19.7186C16.2877 18.4569 15.2697 17.4371 14.0101 17.4371H11.7324V19.7186C11.7324 20.9803 12.7505 22.0001 14.0101 22.0001C15.2697 22.0001 16.2877 20.9803 16.2877 19.7186Z" fill="white" fillOpacity="0.5"/>
</svg>