<svg xmlns:xlink="http://www.w3.org/1999/xlink" xmlns="http://www.w3.org/2000/svg" width="24" height="24" viewBox="0 0 24 24" fill="none">
<g clipPath="url(#clip0)">
<path fillRule="evenodd" clipRule="evenodd" d="M22.7794 6.35526L17.8978 11.2368V7.57566H15.457V5.13487H17.8978V1.47368L22.7794 6.35526Z" fill="#91EBFF"/>
<path d="M6.91447 18.5592C3.49737 18.5592 0.8125 15.5082 0.8125 11.847C0.8125 8.18586 3.49737 5.13487 6.91447 5.13487V7.57566C4.8398 7.57566 3.25329 9.52829 3.25329 11.847C3.25329 14.1658 4.8398 16.1184 6.91447 16.1184V18.5592Z" fill="#91EBFF"/>
<path fillRule="evenodd" clipRule="evenodd" d="M20.3389 13.6776C22.4136 13.6776 24.0001 15.2641 24.0001 17.3388C24.0001 19.4135 22.4136 21 20.3389 21C18.2642 21 16.6777 19.4135 16.6777 17.3388C16.6777 15.2641 18.2642 13.6776 20.3389 13.6776ZM20.3389 16.1184C19.6067 16.1184 19.1185 16.6066 19.1185 17.3388C19.1185 18.0711 19.6067 18.5592 20.3389 18.5592C21.0712 18.5592 21.5593 18.0711 21.5593 17.3388C21.5593 16.6066 21.0712 16.1184 20.3389 16.1184Z" fill="#91EBFF"/>
<path fillRule="evenodd" clipRule="evenodd" d="M9.35454 13.6776C11.4292 13.6776 13.0157 15.2641 13.0157 17.3388C13.0157 19.4135 11.4292 21 9.35454 21C7.27987 21 5.69336 19.4135 5.69336 17.3388C5.69336 15.2641 7.27987 13.6776 9.35454 13.6776ZM9.35454 16.1184C8.62231 16.1184 8.13415 16.6066 8.13415 17.3388C8.13415 18.0711 8.62231 18.5592 9.35454 18.5592C10.0868 18.5592 10.5749 18.0711 10.5749 17.3388C10.5749 16.6066 10.0868 16.1184 9.35454 16.1184Z" fill="#91EBFF"/>
<path fillRule="evenodd" clipRule="evenodd" d="M9.35454 2.69408C11.4292 2.69408 13.0157 4.28059 13.0157 6.35526C13.0157 8.42993 11.4292 10.0164 9.35454 10.0164C7.27987 10.0164 5.69336 8.42993 5.69336 6.35526C5.69336 4.28059 7.27987 2.69408 9.35454 2.69408ZM9.35454 5.13487C8.62231 5.13487 8.13415 5.62303 8.13415 6.35526C8.13415 7.0875 8.62231 7.57566 9.35454 7.57566C10.0868 7.57566 10.5749 7.0875 10.5749 6.35526C10.5749 5.62303 10.0868 5.13487 9.35454 5.13487Z" fill="#91EBFF"/>
<path fillRule="evenodd" clipRule="evenodd" d="M19.1192 18.5592H11.7969V16.1184H19.1192V18.5592Z" fill="#91EBFF"/>
</g>
<defs>
<clipPath id="clip0">
<rect width="24" height="24" fill="white"/>
</clipPath>
</defs>
</svg>