<svg xmlns="http://www.w3.org/2000/svg" xmlns:xlink="http://www.w3.org/1999/xlink" width="140" height="60" viewBox="0 0 140 60" version="1.1">
    <!-- Generator: Sketch 59.1 (86144) - https://sketch.com -->
    <title>Group 27</title>
    <desc>Created with Sketch.</desc>
    <g id="Page-1" stroke="none" stroke-width="1" fill="none" fill-rule="evenodd">
        <g id="landing-page-HD-v12" transform="translate(-250.000000, -815.000000)">
            <g id="Group-27" transform="translate(250.000000, 815.000000)">
                <g id="Joyn_(Streaminganbieter)_logo-2-Copy-3" transform="translate(39.000000, 17.000000)" fill="#001A4C" fill-rule="nonzero">
                    <g id="Joyn_(Streaminganbieter)_logo">
                        <path d="M24.1318368,9.1123885 C24.1318368,6.74991741 22.5342588,4.97806409 20.2640163,4.97806409 C17.9937738,4.97806409 16.3961958,6.74991741 16.3961958,9.1123885 C16.3961958,11.4748596 17.9937738,13.2467129 20.2640163,13.2467129 C22.5342588,13.2467129 24.1318368,11.4748596 24.1318368,9.1123885 L24.1318368,9.1123885 L24.1318368,9.1123885 Z M29.3449863,9.1123885 C29.3449863,14.137027 25.2712439,18.224777 20.2640163,18.224777 C15.2567022,18.224777 11.1830463,14.137027 11.1830463,9.1123885 C11.1830463,4.08783677 15.2567022,0 20.2640163,0 C25.2712439,0 29.3449863,4.08783677 29.3449863,9.1123885 L29.3449863,9.1123885 Z M0,0.506243805 L0,5.48430789 L4.45640193,5.48430789 L4.45640193,19.1528906 C4.45640193,20.6716221 3.61557137,22.0216055 1.93391027,22.0216055 L0,22.0216055 L0,26.9996696 L1.93391027,26.9996696 C6.47439525,26.9996696 9.66955135,23.413776 9.66955135,19.0263297 L9.66955135,0.506243805 L0,0.506243805 Z M58.1013912,0 C56.5896643,0 54.928433,0.425833004 53.7290723,1.9185001 L53.7290723,0.506243805 L48.5159229,0.506243805 L48.5159229,17.7185332 L53.7290723,17.7185332 L53.7290723,7.93115295 C53.7290723,6.32804757 54.5699028,4.97806409 56.2434055,4.97806409 C57.933225,4.97806409 58.7740556,6.32804757 58.7740556,7.84677898 L58.7740556,17.7185332 L63.987205,17.7185332 L63.987205,6.74991741 C63.987205,2.44684506 61.6328795,0 58.1013912,0 L58.1013912,0 L58.1013912,0 Z M41.116614,0.506243805 L46.3297634,0.506243805 L46.3297634,19.0263297 C46.3297634,23.413776 43.1346073,26.9996696 38.5941223,26.9996696 C34.1377204,26.9996696 30.8584813,23.455963 30.8584813,19.5747605 L36.0716307,19.5747605 C36.1557137,20.924744 37.1647104,22.0216055 38.5941223,22.0216055 C40.2757834,22.0216055 41.116614,20.6716221 41.116614,19.1528906 L41.116614,16.3062865 C39.9172533,17.798944 38.256022,18.224777 36.7442951,18.224777 C33.2128068,18.224777 30.8584813,15.7779319 30.8584813,11.4748596 L30.8584813,0.506243805 L36.0716307,0.506243805 L36.0716307,10.377998 C36.0716307,11.8967294 36.9124612,13.2467129 38.6022808,13.2467129 C40.2757834,13.2467129 41.116614,11.8967294 41.116614,10.293624 L41.116614,0.506243805 Z" id="Fill-1"/>
                    </g>
                </g>
                <rect id="Rectangle-Copy-59" stroke="#F8F8F8" stroke-width="0.1" opacity="0.01" x="0.05" y="0.05" width="139.9" height="59.9"/>
            </g>
        </g>
    </g>
</svg>