<svg xmlns:xlink="http://www.w3.org/1999/xlink" xmlns="http://www.w3.org/2000/svg" width="63" height="86" viewBox="0 0 63 86" fill="none">
<path fillRule="evenodd" clipRule="evenodd" d="M0.558105 85.2782H62.4672V0H0.558105V85.2782ZM2.19567 1.64011H59.7615L41.2901 20.8547H2.19567V1.64011ZM60.8284 2.89592V62.6662H3.35451L60.8284 2.89723V2.89592ZM2.19567 22.4848H39.713L2.19567 61.5111V22.4873V22.4848ZM32.3315 64.305H60.8272V83.6406H32.3315V64.3126V64.305ZM2.19691 64.305H30.7027V83.6406H2.19567V64.3126L2.19691 64.305Z" fill="#090422"/>
<path fillRule="evenodd" clipRule="evenodd" d="M19.3391 11.0997V7.97583H22.123C23.0803 7.97583 23.6068 8.74802 23.6068 9.59574C23.6068 10.4447 23.0904 11.0997 22.07 11.0997H19.3391ZM25.1927 9.56298C25.1927 7.8524 24.0464 6.53223 22.1419 6.53223H17.8086V16.0149H19.3391V12.5634H21.4679L23.7428 16.0149H25.4534L23.142 12.4853C24.3765 12.1478 25.1826 10.8705 25.1826 9.56298H25.1927ZM14.1494 70.6155H16.9331C17.893 70.6155 18.4195 71.3839 18.4195 72.2317C18.4195 73.0819 17.9006 73.7369 16.8828 73.7369H14.1494V70.613V70.6155ZM14.1494 75.2007H16.2782L18.5544 78.6521H20.2637L17.9535 75.1213C19.1905 74.7852 20.0042 73.5089 20.0042 72.1989C20.0042 70.4883 18.8579 69.1682 16.9533 69.1682H12.6201V78.6533H14.1506V75.2007H14.1494ZM45.8231 39.1949V47.2314H47.3511V39.1949H50.6514V37.7513H42.5141V39.1949H45.8231Z" fill="#090422"/>
</svg>