<svg xmlns="http://www.w3.org/2000/svg" xmlns:xlink="http://www.w3.org/1999/xlink" width="140" height="60" viewBox="0 0 140 60" version="1.1">
    <g id="Page-1" stroke="none" strokeWidth="1" fill="none" fillRule="evenodd">
        <g id="landing-page-HD-v12" transform="translate(-570.000000, -741.000000)">
            <g id="Group-61" transform="translate(570.000000, 741.000000)">
                <g id="Group-25-Copy" transform="translate(32.000000, 20.000000)" fill="#001A4C">
                    <path d="M12.1720112,6.60477238 C10.5023482,5.14034596 8.98981704,4.40813274 7.63441755,4.40813274 C6.27901807,4.40813274 5.48924528,4.84977888 5.26509919,5.73307115 C5.20632061,6.20946018 5.36697315,6.6064828 5.7470568,6.92413903 C6.12714045,7.24179525 6.7562607,7.56844091 7.63441755,7.904076 C10.1245682,8.74948429 11.844393,9.70627875 12.7938919,10.7744594 C13.7433909,11.84264 14.1814371,13.1637016 14.1080305,14.737644 C13.9918707,16.2878053 13.3465309,17.6016356 12.1720112,18.679135 C10.9974914,19.7566344 9.48496023,20.3492327 7.63441755,20.4569298 C5.88001745,20.4569298 4.41357347,20.2087313 3.23508563,19.7123344 C2.05659778,19.2159374 0.978235902,18.5127216 -1.19904087e-13,17.6026868 L1.49168316,13.1689378 C2.69872566,14.1917181 3.64001266,14.874442 4.31554417,15.2171094 C4.99107568,15.5597768 5.90389938,15.8114961 7.05401526,15.9722673 C7.67419833,16.0193768 8.158668,15.9389912 8.50742426,15.7311105 C8.85618053,15.5232298 9.09100778,15.1920743 9.21190602,14.737644 C9.28607015,14.3372984 9.17257295,13.9757609 8.87141442,13.6530317 C8.57025589,13.3303024 7.96445617,12.9792484 7.05401526,12.5998694 C4.49095602,11.5734167 2.751648,10.5884161 1.83609119,9.64486752 C0.92053438,8.70131899 0.43881412,7.39738686 0.39093041,5.73307115 C0.39093041,3.92407845 1.13956096,2.50799416 2.63682206,1.48481828 C4.13408315,0.461642387 5.79994832,-0.032737024 7.63441755,0.00168004311 C9.07022574,0.0667597495 10.2138218,0.293358554 11.0652057,0.681476458 C11.9165897,1.06959436 12.7916535,1.58541521 13.6903972,2.228939 L12.1720112,6.60477238 Z" id="Path-4"/>
                    <polygon id="Path-5" points="16.9895039 0.325016484 21.8392193 0.325016484 21.8392193 15.9299093 28.7136242 15.9299093 27.2970724 20.1711024 16.9895039 20.1711024"/>
                    <polygon id="Path-6" points="37.3755155 0.325016484 30.6120191 20.1711024 35.5941836 20.1711024 39.9194877 5.10600709 44.1787595 20.1711024 49.1837468 20.1711024 42.4464069 0.325016484"/>
                    <polygon id="Path-8" points="45.7393001 0.325016484 47.1591855 4.48517582 53.0250282 4.48517582 53.0250282 20.1711024 57.870256 20.1711024 57.870256 4.48517582 63.7931556 4.48517582 65.2272732 0.325016484"/>
                    <polygon id="Path-9" points="68.6185096 0.325016484 67.1990087 4.48107284 74.9104204 4.48107284 74.9104204 0.325016484"/>
                    <polygon id="Path-10" points="65.8688758 8.07297026 73.3746259 8.07297026 73.3746259 12.2219746 64.5191255 12.2219746"/>
                    <polygon id="Path-11" points="63.2731036 15.9674771 75.2845604 15.9674771 75.2845604 20.1711024 61.8303953 20.1711024"/>
                </g>
                <rect id="Rectangle-Copy-38" stroke="#F8F8F8" strokeWidth="0.1" opacity="0.01" x="0.05" y="0.05" width="139.9" height="59.9"/>
            </g>
        </g>
    </g>
</svg>