<svg xmlns:xlink="http://www.w3.org/1999/xlink" xmlns="http://www.w3.org/2000/svg" width="145" height="62" viewBox="0 0 145 62" fill="none">
<path opacity="0.01" d="M144.949 0.0517578H0.0527344V61.9484H144.949V0.0517578Z" stroke="#090422" stroke-width="0.1"/>
<g clip-path="url(#clip0_1830_1676)">
<path d="M69.2014 31.2453C70.6902 31.0949 71.7567 30.4136 72.3583 29.2044C72.8505 28.2194 73.6101 26.6239 73.6162 26.6062C74.3697 25.0962 74.1388 24.1731 73.8106 23.657C73.3184 22.8932 72.3552 22.6218 71.623 22.6218H64.1638L56.4434 38.5475H60.3203L63.2766 32.2922H65.3549C65.5283 32.3024 65.6973 32.3497 65.8496 32.4307C66.002 32.5118 66.1339 32.6247 66.236 32.7612C66.4851 33.1623 66.4183 33.7757 66.0263 34.5838C65.0905 36.5332 64.3461 38.5534 64.3461 38.5534H68.2778C68.3866 38.0268 68.5463 37.5114 68.7548 37.0139C69.0586 36.3179 69.9701 34.1178 69.9701 34.0972C70.7206 32.3129 69.7909 31.5992 69.2014 31.2453V31.2453ZM68.7912 28.6175C68.4631 29.29 67.9587 29.6321 67.2873 29.6321H64.5831L66.634 25.2967H69.5934C69.6718 25.3003 69.7484 25.3206 69.8177 25.3563C69.8871 25.392 69.9474 25.4422 69.9944 25.5032C70.1129 25.6919 70.0704 26.0075 69.8729 26.4174L69.1953 27.7977L68.7912 28.6175Z" fill="#090422"/>
<path d="M27.818 31.2452C29.3068 31.0919 30.3672 30.4106 30.9748 29.2014C31.467 28.2164 32.2266 26.6209 32.2357 26.6032C32.9893 25.0932 32.7583 24.1701 32.4302 23.654C31.938 22.9019 30.9748 22.6306 30.2395 22.6306H22.7713L15.0508 38.5563H18.9368L21.8932 32.301H23.9744C24.1479 32.3112 24.3169 32.3585 24.4692 32.4395C24.6216 32.5206 24.7535 32.6335 24.8556 32.77C25.1078 33.171 25.0379 33.7845 24.6459 34.5926C23.7101 36.542 22.9657 38.5622 22.9657 38.5622H26.8973C27.0048 38.0356 27.1635 37.5201 27.3713 37.0227C27.6752 36.3267 28.5867 34.1266 28.5867 34.1059C29.3402 32.3128 28.4074 31.5991 27.818 31.2452V31.2452ZM27.4078 28.6145C27.0796 29.2899 26.5753 29.6173 25.9068 29.6173H23.2027L25.3113 25.2819H28.2099C28.2883 25.2855 28.3649 25.3058 28.4343 25.3415C28.5036 25.3772 28.564 25.4274 28.611 25.4884C28.7295 25.6771 28.6869 25.9927 28.4894 26.4026L27.8119 27.7829L27.4078 28.6145Z" fill="#090422"/>
<path d="M46.0243 26.5915C47.3825 23.7662 45.845 22.5393 43.8883 22.5393H39.1789C37.1979 22.5393 35.8002 23.4477 34.9009 25.3145C34.4178 26.3172 33.6126 27.9688 32.6798 29.8533L30.711 33.8819C28.733 37.9223 31.6924 38.6006 33.1417 38.6006H36.1162C39.0968 38.6301 40.5644 37.8132 41.7159 35.4833C42.4877 33.9262 43.5572 31.7025 44.6935 29.3461L46.0243 26.5915ZM42.1565 26.1432L38.2066 34.3096C37.6567 35.4361 37.2951 35.6278 36.4413 35.6278H34.7338C34.4299 35.6278 33.8223 35.5482 34.278 34.5838C34.9404 33.1977 37.7174 27.3878 38.2856 26.2199C38.6715 25.4236 39.0725 25.2644 39.5951 25.2644H41.722C42.1261 25.2467 42.4877 25.462 42.1565 26.1432V26.1432Z" fill="#090422"/>
<path d="M52.4832 29.7146L51.1949 32.3689H53.2367L52.0882 34.7784C51.754 35.4773 51.5261 35.6189 50.7392 35.6189H48.7095C48.1019 35.6189 47.8892 35.324 48.2538 34.5749C48.7156 33.6252 52.3617 26.2346 52.3617 26.2346C52.7749 25.394 53.021 25.2672 53.659 25.2672H55.7555C56.2629 25.2672 56.5364 25.4943 56.1961 26.152C56.1201 26.2965 55.2845 28.069 55.2845 28.069L58.9822 28.0955L59.8239 26.3407C61.0544 23.7749 59.9545 22.5746 57.4084 22.5392H53.3917C52.4349 22.515 51.4921 22.7654 50.6813 23.259C49.8706 23.7527 49.228 24.4677 48.8341 25.3144C48.1019 26.8273 44.6473 33.8818 44.6473 33.8818C43.3833 36.4624 44.1155 38.6005 47.5732 38.6005H50.6602C53.1273 38.6241 54.3396 38.2496 55.4669 35.8548L58.3442 29.7353L52.4832 29.7146Z" fill="#090422"/>
<path d="M108.22 22.5806L100.49 38.5298H104.474L112.252 22.5806H108.22Z" fill="#090422"/>
<path d="M113.105 36.6335L117.668 22.5835H113.49L109.662 38.5298H115.052L126.315 22.5835H122.125L113.105 36.6335Z" fill="#090422"/>
<path d="M91.2707 32.9971L90.9365 27.0987C90.897 26.388 91.0763 25.4236 92.4162 25.4236H95.1082L96.4906 22.5806H91.9027C88.2567 22.5806 87.0413 24.7364 87.172 27.2698C87.257 28.8181 87.4758 33.8554 87.4758 33.8554C87.5305 35.0704 87.0504 35.6249 85.8807 35.6249H82.8119L81.4355 38.518H86.3273C89.5723 38.5357 91.4834 36.4801 91.2707 32.9971Z" fill="#090422"/>
<path d="M100.109 27.1046C100.07 26.3938 100.249 25.4295 101.589 25.4295H104.281L105.664 22.5864H101.076C98.0616 22.5864 96.1717 24.1849 96.3449 27.2757C96.433 28.824 96.6488 33.8612 96.6488 33.8612C96.7065 35.0763 96.2264 35.6307 95.0536 35.6307H92.0639L90.6875 38.5239H95.5003C99.0673 38.5239 100.629 36.0466 100.441 32.9853L100.109 27.1046Z" fill="#090422"/>
<path d="M77.5933 31.4017H82.5792L83.8584 28.7474H78.8542L80.4463 25.4384H85.6115L86.9666 22.6101H77.967L70.2891 38.5358H80.0118L81.4125 35.6485H75.515L77.5933 31.4017Z" fill="#090422"/>
<path d="M119.963 38.5328H129.686L131.098 35.6485H125.189L127.267 31.4017H132.253L133.532 28.7474H128.528L130.12 25.4384H135.285L136.637 22.6101H127.641L119.963 38.5328Z" fill="#090422"/>
<path d="M17.2111 30.2454C17.5362 29.5937 18.1803 28.2429 18.9126 26.674C20.1978 23.9135 18.6088 22.6365 16.9225 22.6306H9.54533L1.88867 38.5799H5.86892L8.54268 32.9941C8.54268 32.9941 10.7911 32.9941 12.4196 32.9941C14.902 33.0118 16.1993 32.2715 17.2111 30.2454ZM15.1572 26.5472C14.4401 28.0217 13.8932 29.1247 13.8325 29.2457C13.5104 29.9122 13.0486 30.2071 12.3528 30.2071H9.85525L12.2161 25.2436H14.7197C15.2696 25.2466 15.6615 25.5149 15.1572 26.5472V26.5472Z" fill="#090422"/>
<path d="M139.854 23.6924C139.856 23.6306 139.842 23.5693 139.813 23.5145C139.784 23.4596 139.74 23.4132 139.687 23.3798C139.574 23.3244 139.448 23.2999 139.322 23.309H138.672V24.76H138.854V24.0905H139.188L139.617 24.76H139.833L139.383 24.0905C139.647 24.0846 139.854 23.9785 139.854 23.6924ZM139.14 23.9519H138.86V23.424H139.289C139.474 23.424 139.678 23.4505 139.678 23.6747C139.668 23.9844 139.343 23.9519 139.14 23.9519V23.9519Z" fill="#090422"/>
<path d="M139.17 22.7368C138.905 22.7362 138.646 22.8119 138.426 22.9543C138.206 23.0966 138.034 23.2993 137.932 23.5365C137.831 23.7737 137.804 24.0349 137.856 24.2869C137.907 24.5389 138.034 24.7704 138.222 24.952C138.409 25.1337 138.647 25.2573 138.907 25.3073C139.167 25.3573 139.436 25.3314 139.68 25.2328C139.924 25.1342 140.133 24.9674 140.28 24.7536C140.426 24.5397 140.504 24.2884 140.504 24.0315C140.503 23.6884 140.362 23.3595 140.112 23.1169C139.862 22.8743 139.524 22.7376 139.17 22.7368V22.7368ZM139.17 25.1758C138.938 25.1741 138.711 25.1056 138.519 24.9792C138.327 24.8527 138.178 24.6738 138.09 24.4651C138.003 24.2564 137.981 24.0272 138.027 23.8064C138.073 23.5856 138.186 23.3831 138.351 23.2243C138.516 23.0656 138.725 22.9578 138.953 22.9145C139.181 22.8711 139.417 22.8942 139.631 22.9809C139.845 23.0675 140.029 23.2138 140.157 23.4013C140.286 23.5888 140.355 23.8091 140.355 24.0345C140.355 24.1853 140.325 24.3348 140.265 24.4742C140.206 24.6136 140.119 24.7402 140.008 24.8466C139.898 24.953 139.767 25.0371 139.623 25.0942C139.48 25.1512 139.325 25.1799 139.17 25.1788V25.1758Z" fill="#090422"/>
</g>
<defs>
<clipPath id="clip0_1830_1676">
<rect width="138.922" height="16.3611" fill="white" transform="translate(1.73633 22.3889)"/>
</clipPath>
</defs>
</svg>