<svg xmlns:xlink="http://www.w3.org/1999/xlink" width="218" height="312" viewBox="0 0 218 312" fill="none" xmlns="http://www.w3.org/2000/svg" class="constellation left-auto" data-v-2c70770e="" data-v-70ebf7ad=""><path d="M219.942 1L6 102.623" stroke="url(&quot;#paint0_linear&quot;)" strokeOpacity="0.4" strokeWidth="2px" class="iRvdTgMa_0" data-v-2c70770e="" fill="none"></path><path d="M219.942 102.623L6 204.245" stroke="url(&quot;#paint1_linear&quot;)" strokeOpacity="0.4" strokeWidth="2px" class="iRvdTgMa_1" data-v-2c70770e="" fill="none"></path><path d="M219.942 204.245L6 305.868" stroke="url(&quot;#paint2_linear&quot;)" strokeOpacity="0.4" strokeWidth="2px" class="iRvdTgMa_2" data-v-2c70770e="" fill="none"></path><path fill="#FFFFFF" fillOpacity="0.2" d="M0,306A6,6 0,1,1 12,306A6,6 0,1,1 0,306" class="iRvdTgMa_3" data-v-2c70770e=""></path><path fill="url(&quot;#paint3_linear&quot;)" d="M3,306A3,3 0,1,1 9,306A3,3 0,1,1 3,306" class="iRvdTgMa_4" data-v-2c70770e=""></path><path fill="#FFFFFF" fillOpacity="0.2" d="M0,204A6,6 0,1,1 12,204A6,6 0,1,1 0,204" class="iRvdTgMa_5" data-v-2c70770e=""></path><path fill="url(&quot;#paint4_linear&quot;)" d="M3,204A3,3 0,1,1 9,204A3,3 0,1,1 3,204" class="iRvdTgMa_6" data-v-2c70770e=""></path><path fill="#FFFFFF" fillOpacity="0.2" d="M0,103A6,6 0,1,1 12,103A6,6 0,1,1 0,103" class="iRvdTgMa_7" data-v-2c70770e=""></path><path fill="url(&quot;#paint5_linear&quot;)" d="M3,103A3,3 0,1,1 9,103A3,3 0,1,1 3,103" class="iRvdTgMa_8" data-v-2c70770e=""></path><defs data-v-2c70770e=""><linearGradient id="paint0_linear" x1="112.971" y1="1" x2="112.971" y2="102.623" gradientUnits="userSpaceOnUse" data-v-2c70770e=""><stop stopColor="#91EBFF" data-v-2c70770e=""></stop><stop offset="1" stopColor="#8497FF" data-v-2c70770e=""></stop></linearGradient><linearGradient id="paint1_linear" x1="112.971" y1="102.623" x2="112.971" y2="204.245" gradientUnits="userSpaceOnUse" data-v-2c70770e=""><stop stopColor="#91EBFF" data-v-2c70770e=""></stop><stop offset="1" stopColor="#8497FF" data-v-2c70770e=""></stop></linearGradient><linearGradient id="paint2_linear" x1="112.971" y1="204.245" x2="112.971" y2="305.868" gradientUnits="userSpaceOnUse" data-v-2c70770e=""><stop stopColor="#91EBFF" data-v-2c70770e=""></stop><stop offset="1" stopColor="#8497FF" data-v-2c70770e=""></stop></linearGradient><linearGradient id="paint3_linear" x1="3.9" y1="303.9" x2="8.1" y2="308.1" gradientUnits="userSpaceOnUse" data-v-2c70770e=""><stop stopColor="#91EBFF" data-v-2c70770e=""></stop><stop offset="1" stopColor="#8497FF" data-v-2c70770e=""></stop></linearGradient><linearGradient id="paint4_linear" x1="3.9" y1="201.9" x2="8.1" y2="206.1" gradientUnits="userSpaceOnUse" data-v-2c70770e=""><stop stopColor="#91EBFF" data-v-2c70770e=""></stop><stop offset="1" stopColor="#8497FF" data-v-2c70770e=""></stop></linearGradient><linearGradient id="paint5_linear" x1="3.9" y1="100.9" x2="8.1" y2="105.1" gradientUnits="userSpaceOnUse" data-v-2c70770e=""><stop stopColor="#91EBFF" data-v-2c70770e=""></stop><stop offset="1" stopColor="#8497FF" data-v-2c70770e=""></stop></linearGradient><linearGradient id="paint0_linear" x1="536.744" y1="406.491" x2="536.744" y2="914.604" gradientUnits="userSpaceOnUse" data-v-dff380fe=""><stop stopColor="#91EBFF" data-v-dff380fe=""></stop><stop offset="1" stopColor="#8497FF" data-v-dff380fe=""></stop></linearGradient><linearGradient id="paint1_linear" x1="536.298" y1="0.000150546" x2="536.298" y2="711.359" gradientUnits="userSpaceOnUse" data-v-dff380fe=""><stop stopColor="#91EBFF" data-v-dff380fe=""></stop><stop offset="1" stopColor="#8497FF" data-v-dff380fe=""></stop></linearGradient><linearGradient id="paint2_linear" x1="536.744" y1="711.359" x2="536.744" y2="1321.09" gradientUnits="userSpaceOnUse" data-v-dff380fe=""><stop stopColor="#91EBFF" data-v-dff380fe=""></stop><stop offset="1" stopColor="#8497FF" data-v-dff380fe=""></stop></linearGradient><linearGradient id="paint3_linear" x1="750.686" y1="1016.23" x2="750.686" y2="1117.85" gradientUnits="userSpaceOnUse" data-v-dff380fe=""><stop stopColor="#91EBFF" data-v-dff380fe=""></stop><stop offset="1" stopColor="#8497FF" data-v-dff380fe=""></stop></linearGradient><linearGradient id="paint4_linear" x1="213.1" y1="809.84" x2="220.1" y2="816.84" gradientUnits="userSpaceOnUse" data-v-dff380fe=""><stop stopColor="#91EBFF" data-v-dff380fe=""></stop><stop offset="1" stopColor="#8497FF" data-v-dff380fe=""></stop></linearGradient><linearGradient id="paint5_linear" x1="212.1" y1="605.58" x2="219.185" y2="612.579" gradientUnits="userSpaceOnUse" data-v-dff380fe=""><stop stopColor="#91EBFF" data-v-dff380fe=""></stop><stop offset="1" stopColor="#8497FF" data-v-dff380fe=""></stop></linearGradient></defs></svg>