<svg xmlns:xlink="http://www.w3.org/1999/xlink" width="19" height="20" viewBox="0 0 19 20" fill="none" xmlns="http://www.w3.org/2000/svg" class="mr-6 inline-block" data-v-fca59e02=""><path d="M11.6833 4.26343L5.18359 7.80875M8.99976 12.4999L5.18359 10.1911" stroke="#090422" strokeWidth="2px" data-v-fca59e02="" fill="none"></path><path d="M16 3C16 4.10457 15.1046 5 14 5C12.8954 5 12 4.10457 12 3C12 1.89543 12.8954 1 14 1C15.1046 1 16 1.89543 16 3ZM5 9C5 10.1046 4.10457 11 3 11C1.89543 11 1 10.1046 1 9C1 7.89543 1.89543 7 3 7C4.10457 7 5 7.89543 5 9Z" stroke="#090422" strokeWidth="2px" data-v-fca59e02="" fill="none"></path><path d="M15.4369 14.1514L16.3508 14.2362L15.6613 14.8419C15.3038 15.1559 15.1464 15.6402 15.2511 16.1044L16.2266 15.8845L15.2511 16.1044L15.4528 16.9997L14.6637 16.5311C14.2546 16.2882 13.7454 16.2882 13.3363 16.5311L12.5472 16.9997L12.7489 16.1044C12.8536 15.6402 12.6962 15.1559 12.3387 14.8419L11.6492 14.2362L12.5631 14.1514C13.0369 14.1075 13.4488 13.8082 13.637 13.3712L14 12.5283L14.363 13.3712C14.5512 13.8082 14.9631 14.1075 15.4369 14.1514Z" fill="#090422" stroke="#090422" strokeWidth="2px" stroke-linecap="round" stroke-linejoin="round" data-v-fca59e02=""></path></svg>