<svg xmlns:xlink="http://www.w3.org/1999/xlink" width="24" height="24" viewBox="0 0 24 24" fill="none" xmlns="http://www.w3.org/2000/svg"><path d="M12.1013 0C5.536 0 0 5.27467 0 11.792C0 12 0.00533335 24 0.00533335 24L12.1013 23.9893C18.6773 23.9893 24 18.5067 24 11.9947C24 5.48267 18.6773 0 12.1013 0ZM12 18.8587C10.96 18.8587 9.968 18.6293 9.088 18.208L4.74133 19.2853L5.968 15.2693C5.44533 14.2987 5.14133 13.184 5.14133 12C5.14133 8.21333 8.21333 5.14133 12 5.14133C15.7867 5.14133 18.8587 8.21333 18.8587 12C18.8587 15.7867 15.7867 18.8587 12 18.8587Z" fill="#465968"></path></svg>