<svg xmlns:xlink="http://www.w3.org/1999/xlink" width="14" height="21" viewBox="0 0 14 21" fill="none" xmlns="http://www.w3.org/2000/svg" class="mr-6 inline-block" data-v-fca59e02=""><path fill-rule="evenodd" clip-rule="evenodd" d="M12.3988 10.0977L7.04102 7.4043V12.8635L12.3988 10.0977Z" fill="#090422" data-v-fca59e02=""></path><path fill-rule="evenodd" clip-rule="evenodd" d="M0.390263 20.93C0.4037 20.9214 6.36376 18.0194 6.36987 18.0157C6.45049 17.9666 6.49203 17.9531 6.49936 17.8096C6.49936 17.7948 6.49936 6.51074 6.49936 6.51074C3.97436 7.7783 0.419578 9.56 0.112963 9.72443C0.0152367 9.77842 0.000587303 9.82505 0.000587303 9.89622V20.6379C-0.004299 20.8809 0.0127959 21.1202 0.390263 20.93Z" fill="#090422" data-v-fca59e02=""></path><path fill-rule="evenodd" clip-rule="evenodd" d="M13.0017 3.38435V9.78841C13.0017 9.78841 0.861717 3.68867 0.440274 3.47025C0.160534 3.32177 0.160534 3.18312 0.440274 3.02482C0.698026 2.88003 5.62465 0.412401 6.37958 0.0332374C6.41156 0.0130782 6.44822 0.00167855 6.48594 0.00017163C6.52365 -0.00133529 6.56112 0.00710215 6.59458 0.024647L12.8796 3.1868C12.919 3.20133 12.9524 3.22867 12.9745 3.26446C12.9966 3.30026 13.0062 3.34246 13.0017 3.38435Z" fill="#090422" data-v-fca59e02=""></path></svg>