<svg xmlns:xlink="http://www.w3.org/1999/xlink" width="22" height="19" viewBox="0 0 22 19" fill="none" xmlns="http://www.w3.org/2000/svg" class="mr-5 inline-block" data-v-03a6c5a2=""><path d="M11 2.64598C12.765 1.59914 14.8143 1 17 1C18.4025 1 19.7489 1.2467 21 1.70009V16.0541C19.7489 15.6007 18.4025 15.354 17 15.354C14.8143 15.354 12.765 15.9532 11 17M11 2.64598V17M11 2.64598C9.23496 1.59914 7.18572 1 5 1C3.59746 1 2.25112 1.2467 1 1.70009V16.0541C2.25112 15.6007 3.59746 15.354 5 15.354C7.18572 15.354 9.23496 15.9532 11 17" stroke="#090422" strokeWidth="2px" data-v-03a6c5a2="" fill="none"></path><path d="M13.265 6.46424C15.4212 5.87169 16.6005 5.75943 18.8981 5.99478L19.1019 4.00519C16.5523 3.74403 15.1244 3.87913 12.735 4.53573L13.265 6.46424ZM13.2728 9.96207C15.4846 9.33499 16.6734 9.23161 18.8825 9.49306L19.1175 7.50692C16.634 7.21299 15.18 7.34251 12.7272 8.03791L13.2728 9.96207Z" fill="#090422" data-v-03a6c5a2=""></path><path d="M8.73502 6.46424C6.57876 5.87169 5.39953 5.75943 3.1019 5.99478L2.8981 4.00519C5.44772 3.74403 6.87563 3.87913 9.26498 4.53573L8.73502 6.46424ZM12.7272 11.5379C15.18 10.8425 16.634 10.713 19.1175 11.0069L18.8825 12.9931C16.6734 12.7316 15.4846 12.835 13.2728 13.4621L12.7272 11.5379ZM8.72724 9.96207C6.51544 9.33499 5.32659 9.23161 3.11753 9.49306L2.88247 7.50692C5.366 7.21299 6.82002 7.34251 9.27277 8.03791L8.72724 9.96207ZM8.72723 13.4621C6.51543 12.835 5.32659 12.7316 3.11753 12.9931L2.88247 11.0069C5.36599 10.713 6.82002 10.8425 9.27277 11.5379L8.72723 13.4621Z" fill="#090422" data-v-03a6c5a2=""></path></svg>