<svg xmlns:xlink="http://www.w3.org/1999/xlink" width="22" height="22" viewBox="0 0 22 22" fill="none" xmlns="http://www.w3.org/2000/svg" class="mr-4 inline-block" data-v-03a6c5a2=""><path d="M7 2L1.06838 3.97721C1.02754 3.99082 1 4.02903 1 4.07208V18.8613C1 18.9295 1.06687 18.9777 1.13162 18.9561L7 17V2ZM7 2L13 4M13 4L18.8684 2.04387C18.9331 2.02229 19 2.07049 19 2.13874V9M13 4V7" stroke="#090422" strokeWidth="2px" data-v-03a6c5a2="" fill="none"></path><path d="M16.8853 16.8853L21 21M18.0667 14.0333C18.0667 16.2609 16.2609 18.0667 14.0333 18.0667C11.8058 18.0667 10 16.2609 10 14.0333C10 11.8058 11.8058 10 14.0333 10C16.2609 10 18.0667 11.8058 18.0667 14.0333Z" stroke="#090422" strokeWidth="2px" data-v-03a6c5a2="" fill="none"></path></svg>