<svg xmlns:xlink="http://www.w3.org/1999/xlink" width="25" height="24" viewBox="0 0 25 24" fill="none" xmlns="http://www.w3.org/2000/svg"><path d="M5.05863 15.1719C5.05863 16.5668 3.93203 17.6942 2.53811 17.6942C1.14418 17.6942 0.0175781 16.5668 0.0175781 15.1719C0.0175781 13.777 1.14418 12.6496 2.53811 12.6496H5.05863V15.1719Z" fill="#465968"></path><path d="M6.31836 15.1719C6.31836 13.777 7.44496 12.6496 8.83888 12.6496C10.2328 12.6496 11.3594 13.777 11.3594 15.1719V21.4776C11.3594 22.8725 10.2328 23.9999 8.83888 23.9999C7.44496 23.9999 6.31836 22.8725 6.31836 21.4776V15.1719Z" fill="#465968"></path><path d="M8.84084 5.04457C7.44691 5.04457 6.32031 3.91718 6.32031 2.52228C6.32031 1.12738 7.44691 0 8.84084 0C10.2348 0 11.3614 1.12738 11.3614 2.52228V5.04457H8.84084Z" fill="#465968"></path><path d="M8.84094 6.32471C10.2349 6.32471 11.3615 7.45209 11.3615 8.84699C11.3615 10.2419 10.2349 11.3693 8.84094 11.3693H2.52053C1.1266 11.3693 0 10.2419 0 8.84699C0 7.45209 1.1266 6.32471 2.52053 6.32471H8.84094Z" fill="#465968"></path><path d="M18.9395 8.84699C18.9395 7.45209 20.0661 6.32471 21.46 6.32471C22.8539 6.32471 23.9805 7.45209 23.9805 8.84699C23.9805 10.2419 22.8539 11.3693 21.46 11.3693H18.9395V8.84699Z" fill="#465968"></path><path d="M17.6797 8.8471C17.6797 10.242 16.5531 11.3694 15.1592 11.3694C13.7653 11.3694 12.6387 10.242 12.6387 8.8471V2.52228C12.6387 1.12738 13.7653 0 15.1592 0C16.5531 0 17.6797 1.12738 17.6797 2.52228V8.8471Z" fill="#465968"></path><path d="M15.1592 18.9554C16.5531 18.9554 17.6797 20.0828 17.6797 21.4777C17.6797 22.8726 16.5531 24 15.1592 24C13.7653 24 12.6387 22.8726 12.6387 21.4777V18.9554H15.1592Z" fill="#465968"></path><path d="M15.1592 17.6942C13.7653 17.6942 12.6387 16.5668 12.6387 15.1719C12.6387 13.777 13.7653 12.6496 15.1592 12.6496H21.4796C22.8735 12.6496 24.0001 13.777 24.0001 15.1719C24.0001 16.5668 22.8735 17.6942 21.4796 17.6942H15.1592Z" fill="#465968"></path></svg>