<svg xmlns:xlink="http://www.w3.org/1999/xlink" width="83" height="83" viewBox="0 0 83 83" fill="none" xmlns="http://www.w3.org/2000/svg" class="mr-16 ml-28" data-v-70ebf7ad=""><path d="M41.8504 0C19.1453 0 0 18.2416 0 40.7807C0 41.5 0.0184445 83 0.0184445 83L41.8504 82.9631C64.5924 82.9631 83 64.0022 83 41.4816C83 18.9609 64.5924 0 41.8504 0ZM41.5 65.2196C37.9033 65.2196 34.4727 64.4264 31.4293 62.9693L16.3971 66.6951L20.6393 52.8064C18.8318 49.4496 17.7804 45.5947 17.7804 41.5C17.7804 28.4044 28.4044 17.7804 41.5 17.7804C54.5956 17.7804 65.2196 28.4044 65.2196 41.5C65.2196 54.5956 54.5956 65.2196 41.5 65.2196Z" data-v-70ebf7ad="" fill="#090422"></path></svg>