<svg xmlns:xlink="http://www.w3.org/1999/xlink" width="42" height="42" viewBox="0 0 42 42" fill="none" xmlns="http://www.w3.org/2000/svg" class="logo" data-v-7d1a774c=""><path d="M21.1773 0C9.688 0 0 9.23067 0 20.636C0 21 0.00933337 42 0.00933337 42L21.1773 41.9813C32.6853 41.9813 42 32.3867 42 20.9907C42 9.59467 32.6853 0 21.1773 0ZM21 33.0027C19.18 33.0027 17.444 32.6013 15.904 31.864L8.29733 33.7493L10.444 26.7213C9.52933 25.0227 8.99733 23.072 8.99733 21C8.99733 14.3733 14.3733 8.99733 21 8.99733C27.6267 8.99733 33.0027 14.3733 33.0027 21C33.0027 27.6267 27.6267 33.0027 21 33.0027Z" fill="#024DFD" fill-opacity="0.8" data-v-7d1a774c=""></path></svg>