<svg xmlns:xlink="http://www.w3.org/1999/xlink" width="22" height="25" viewBox="0 0 22 25" fill="none" xmlns="http://www.w3.org/2000/svg" class="mr-6 inline-block" data-v-7d1a774c=""><path d="M4 11.5C8.87684 6.45812 12.29 4.77791 20 4.5M4 11.5C2.79646 11.1974 2.11669 10.5573 1.47441 9.68464C1.18839 9.29603 1.25102 8.75541 1.60209 8.42438C7.51823 2.8459 11.5252 1.42903 19.2703 1.03384C19.7045 1.01168 20.1133 1.27404 20.2225 1.69483C20.4429 2.54449 20.3989 3.27009 20 4.5M4 11.5L17.9096 23.1661C18.5514 23.7044 19.5309 23.2623 19.5519 22.4249L20 4.5" stroke="#090422" strokeWidth="2px" data-v-7d1a774c="" fill="none"></path><circle cx="11.5" cy="12.5" r="1.5" stroke="#090422" strokeWidth="2px" data-v-7d1a774c="" fill="none"></circle><circle cx="15.5" cy="7" r="1.5" stroke="#090422" strokeWidth="2px" data-v-7d1a774c="" fill="none"></circle><circle cx="17.5" cy="16.5" r="1.5" stroke="#090422" strokeWidth="2px" data-v-7d1a774c="" fill="none"></circle></svg>