<svg xmlns:xlink="http://www.w3.org/1999/xlink" width="24" height="24" viewBox="0 0 24 24" fill="none" xmlns="http://www.w3.org/2000/svg" class="mr-6 inline-block" data-v-7d1a774c=""><path d="M12.0004 24C10.3853 23.998 8.78725 23.6703 7.30166 23.0366C5.81607 22.4029 4.47346 21.4762 3.35408 20.3118C2.2347 19.1474 1.36152 17.7693 0.786719 16.2598C0.211921 14.7503 -0.0526988 13.1404 0.0086807 11.5263C0.135889 8.50954 1.39141 5.65062 3.52651 3.51589C5.66162 1.38116 8.52055 0.126332 11.537 4.73034e-08L12.0004 4.73034e-08C14.1297 -0.000189009 16.2207 0.566321 18.0587 1.64138C19.8967 2.71644 21.4156 4.26131 22.4594 6.11742C23.5032 7.97353 24.0343 10.074 23.9983 12.2032C23.9622 14.3325 23.3603 16.4138 22.2542 18.2335L22.2065 18.3187H11.4722V16.6998C11.4722 14.7878 12.2389 13.9222 14.2938 13.5064L15.4899 13.261C16.6247 13.0361 16.7439 12.7941 16.7439 12.2931C16.7439 11.6592 16.5156 11.3763 15.1696 11.3763H11.0803V13.0804H9.18904V11.3763H4.07748V9.78131L8.93347 4.5294H11.0837V9.67907H15.2479C17.7765 9.67907 18.6727 10.3607 18.6727 12.3135C18.6727 13.9324 18.0525 14.5254 15.9124 14.9583L14.6891 15.2002C13.5577 15.4286 13.3771 15.7217 13.3771 16.5464H21.2728C22.0459 14.9723 22.4052 13.227 22.3166 11.4754C22.228 9.72384 21.6946 8.02373 20.7666 6.53559C19.8387 5.04745 18.5468 3.82039 17.013 2.97025C15.4792 2.12012 13.754 1.67496 12.0004 1.6768H11.5915C9.00221 1.79284 6.55034 2.87476 4.71919 4.70929C2.88805 6.54381 1.81048 8.99784 1.69891 11.5876C1.64437 12.9756 1.8703 14.3604 2.36319 15.659C2.85607 16.9577 3.60578 18.1436 4.56748 19.1458C5.52918 20.1481 6.68311 20.946 7.96024 21.4919C9.23738 22.0379 10.6115 22.3206 12.0004 22.3232C14.1835 22.3186 16.3096 21.6257 18.0763 20.3431C18.2195 20.2379 18.3928 20.1817 18.5705 20.1829C18.7473 20.1833 18.9195 20.2397 19.0623 20.3439C19.2052 20.4482 19.3115 20.5949 19.3659 20.7632C19.4204 20.9314 19.4202 21.1126 19.3655 21.2808C19.3107 21.449 19.2042 21.5955 19.0612 21.6995C17.0075 23.1888 14.5371 23.9936 12.0004 24ZM9.17882 9.68588V6.69696L6.44584 9.67907L9.17882 9.68588Z" fill="#090422" data-v-7d1a774c=""></path></svg>