<svg xmlns:xlink="http://www.w3.org/1999/xlink" id="constellationMotif" width="1078" height="1526" viewBox="0 0 1078 1526" fill="none" xmlns="http://www.w3.org/2000/svg" class="constellation" data-v-dff380fe="" data-v-70ebf7ad=""><path d="M1071.6 406.491L857.657 508.113M1071.6 507.222L857.657 609.736M1071.6 812.981L857.657 914.604L857.657 508.113M857.657 812.981L1071.6 711.359M857.657 711.359L1071.6 609.736M857.657 508.113L1.88778 914.604L1.88784 1219.47L215.83 1117.85L215.83 1219.47M215.83 1321.09L215.83 1219.47M215.83 1321.09L1.88787 1422.72M215.83 1321.09L215.83 1422.72L1.88789 1524.34M215.83 1219.47L1.88786 1321.09" stroke="url(&quot;#paint0_linear&quot;)" stroke-opacity="0.3" stroke-width="2px" class="kBcQCkrp_0" data-v-dff380fe="" fill="none"></path><path d="M0.996218 711.359L215.83 609.398M1071.6 203.245L857.657 304.783M857.657 9.43573e-05L857.657 304.783M857.657 304.783L215.83 609.398M215.83 508.029L643.715 304.783L643.715 0.000131764M429.772 304.784L215.83 406.322L215.83 609.398" stroke="url(&quot;#paint1_linear&quot;)" stroke-opacity="0.4" stroke-width="2px" class="kBcQCkrp_1" data-v-dff380fe="" fill="none"></path><path d="M215.83 812.981L215.83 914.604M215.83 914.604L643.715 711.359L643.715 1219.47M215.83 914.604L215.83 1016.23L429.773 914.604L429.773 1524.34L643.715 1422.72M857.657 1219.47L643.715 1321.09L643.715 1219.47M857.657 1117.85L643.715 1219.47" stroke="url(&quot;#paint2_linear&quot;)" stroke-opacity="0.2" stroke-width="2px" class="kBcQCkrp_2" data-v-dff380fe="" fill="none"></path><path d="M857.657 1016.23L643.715 1117.85" stroke="url(&quot;#paint3_linear&quot;)" stroke-opacity="0.2" stroke-width="2px" class="kBcQCkrp_3" data-v-dff380fe="" fill="none"></path><path transform="rotate(180 216.6 813.34)" fill="#FFFFFF" fill-opacity="0.2" d="M206.6,813.34A10,10 0,1,1 226.6,813.34A10,10 0,1,1 206.6,813.34" class="kBcQCkrp_4" data-v-dff380fe=""></path><path transform="rotate(180 216.6 813.34)" fill="url(&quot;#paint4_linear&quot;)" d="M211.6,813.34A5,5 0,1,1 221.6,813.34A5,5 0,1,1 211.6,813.34" class="kBcQCkrp_5" data-v-dff380fe=""></path><path transform="rotate(180 215.6 609.122)" fill="#FFFFFF" fill-opacity="0.2" d="M205.6,609.122A10,10.1223 0,1,1 225.6,609.122A10,10.1223 0,1,1 205.6,609.122" class="kBcQCkrp_6" data-v-dff380fe=""></path><path transform="rotate(180 215.6 609.123)" fill="url(&quot;#paint5_linear&quot;)" d="M210.6,609.123A5,5.06104 0,1,1 220.6,609.123A5,5.06104 0,1,1 210.6,609.123" class="kBcQCkrp_7" data-v-dff380fe=""></path><path transform="rotate(180 1071.6 813.34)" fill="#FFFFFF" fill-opacity="0.2" d="M1065.6,813.34A6,6 0,1,1 1077.6,813.34A6,6 0,1,1 1065.6,813.34" class="kBcQCkrp_8" data-v-dff380fe=""></path><path transform="rotate(180 1071.6 813.34)" fill="url(&quot;#paint6_linear&quot;)" d="M1068.6,813.34A3,3 0,1,1 1074.6,813.34A3,3 0,1,1 1068.6,813.34" class="kBcQCkrp_9" data-v-dff380fe=""></path><path transform="rotate(180 1071.6 711.34)" fill="#FFFFFF" fill-opacity="0.2" d="M1065.6,711.34A6,6 0,1,1 1077.6,711.34A6,6 0,1,1 1065.6,711.34" class="kBcQCkrp_10" data-v-dff380fe=""></path><path transform="rotate(180 1071.6 711.34)" fill="url(&quot;#paint7_linear&quot;)" d="M1068.6,711.34A3,3 0,1,1 1074.6,711.34A3,3 0,1,1 1068.6,711.34" class="kBcQCkrp_11" data-v-dff380fe=""></path><path transform="rotate(180 857.599 1016.34)" fill="#FFFFFF" fill-opacity="0.2" d="M851.599,1016.34A6,6 0,1,1 863.599,1016.34A6,6 0,1,1 851.599,1016.34" class="kBcQCkrp_12" data-v-dff380fe=""></path><path transform="rotate(180 857.599 1016.34)" fill="url(&quot;#paint8_linear&quot;)" d="M854.599,1016.34A3,3 0,1,1 860.599,1016.34A3,3 0,1,1 854.599,1016.34" class="kBcQCkrp_13" data-v-dff380fe=""></path><path transform="rotate(180 430 305)" fill="#FFFFFF" fill-opacity="0.2" d="M424,305A6,6 0,1,1 436,305A6,6 0,1,1 424,305" class="kBcQCkrp_14" data-v-dff380fe=""></path><path transform="rotate(180 430 305)" fill="url(&quot;#paint9_linear&quot;)" d="M427,305A3,3 0,1,1 433,305A3,3 0,1,1 427,305" class="kBcQCkrp_15" data-v-dff380fe=""></path><path transform="rotate(180 857.599 1118.34)" fill="#FFFFFF" fill-opacity="0.2" d="M851.599,1118.34A6,6 0,1,1 863.599,1118.34A6,6 0,1,1 851.599,1118.34" class="kBcQCkrp_16" data-v-dff380fe=""></path><path transform="rotate(180 857.599 1118.34)" fill="url(&quot;#paint10_linear&quot;)" d="M854.599,1118.34A3,3 0,1,1 860.599,1118.34A3,3 0,1,1 854.599,1118.34" class="kBcQCkrp_17" data-v-dff380fe=""></path><path transform="rotate(180 857.599 1219.34)" fill="#FFFFFF" fill-opacity="0.2" d="M851.599,1219.34A6,6 0,1,1 863.599,1219.34A6,6 0,1,1 851.599,1219.34" class="kBcQCkrp_18" data-v-dff380fe=""></path><path transform="rotate(180 857.599 1219.34)" fill="url(&quot;#paint11_linear&quot;)" d="M854.599,1219.34A3,3 0,1,1 860.599,1219.34A3,3 0,1,1 854.599,1219.34" class="kBcQCkrp_19" data-v-dff380fe=""></path><path transform="rotate(180 1071.6 609.34)" fill="#FFFFFF" fill-opacity="0.2" d="M1065.6,609.34A6,6 0,1,1 1077.6,609.34A6,6 0,1,1 1065.6,609.34" class="kBcQCkrp_20" data-v-dff380fe=""></path><path transform="rotate(180 1071.6 609.34)" fill="url(&quot;#paint12_linear&quot;)" d="M1068.6,609.34A3,3 0,1,1 1074.6,609.34A3,3 0,1,1 1068.6,609.34" class="kBcQCkrp_21" data-v-dff380fe=""></path><path transform="rotate(180 1071.6 507.34)" fill="#FFFFFF" fill-opacity="0.2" d="M1065.6,507.34A6,6 0,1,1 1077.6,507.34A6,6 0,1,1 1065.6,507.34" class="kBcQCkrp_22" data-v-dff380fe=""></path><path transform="rotate(180 1071.6 507.34)" fill="url(&quot;#paint13_linear&quot;)" d="M1068.6,507.34A3,3 0,1,1 1074.6,507.34A3,3 0,1,1 1068.6,507.34" class="kBcQCkrp_23" data-v-dff380fe=""></path><path transform="rotate(180 1071.6 406)" fill="#FFFFFF" fill-opacity="0.2" d="M1065.6,406A6,6 0,1,1 1077.6,406A6,6 0,1,1 1065.6,406" class="kBcQCkrp_24" data-v-dff380fe=""></path><path transform="rotate(180 1071.6 406)" fill="url(&quot;#paint14_linear&quot;)" d="M1068.6,406A3,3 0,1,1 1074.6,406A3,3 0,1,1 1068.6,406" class="kBcQCkrp_25" data-v-dff380fe=""></path><path transform="rotate(180 1071.6 203)" fill="#FFFFFF" fill-opacity="0.2" d="M1065.6,203A6,6 0,1,1 1077.6,203A6,6 0,1,1 1065.6,203" class="kBcQCkrp_26" data-v-dff380fe=""></path><path transform="rotate(180 1071.6 203)" fill="url(&quot;#paint15_linear&quot;)" d="M1068.6,203A3,3 0,1,1 1074.6,203A3,3 0,1,1 1068.6,203" class="kBcQCkrp_27" data-v-dff380fe=""></path><defs data-v-dff380fe=""><linearGradient id="paint0_linear" x1="536.744" y1="406.491" x2="536.744" y2="914.604" gradientUnits="userSpaceOnUse" data-v-dff380fe=""><stop stop-color="#91EBFF" data-v-dff380fe=""></stop><stop offset="1" stop-color="#8497FF" data-v-dff380fe=""></stop></linearGradient><linearGradient id="paint1_linear" x1="536.298" y1="0.000150546" x2="536.298" y2="711.359" gradientUnits="userSpaceOnUse" data-v-dff380fe=""><stop stop-color="#91EBFF" data-v-dff380fe=""></stop><stop offset="1" stop-color="#8497FF" data-v-dff380fe=""></stop></linearGradient><linearGradient id="paint2_linear" x1="536.744" y1="711.359" x2="536.744" y2="1321.09" gradientUnits="userSpaceOnUse" data-v-dff380fe=""><stop stop-color="#91EBFF" data-v-dff380fe=""></stop><stop offset="1" stop-color="#8497FF" data-v-dff380fe=""></stop></linearGradient><linearGradient id="paint3_linear" x1="750.686" y1="1016.23" x2="750.686" y2="1117.85" gradientUnits="userSpaceOnUse" data-v-dff380fe=""><stop stop-color="#91EBFF" data-v-dff380fe=""></stop><stop offset="1" stop-color="#8497FF" data-v-dff380fe=""></stop></linearGradient><linearGradient id="paint4_linear" x1="213.1" y1="809.84" x2="220.1" y2="816.84" gradientUnits="userSpaceOnUse" data-v-dff380fe=""><stop stop-color="#91EBFF" data-v-dff380fe=""></stop><stop offset="1" stop-color="#8497FF" data-v-dff380fe=""></stop></linearGradient><linearGradient id="paint5_linear" x1="212.1" y1="605.58" x2="219.185" y2="612.579" gradientUnits="userSpaceOnUse" data-v-dff380fe=""><stop stop-color="#91EBFF" data-v-dff380fe=""></stop><stop offset="1" stop-color="#8497FF" data-v-dff380fe=""></stop></linearGradient><linearGradient id="paint6_linear" x1="1069.5" y1="811.24" x2="1073.7" y2="815.44" gradientUnits="userSpaceOnUse" data-v-dff380fe=""><stop stop-color="#91EBFF" data-v-dff380fe=""></stop><stop offset="1" stop-color="#8497FF" data-v-dff380fe=""></stop></linearGradient><linearGradient id="paint7_linear" x1="1069.5" y1="709.24" x2="1073.7" y2="713.44" gradientUnits="userSpaceOnUse" data-v-dff380fe=""><stop stop-color="#91EBFF" data-v-dff380fe=""></stop><stop offset="1" stop-color="#8497FF" data-v-dff380fe=""></stop></linearGradient><linearGradient id="paint8_linear" x1="855.499" y1="1014.24" x2="859.699" y2="1018.44" gradientUnits="userSpaceOnUse" data-v-dff380fe=""><stop stop-color="#91EBFF" data-v-dff380fe=""></stop><stop offset="1" stop-color="#8497FF" data-v-dff380fe=""></stop></linearGradient><linearGradient id="paint9_linear" x1="427.9" y1="302.9" x2="432.1" y2="307.1" gradientUnits="userSpaceOnUse" data-v-dff380fe=""><stop stop-color="#91EBFF" data-v-dff380fe=""></stop><stop offset="1" stop-color="#8497FF" data-v-dff380fe=""></stop></linearGradient><linearGradient id="paint10_linear" x1="855.499" y1="1116.24" x2="859.699" y2="1120.44" gradientUnits="userSpaceOnUse" data-v-dff380fe=""><stop stop-color="#91EBFF" data-v-dff380fe=""></stop><stop offset="1" stop-color="#8497FF" data-v-dff380fe=""></stop></linearGradient><linearGradient id="paint11_linear" x1="855.499" y1="1217.24" x2="859.699" y2="1221.44" gradientUnits="userSpaceOnUse" data-v-dff380fe=""><stop stop-color="#91EBFF" data-v-dff380fe=""></stop><stop offset="1" stop-color="#8497FF" data-v-dff380fe=""></stop></linearGradient><linearGradient id="paint12_linear" x1="1069.5" y1="607.24" x2="1073.7" y2="611.44" gradientUnits="userSpaceOnUse" data-v-dff380fe=""><stop stop-color="#91EBFF" data-v-dff380fe=""></stop><stop offset="1" stop-color="#8497FF" data-v-dff380fe=""></stop></linearGradient><linearGradient id="paint13_linear" x1="1069.5" y1="505.24" x2="1073.7" y2="509.44" gradientUnits="userSpaceOnUse" data-v-dff380fe=""><stop stop-color="#91EBFF" data-v-dff380fe=""></stop><stop offset="1" stop-color="#8497FF" data-v-dff380fe=""></stop></linearGradient><linearGradient id="paint14_linear" x1="1069.5" y1="403.9" x2="1073.7" y2="408.1" gradientUnits="userSpaceOnUse" data-v-dff380fe=""><stop stop-color="#91EBFF" data-v-dff380fe=""></stop><stop offset="1" stop-color="#8497FF" data-v-dff380fe=""></stop></linearGradient><linearGradient id="paint15_linear" x1="1069.5" y1="200.9" x2="1073.7" y2="205.1" gradientUnits="userSpaceOnUse" data-v-dff380fe=""><stop stop-color="#91EBFF" data-v-dff380fe=""></stop><stop offset="1" stop-color="#8497FF" data-v-dff380fe=""></stop></linearGradient><linearGradient id="paint0_linear" x1="536.744" y1="406.491" x2="536.744" y2="914.604" gradientUnits="userSpaceOnUse" data-v-dff380fe=""><stop stop-color="#91EBFF" data-v-dff380fe=""></stop><stop offset="1" stop-color="#8497FF" data-v-dff380fe=""></stop></linearGradient><linearGradient id="paint1_linear" x1="536.298" y1="0.000150546" x2="536.298" y2="711.359" gradientUnits="userSpaceOnUse" data-v-dff380fe=""><stop stop-color="#91EBFF" data-v-dff380fe=""></stop><stop offset="1" stop-color="#8497FF" data-v-dff380fe=""></stop></linearGradient><linearGradient id="paint2_linear" x1="536.744" y1="711.359" x2="536.744" y2="1321.09" gradientUnits="userSpaceOnUse" data-v-dff380fe=""><stop stop-color="#91EBFF" data-v-dff380fe=""></stop><stop offset="1" stop-color="#8497FF" data-v-dff380fe=""></stop></linearGradient><linearGradient id="paint3_linear" x1="750.686" y1="1016.23" x2="750.686" y2="1117.85" gradientUnits="userSpaceOnUse" data-v-dff380fe=""><stop stop-color="#91EBFF" data-v-dff380fe=""></stop><stop offset="1" stop-color="#8497FF" data-v-dff380fe=""></stop></linearGradient><linearGradient id="paint4_linear" x1="213.1" y1="809.84" x2="220.1" y2="816.84" gradientUnits="userSpaceOnUse" data-v-dff380fe=""><stop stop-color="#91EBFF" data-v-dff380fe=""></stop><stop offset="1" stop-color="#8497FF" data-v-dff380fe=""></stop></linearGradient><linearGradient id="paint5_linear" x1="212.1" y1="605.58" x2="219.185" y2="612.579" gradientUnits="userSpaceOnUse" data-v-dff380fe=""><stop stop-color="#91EBFF" data-v-dff380fe=""></stop><stop offset="1" stop-color="#8497FF" data-v-dff380fe=""></stop></linearGradient><linearGradient id="paint6_linear" x1="1069.5" y1="811.24" x2="1073.7" y2="815.44" gradientUnits="userSpaceOnUse" data-v-dff380fe=""><stop stop-color="#91EBFF" data-v-dff380fe=""></stop><stop offset="1" stop-color="#8497FF" data-v-dff380fe=""></stop></linearGradient><linearGradient id="paint7_linear" x1="1069.5" y1="709.24" x2="1073.7" y2="713.44" gradientUnits="userSpaceOnUse" data-v-dff380fe=""><stop stop-color="#91EBFF" data-v-dff380fe=""></stop><stop offset="1" stop-color="#8497FF" data-v-dff380fe=""></stop></linearGradient><linearGradient id="paint8_linear" x1="855.499" y1="1014.24" x2="859.699" y2="1018.44" gradientUnits="userSpaceOnUse" data-v-dff380fe=""><stop stop-color="#91EBFF" data-v-dff380fe=""></stop><stop offset="1" stop-color="#8497FF" data-v-dff380fe=""></stop></linearGradient><linearGradient id="paint9_linear" x1="427.9" y1="302.9" x2="432.1" y2="307.1" gradientUnits="userSpaceOnUse" data-v-dff380fe=""><stop stop-color="#91EBFF" data-v-dff380fe=""></stop><stop offset="1" stop-color="#8497FF" data-v-dff380fe=""></stop></linearGradient><linearGradient id="paint10_linear" x1="855.499" y1="1116.24" x2="859.699" y2="1120.44" gradientUnits="userSpaceOnUse" data-v-dff380fe=""><stop stop-color="#91EBFF" data-v-dff380fe=""></stop><stop offset="1" stop-color="#8497FF" data-v-dff380fe=""></stop></linearGradient><linearGradient id="paint11_linear" x1="855.499" y1="1217.24" x2="859.699" y2="1221.44" gradientUnits="userSpaceOnUse" data-v-dff380fe=""><stop stop-color="#91EBFF" data-v-dff380fe=""></stop><stop offset="1" stop-color="#8497FF" data-v-dff380fe=""></stop></linearGradient><linearGradient id="paint12_linear" x1="1069.5" y1="607.24" x2="1073.7" y2="611.44" gradientUnits="userSpaceOnUse" data-v-dff380fe=""><stop stop-color="#91EBFF" data-v-dff380fe=""></stop><stop offset="1" stop-color="#8497FF" data-v-dff380fe=""></stop></linearGradient><linearGradient id="paint13_linear" x1="1069.5" y1="505.24" x2="1073.7" y2="509.44" gradientUnits="userSpaceOnUse" data-v-dff380fe=""><stop stop-color="#91EBFF" data-v-dff380fe=""></stop><stop offset="1" stop-color="#8497FF" data-v-dff380fe=""></stop></linearGradient><linearGradient id="paint14_linear" x1="1069.5" y1="403.9" x2="1073.7" y2="408.1" gradientUnits="userSpaceOnUse" data-v-dff380fe=""><stop stop-color="#91EBFF" data-v-dff380fe=""></stop><stop offset="1" stop-color="#8497FF" data-v-dff380fe=""></stop></linearGradient><linearGradient id="paint15_linear" x1="1069.5" y1="200.9" x2="1073.7" y2="205.1" gradientUnits="userSpaceOnUse" data-v-dff380fe=""><stop stop-color="#91EBFF" data-v-dff380fe=""></stop><stop offset="1" stop-color="#8497FF" data-v-dff380fe=""></stop></linearGradient></defs></svg>