<svg xmlns:xlink="http://www.w3.org/1999/xlink" width="25" height="16" viewBox="0 0 25 16" fill="none" xmlns="http://www.w3.org/2000/svg" class="mr-4 inline-block" data-v-fca59e02=""><path d="M16 5C16 7.20914 14.2091 9 12 9C9.79086 9 8 7.20914 8 5C8 2.79086 9.79086 1 12 1C14.2091 1 16 2.79086 16 5Z" stroke="#090422" strokeWidth="2px" data-v-fca59e02="" fill="none"></path><path d="M22 7C22 8.10457 21.1046 9 20 9C18.8954 9 18 8.10457 18 7C18 5.89543 18.8954 5 20 5C21.1046 5 22 5.89543 22 7Z" stroke="#090422" strokeWidth="2px" data-v-fca59e02="" fill="none"></path><path d="M6 7C6 8.10457 5.10457 9 4 9C2.89543 9 2 8.10457 2 7C2 5.89543 2.89543 5 4 5C5.10457 5 6 5.89543 6 7Z" stroke="#090422" strokeWidth="2px" data-v-fca59e02="" fill="none"></path><path fillRule="evenodd" clipRule="evenodd" d="M17 15.5H19C19 11.634 15.866 8.5 12 8.5C8.13401 8.5 5 11.634 5 15.5H7C7 12.7386 9.23858 10.5 12 10.5C14.7614 10.5 17 12.7386 17 15.5Z" fill="#090422" data-v-fca59e02=""></path><path fillRule="evenodd" clipRule="evenodd" d="M17.6973 10.08L18.9048 11.6745C19.2891 11.3828 19.7684 11.2097 20.2881 11.2097C21.553 11.2097 22.5784 12.2351 22.5784 13.5H24.5784C24.5784 11.1306 22.6576 9.20972 20.2881 9.20972C19.3148 9.20972 18.4171 9.53383 17.6973 10.08Z" fill="#090422" data-v-fca59e02=""></path><path fillRule="evenodd" clipRule="evenodd" d="M0 13.5L2 13.5C2.00002 12.2351 3.02542 11.2097 4.29032 11.2097C4.60866 11.2097 4.91183 11.2747 5.18731 11.392L6.46174 9.799C5.82479 9.42449 5.08264 9.20972 4.29032 9.20972C1.92085 9.20972 5.11852e-06 11.1306 0 13.5Z" fill="#090422" data-v-fca59e02=""></path></svg>