<svg xmlns:xlink="http://www.w3.org/1999/xlink" width="22" height="23" viewBox="0 0 22 23" fill="none" xmlns="http://www.w3.org/2000/svg" class="mr-6 inline-block" data-v-7d1a774c=""><path d="M15 6.5C15 9.53757 12.5376 12 9.5 12C6.46243 12 4 9.53757 4 6.5C4 3.46243 6.46243 1 9.5 1C12.5376 1 15 3.46243 15 6.5Z" stroke="#090422" stroke-width="2px" data-v-7d1a774c="" fill="none"></path><path fill-rule="evenodd" clip-rule="evenodd" d="M15.4055 13.0903C15.0611 12.8145 14.696 12.5622 14.3131 12.3357C12.8788 11.4874 11.1906 11 9.38882 11C4.24877 11 0 14.9852 0 20C0 20.3383 0.0193385 20.672 0.0569846 21H2.07534C2.02567 20.6729 2 20.339 2 20C2 16.1782 5.26283 13 9.38882 13C10.827 13 12.1643 13.3884 13.2949 14.0571C13.4333 14.1389 13.5685 14.2249 13.7004 14.3149L15.2665 13.3239C15.3481 13.2723 15.3992 13.1851 15.4055 13.0903Z" fill="#090422" data-v-7d1a774c=""></path><g clip-path="url(#clip0_3224_2840)" data-v-7d1a774c="" fill="none"><path fill-rule="evenodd" clip-rule="evenodd" d="M21.7228 17.8089L19.25 16.5264V19.126L21.7228 17.8089Z" fill="#090422" data-v-7d1a774c=""></path><path fill-rule="evenodd" clip-rule="evenodd" d="M16.1801 22.9673C16.1863 22.9632 18.9371 21.5813 18.9399 21.5795C18.9771 21.5561 18.9963 21.5497 18.9997 21.4813C18.9997 21.4743 18.9997 16.101 18.9997 16.101C17.8343 16.7046 16.1937 17.553 16.0521 17.6313C16.007 17.657 16.0003 17.6792 16.0003 17.7131V22.8282C15.998 22.9439 16.0059 23.0578 16.1801 22.9673Z" fill="#090422" data-v-7d1a774c=""></path><path fill-rule="evenodd" clip-rule="evenodd" d="M22.0019 14.6122V17.6618C22.0019 17.6618 16.3988 14.7571 16.2043 14.6531C16.0751 14.5824 16.0751 14.5164 16.2043 14.441C16.3232 14.3721 18.597 13.197 18.9455 13.0164C18.9602 13.0068 18.9772 13.0014 18.9946 13.0007C19.012 13 19.0293 13.004 19.0447 13.0123L21.9455 14.5181C21.9636 14.5251 21.9791 14.5381 21.9893 14.5551C21.9995 14.5722 22.0039 14.5923 22.0019 14.6122Z" fill="#090422" data-v-7d1a774c=""></path></g><defs data-v-7d1a774c=""><clipPath id="clip0_3224_2840" data-v-7d1a774c=""><rect width="6" height="10" fill="white" transform="translate(16 13)" data-v-7d1a774c=""></rect></clipPath></defs></svg>