<svg xmlns:xlink="http://www.w3.org/1999/xlink" width="43" height="42" viewBox="0 0 43 42" fill="none" xmlns="http://www.w3.org/2000/svg" class="logo" data-v-7d1a774c=""><path d="M8.85223 26.5508C8.85223 28.9919 6.88087 30.9648 4.44174 30.9648C2.00261 30.9648 0.03125 28.9919 0.03125 26.5508C0.03125 24.1098 2.00261 22.1368 4.44174 22.1368H8.85223V26.5508Z" fill="#024DFD" data-v-7d1a774c=""></path><path d="M11.0586 26.5508C11.0586 24.1098 13.0299 22.1368 15.4691 22.1368C17.9082 22.1368 19.8796 24.1098 19.8796 26.5508V37.5858C19.8796 40.0269 17.9082 41.9998 15.4691 41.9998C13.0299 41.9998 11.0586 40.0269 11.0586 37.5858V26.5508Z" fill="#024DFD" data-v-7d1a774c=""></path><path d="M15.4691 8.82797C13.0299 8.82797 11.0586 6.85505 11.0586 4.41399C11.0586 1.97292 13.0299 0 15.4691 0C17.9082 0 19.8796 1.97292 19.8796 4.41399V8.82797H15.4691Z" fill="#024DFD" data-v-7d1a774c=""></path><path d="M15.4701 11.0684C17.9093 11.0684 19.8806 13.0413 19.8806 15.4823C19.8806 17.9234 17.9093 19.8963 15.4701 19.8963H4.41049C1.97135 19.8963 0 17.9234 0 15.4823C0 13.0413 1.97135 11.0684 4.41049 11.0684H15.4701Z" fill="#024DFD" data-v-7d1a774c=""></path><path d="M33.1484 15.4823C33.1484 13.0413 35.1198 11.0684 37.5589 11.0684C39.9981 11.0684 41.9694 13.0413 41.9694 15.4823C41.9694 17.9234 39.9981 19.8963 37.5589 19.8963H33.1484V15.4823Z" fill="#024DFD" data-v-7d1a774c=""></path><path d="M30.9421 15.4824C30.9421 17.9235 28.9707 19.8964 26.5316 19.8964C24.0925 19.8964 22.1211 17.9235 22.1211 15.4824V4.41399C22.1211 1.97292 24.0925 0 26.5316 0C28.9707 0 30.9421 1.97292 30.9421 4.41399V15.4824Z" fill="#024DFD" data-v-7d1a774c=""></path><path d="M26.5316 33.172C28.9707 33.172 30.9421 35.1449 30.9421 37.586C30.9421 40.027 28.9707 42 26.5316 42C24.0925 42 22.1211 40.027 22.1211 37.586V33.172H26.5316Z" fill="#024DFD" data-v-7d1a774c=""></path><path d="M26.5316 30.9648C24.0925 30.9648 22.1211 28.9919 22.1211 26.5508C22.1211 24.1098 24.0925 22.1368 26.5316 22.1368H37.5912C40.0303 22.1368 42.0017 24.1098 42.0017 26.5508C42.0017 28.9919 40.0303 30.9648 37.5912 30.9648H26.5316Z" fill="#024DFD" data-v-7d1a774c=""></path></svg>