<svg xmlns:xlink="http://www.w3.org/1999/xlink" width="24" height="23" viewBox="0 0 24 23" fill="none" xmlns="http://www.w3.org/2000/svg" class="mr-6 inline-block" data-v-7d1a774c=""><path fill-rule="evenodd" clip-rule="evenodd" d="M2 3C2 2.44772 2.44772 2 3 2H19C19.5523 2 20 2.44772 20 3V11.6442L20.6334 13.1149C20.6768 13.2158 20.7718 13.2848 20.8812 13.295L22 13.3987V3C22 1.34315 20.6569 0 19 0H3C1.34315 0 0 1.34315 0 3V14C0 15.6569 1.34315 17 3 17H5.52252L5.00685 21.3832C4.95575 21.8175 5.19285 22.2347 5.5922 22.4131C5.99155 22.5914 6.46047 22.4896 6.74984 22.1616L11.3042 17H12.007L10.1086 15.3322C10.1067 15.3343 10.1049 15.3363 10.1031 15.3384L7.36698 18.4393L7.64021 16.1168C7.67358 15.8332 7.5841 15.5489 7.39433 15.3355C7.20457 15.1221 6.93263 15 6.64706 15H3C2.44772 15 2 14.5523 2 14V3Z" fill="#090422" data-v-7d1a774c=""></path><path d="M17.3666 14.999L18 13.5283L18.6334 14.999C18.8216 15.4361 19.2335 15.7353 19.7073 15.7793L21.3018 15.9272L20.0988 16.984C19.7413 17.2981 19.5839 17.7823 19.6886 18.2465L20.0406 19.8087L18.6637 18.9911C18.2546 18.7482 17.7454 18.7482 17.3363 18.9911L15.9594 19.8087L16.3114 18.2465C16.4161 17.7823 16.2587 17.2981 15.9012 16.984L14.6982 15.9272L16.2927 15.7793C16.7665 15.7353 17.1784 15.4361 17.3666 14.999Z" fill="#090422" stroke="#090422" stroke-width="2px" stroke-linecap="round" stroke-linejoin="round" data-v-7d1a774c=""></path></svg>