<?xml version="1.0" encoding="UTF-8" standalone="no"?>
<!-- Created with Inkscape (http://www.inkscape.org/) -->

<svg
   version="1.1"
   id="svg5492"
   width="1600"
   height="1600"
   viewBox="0 0 1600 1600"
   sodipodi:docname="shark-logo-pdv.svg"
   inkscape:version="1.2 (dc2aedaf03, 2022-05-15)"
   xmlns:inkscape="http://www.inkscape.org/namespaces/inkscape"
   xmlns:sodipodi="http://sodipodi.sourceforge.net/DTD/sodipodi-0.dtd"
   xmlns="http://www.w3.org/2000/svg"
   xmlns:svg="http://www.w3.org/2000/svg">
  <defs
     id="defs5496">
    <clipPath
       clipPathUnits="userSpaceOnUse"
       id="clipPath5508">
      <path
         d="M 0,1200 H 1200 V 0 H 0 Z"
         id="path5506" />
    </clipPath>
  </defs>
  <sodipodi:namedview
     id="namedview5494"
     pagecolor="#ffffff"
     bordercolor="#000000"
     borderopacity="0.25"
     inkscape:showpageshadow="2"
     inkscape:pageopacity="0.0"
     inkscape:pagecheckerboard="0"
     inkscape:deskcolor="#d1d1d1"
     showgrid="false"
     inkscape:zoom="0.523125"
     inkscape:cx="800"
     inkscape:cy="800.95579"
     inkscape:window-width="1920"
     inkscape:window-height="1017"
     inkscape:window-x="-8"
     inkscape:window-y="-8"
     inkscape:window-maximized="1"
     inkscape:current-layer="g5500">
    <inkscape:page
       x="0"
       y="0"
       id="page5498"
       width="1600"
       height="1600" />
  </sodipodi:namedview>
  <g
     id="g5500"
     inkscape:groupmode="layer"
     inkscape:label="Page 1"
     transform="matrix(1.3333333,0,0,-1.3333333,0,1600)">
    <g
       id="g5502">
      <g
         id="g5504"
         clip-path="url(#clipPath5508)">
        <g
           id="g5510"
           transform="translate(600.668,284.7031)">
          <path
             d="M 0,0 C 1.297,0 2.589,0.037 3.884,0.051 2.649,8.773 0.691,17.449 -1.894,25.68 -4.475,17.463 -6.431,8.807 -7.665,0.098 -5.113,0.047 -2.562,0 0,0 m 327.806,248.352 c 0.552,1.871 1.089,3.804 1.588,5.793 -1.895,-1.862 -3.828,-3.573 -5.793,-5.09 5.98,20.219 10.15,47.738 -16.535,74.555 l 14.266,13.631 C 265.272,304.549 168.386,247.42 89.359,197.252 91.622,177.066 78.256,162.742 67.868,156.57 c 0,0 3.865,14.91 -0.682,26.481 -20.629,-13.342 -39.47,-25.922 -55.325,-37.1 2.01,-2.447 4.009,-4.89 6.052,-7.34 41.064,2.975 105.797,28.221 138.396,-8.363 -1.68,0.317 -3.404,0.568 -5.144,0.789 1.783,-1.531 3.515,-3.164 5.144,-4.994 -41.394,7.768 -102.245,-13.244 -104.761,-43.967 0.013,-0.148 0.004,-0.297 0.021,-0.447 -0.019,0.006 -0.037,0.008 -0.056,0.014 C 51.426,80.252 51.412,78.85 51.569,77.424 38.809,81.695 26.71,75.172 16.71,62.686 23.01,43.211 26.101,21.928 19.809,0.527 212.875,10.69 367.473,168.44 372.592,362.779 c -1.904,-0.313 -3.833,-0.595 -5.762,-0.878 8.905,-38.997 -12.301,-92.891 -39.024,-113.549 M 42.029,216.936 c -7.473,11.933 -26.745,15.32 -26.745,15.32 9.037,6.281 25.249,12.006 41.239,5.107 64.65,92.353 111.486,175.09 164.827,228.565 -6.806,-1.937 -13.004,-5.141 -15.916,-8.76 -1.059,0.592 -2.184,1.146 -3.285,1.713 -0.33,-0.334 -0.644,-0.671 -0.92,-1.01 -15.628,8.731 -35.916,14.841 -56.423,18.35 -16.645,2.556 -33.239,3.387 -47.413,2.461 0.245,0.317 0.517,0.616 0.765,0.932 -1.679,-0.062 -3.351,-0.126 -4.968,-0.231 26.61,34.598 79.424,46.6 135.726,36.731 14.036,-2.197 28.32,-5.749 42.51,-10.675 4.924,2.842 9.941,5.441 15.068,7.789 17.578,8.053 34.785,13.415 51.418,16.678 C 278.511,657.095 149.392,745.452 0,745.452 c -148.17,0 -276.415,-86.914 -336.453,-212.432 14.995,-3.322 30.434,-8.378 46.171,-15.585 5.417,-2.48 10.708,-5.254 15.899,-8.286 70.532,25.598 144.275,17.515 177.407,-25.564 -1.182,0.079 -2.416,0.118 -3.629,0.169 1.253,-1.416 2.472,-2.867 3.629,-4.371 -32.839,2.149 -78.665,-5.101 -108.04,-21.512 -3.057,3.8 -9.745,7.143 -16.95,9.039 50.998,-52.478 96.435,-131.585 157.875,-219.93 15.868,6.651 31.897,0.969 40.862,-5.265 0,0 -2.016,-0.358 -4.975,-1.233 1.82,-0.943 3.501,-1.945 4.975,-2.97 0,0 -16.688,-2.932 -25.029,-12.957 14.96,-20.891 30.872,-42.196 48.037,-63.709 14.964,18.914 28.988,37.66 42.25,56.09 M -74.85,188.959 c -1.62,-3.803 -2.276,-8.01 -2.439,-11.959 0.253,-6.215 1.478,-10.969 1.478,-10.969 -0.295,0.176 -0.599,0.383 -0.9,0.569 0.424,-2.899 0.9,-4.772 0.9,-4.772 -9.943,5.904 -22.591,19.283 -21.679,38.115 -0.065,1.125 -0.074,2.276 -0.041,3.448 -78.011,49.224 -170.915,103.964 -224.76,135.354 l 11.437,-10.93 c -0.726,-0.731 -1.42,-1.463 -2.104,-2.194 l 2.104,-2.011 c -15.396,-15.473 -20.51,-31.174 -20.944,-45.577 0.276,-8.974 2.22,-17.365 4.41,-24.775 -0.501,0.389 -0.998,0.812 -1.494,1.222 0.473,-1.861 0.975,-3.673 1.494,-5.425 -22.931,17.722 -41.783,59.925 -41.047,96.185 -0.123,5.992 0.252,11.858 1.213,17.465 -1.81,0.269 -3.598,0.566 -5.387,0.863 4.725,-194.914 159.812,-353.218 353.432,-363.08 -2.806,9.227 -3.857,18.434 -3.64,27.489 -0.229,10.984 1.494,21.771 4.3,32.128 -6.76,9.231 -14.584,15.704 -22.988,17.831 -3.159,0.238 -6.381,-0.12 -9.646,-1.213 0.064,0.57 0.058,1.129 0.08,1.693 -1.421,-0.213 -2.846,-0.512 -4.286,-0.992 2.574,23.316 -28.658,41.853 -62.535,48.023 -13.053,1.971 -26.304,2.09 -38,-0.103 0.488,0.549 1.011,1.033 1.512,1.554 -1.936,-0.234 -3.853,-0.505 -5.717,-0.855 22.049,24.746 58.803,21.195 92.992,15.391 9.183,-1.491 18.222,-3.211 26.811,-4.678 6.567,-1.066 12.817,-1.922 18.601,-2.342 3.428,4.108 6.811,8.213 10.143,12.311 -17.885,12.605 -39.551,26.99 -63.3,42.234 M 10.788,130.367 C 8.191,123.027 3.8,114.186 -0.974,104.238 c -4.56,9.471 -8.515,17.793 -10.487,24.586 3.718,2.881 7.778,5.924 12.148,9.116 3.588,-2.629 6.961,-5.157 10.101,-7.573"
             style="fill:#fbb040;fill-opacity:1;fill-rule:nonzero;stroke:none"
             id="path5512" />
        </g>
        <g
           id="g5514"
           transform="translate(1014.4697,780.5317)">
          <path
             d="M 0,0 C 0.082,1.978 3.672,3.434 8.02,3.256 10.976,3.134 13.491,2.277 14.791,1.127 14.58,2.996 11.271,4.607 7.112,4.777 2.764,4.956 -0.826,3.499 -0.908,1.525 -0.936,0.89 -0.566,0.29 0.045,-0.252 0.035,-0.167 -0.004,-0.085 0,0 m -19.478,-65.017 c 1.005,3.786 -5.158,10.253 -5.158,10.253 l -7.073,-11.561 c 0,0 6.121,0.387 12.231,1.308 m -7.358,9.48 c 0.778,3.929 -5.935,10.127 -5.935,10.127 l -6.461,-12.263 c 0,0 6.219,0.799 12.396,2.136 m -20.326,18.284 -0.58,-13.847 c 0,0 5.276,3.388 10.283,7.245 -0.981,3.881 -9.703,6.602 -9.703,6.602 m -14.019,2.942 0.637,-12.591 c 0,0 6.446,3.574 10.374,8.526 -4.465,5.803 -11.011,4.065 -11.011,4.065 m -15.233,1.488 6.053,-12.47 c 0,0 3.041,5.484 5.62,11.254 -2.705,2.954 -11.673,1.216 -11.673,1.216 m 27.091,-82.518 c 3.405,-1.936 10.478,1.636 10.478,1.636 l -7.508,7.34 c 0,0 -1.248,-4.602 -2.97,-8.976 m 12.747,3.319 c 3.961,-0.598 9.845,6.388 9.845,6.388 l -10.052,3.206 c 0,0 0.446,-5.323 0.207,-9.594 m 11.82,8.678 c 3.957,0.616 7.477,9.043 7.477,9.043 l -13.735,1.867 c 0,0 2.883,-5.57 6.258,-10.91 m -1.582,18.507 c 0,0 5.001,-3.784 10.348,-7.15 3.306,2.26 2.85,11.383 2.85,11.383 z m 12.948,5.799 c 2.189,3.355 -1.721,11.608 -1.721,11.608 l -10.577,-8.962 c 0,0 6.069,-1.581 12.298,-2.646 m -95.657,74.944 c 1.189,4.591 2.854,9.019 5.357,12.915 2.437,3.941 5.709,7.306 9.454,10.166 3.758,2.86 7.989,5.187 12.323,7.458 -4.778,-1.047 -9.449,-2.797 -13.704,-5.433 -4.27,-2.601 -8.019,-6.222 -10.741,-10.511 -2.703,-4.314 -4.355,-9.182 -5.099,-14.092 -0.766,-4.912 -0.759,-9.87 -0.153,-14.722 0.709,4.85 1.387,9.618 2.563,14.219 m 12.736,15.352 c -2.699,-4.313 -4.352,-9.184 -5.095,-14.092 -0.767,-4.913 -0.759,-9.872 -0.154,-14.722 0.706,4.848 1.388,9.616 2.564,14.219 1.187,4.589 2.852,9.017 5.353,12.915 2.442,3.942 5.711,7.305 9.457,10.166 3.759,2.861 7.99,5.185 12.323,7.456 -4.778,-1.045 -9.449,-2.798 -13.706,-5.43 -4.268,-2.602 -8.017,-6.223 -10.742,-10.512 m 10.051,0.755 c -2.7,-4.313 -4.355,-9.184 -5.096,-14.091 -0.767,-4.913 -0.757,-9.871 -0.154,-14.724 0.707,4.851 1.388,9.618 2.562,14.223 1.189,4.588 2.852,9.016 5.356,12.915 2.438,3.939 5.709,7.304 9.454,10.163 3.761,2.859 7.991,5.187 12.325,7.458 -4.778,-1.047 -9.449,-2.797 -13.707,-5.432 -4.268,-2.602 -8.015,-6.22 -10.74,-10.512 m 10.05,0.757 c -2.699,-4.313 -4.354,-9.183 -5.096,-14.091 -0.768,-4.914 -0.758,-9.87 -0.155,-14.725 0.708,4.85 1.389,9.618 2.564,14.224 1.191,4.587 2.852,9.014 5.355,12.915 2.437,3.938 5.709,7.302 9.455,10.163 3.761,2.859 7.993,5.187 12.324,7.459 -4.777,-1.048 -9.45,-2.798 -13.706,-5.434 C -69.738,20.68 -73.483,17.06 -76.21,12.77 m 10.05,0.755 c -2.699,-4.313 -4.355,-9.181 -5.098,-14.091 -0.766,-4.911 -0.757,-9.868 -0.153,-14.722 0.708,4.85 1.388,9.617 2.565,14.221 1.188,4.589 2.851,9.016 5.355,12.915 2.436,3.94 5.709,7.304 9.454,10.166 3.759,2.859 7.989,5.184 12.324,7.456 -4.777,-1.045 -9.45,-2.798 -13.706,-5.433 -4.269,-2.6 -8.017,-6.221 -10.741,-10.512 m 10.051,0.757 c -2.702,-4.312 -4.355,-9.183 -5.098,-14.091 -0.765,-4.913 -0.76,-9.871 -0.154,-14.723 0.709,4.848 1.387,9.616 2.564,14.222 1.188,4.586 2.853,9.014 5.356,12.915 2.437,3.939 5.709,7.304 9.455,10.164 3.757,2.859 7.988,5.186 12.322,7.456 -4.777,-1.045 -9.447,-2.796 -13.706,-5.431 -4.266,-2.602 -8.017,-6.22 -10.739,-10.512 m 47.21,-90.428 c -6.895,26.598 -35.111,52.412 -77.089,44.423 0,0 59.07,-72.102 27.433,-89.014 l 12.065,2.241 c 33.451,7.215 41.79,26.136 37.591,42.35 m -112.74,40.23 c 68.126,28.017 163.201,27.314 231.406,8.679 l 0.081,-0.596 c 7.174,-2.979 5.582,-15.701 2.589,-18.916 l 0.035,-0.256 c -0.039,-0.038 -0.079,-0.076 -0.118,-0.114 l 0.017,-0.127 C 61.902,-97.049 -7.362,-119.377 -53.23,-125.992 c -1.997,-0.289 -3.966,-0.558 -5.872,-0.786 -0.101,-0.082 -0.231,-0.175 -0.353,-0.264 -12.352,-9.053 -133.109,-64.601 -253.016,-142.89 -0.383,-0.072 -0.725,-0.092 -1.04,-0.084 -20.337,-2.059 74.25,124.325 130.622,191.923 15.165,18.189 36.444,32.073 61.25,42.177 m -332.457,-323.157 c -8.587,1.467 -17.628,3.188 -26.81,4.678 9.24,-1.568 18.284,-3.293 26.81,-4.678 m -114.086,-9.857 c -0.505,-0.522 -1.024,-1.01 -1.509,-1.555 11.693,2.194 24.946,2.074 38,0.104 -12.319,2.244 -24.971,2.847 -36.491,1.451 m 103.309,-48.483 c -0.024,-0.564 -0.018,-1.123 -0.078,-1.693 3.265,1.094 6.487,1.451 9.644,1.213 -3.116,0.791 -6.314,0.973 -9.566,0.48 M -142.376,9.608 c -14.189,4.928 -28.474,8.481 -42.51,10.677 13.79,-2.416 27.781,-6.15 41.656,-11.183 0.286,0.167 0.569,0.341 0.854,0.506 M -192.452,-29.9 c 0.698,0.702 1.399,1.398 2.101,2.09 -8.379,-1.309 -17.055,-4.86 -21.301,-9.137 1.1,-0.568 2.225,-1.121 3.285,-1.713 2.911,3.618 9.109,6.822 15.915,8.76 m -76.544,10.293 c -16.14,2.76 -32.393,3.903 -46.648,3.392 -0.25,-0.315 -0.518,-0.614 -0.764,-0.931 14.174,0.925 30.767,0.092 47.412,-2.461 m -55.902,-275.891 c 0.194,-1.041 0.341,-2.067 0.456,-3.079 79.026,50.168 175.913,107.297 231.972,139.989 l 8.44,8.061 c -52.307,-30.41 -156.186,-91.36 -240.868,-144.971 M 120.801,-17.127 C 115.719,-10.895 70.428,24.44 5.484,34.681 68.17,23.622 111.626,-10.329 116.598,-16.426 c 0,0 13.244,-16.407 5.613,-31.826 -15.837,-20.507 -77.197,-69.716 -169.499,-84.398 -1.286,-0.204 -2.591,-0.387 -3.889,-0.578 8.249,-36.128 -9.345,-85.028 -33.23,-108.456 -0.499,-1.99 -1.036,-3.922 -1.589,-5.793 26.724,20.656 47.93,74.552 39.024,113.549 1.929,0.284 3.859,0.566 5.762,0.878 2.841,0.467 5.657,0.966 8.438,1.498 86.557,16.545 143.95,62.867 159.189,82.598 7.628,15.419 -5.616,31.827 -5.616,31.827 M -830.481,1.525 c -0.081,1.974 -3.673,3.431 -8.02,3.252 -4.16,-0.17 -7.471,-1.781 -7.681,-3.65 1.302,1.15 3.815,2.007 6.772,2.129 4.348,0.178 7.939,-1.278 8.021,-3.256 0.002,-0.085 -0.036,-0.167 -0.047,-0.252 0.612,0.542 0.98,1.142 0.955,1.777 m 30.8,-67.85 -7.074,11.561 c 0,0 -6.164,-6.467 -5.159,-10.253 6.111,-0.921 12.233,-1.308 12.233,-1.308 m 7.523,8.652 -6.462,12.263 c 0,0 -6.712,-6.198 -5.933,-10.127 6.176,-1.337 12.395,-2.136 12.395,-2.136 m 7.929,20.42 c 0,0 -8.721,-2.721 -9.704,-6.602 5.008,-3.857 10.286,-7.245 10.286,-7.245 z m 3.009,-1.123 c 3.926,-4.952 10.372,-8.526 10.372,-8.526 l 0.638,12.591 c 0,0 -6.548,1.738 -11.01,-4.065 m 14.57,4.337 c 2.581,-5.77 5.619,-11.254 5.619,-11.254 l 6.054,12.47 c 0,0 -8.966,1.738 -11.673,-1.216 m -25.897,-79.666 c 0,0 7.076,-3.572 10.481,-1.636 -1.726,4.374 -2.972,8.976 -2.972,8.976 z m -12.114,8.071 c 0,0 5.886,-6.986 9.847,-6.388 -0.239,4.271 0.207,9.594 0.207,9.594 z m -9.45,11.333 c 0,0 3.519,-8.427 7.477,-9.043 3.374,5.34 6.258,10.91 6.258,10.91 z m -4.14,13.697 c 0,0 -0.455,-9.123 2.851,-11.383 5.346,3.366 10.348,7.15 10.348,7.15 z m 12.547,4.212 -10.573,8.962 c 0,0 -3.913,-8.253 -1.723,-11.608 6.228,1.065 12.296,2.646 12.296,2.646 m 83.361,72.298 c 1.174,-4.601 1.854,-9.369 2.564,-14.219 0.603,4.852 0.611,9.81 -0.156,14.722 -0.741,4.91 -2.396,9.778 -5.096,14.092 -2.723,4.289 -6.473,7.91 -10.741,10.511 -4.257,2.636 -8.928,4.386 -13.706,5.433 4.334,-2.271 8.563,-4.598 12.325,-7.458 3.743,-2.86 7.016,-6.225 9.453,-10.166 2.504,-3.896 4.169,-8.324 5.357,-12.915 m -10.049,0.757 c 1.174,-4.603 1.854,-9.371 2.562,-14.219 0.603,4.85 0.614,9.809 -0.153,14.722 -0.744,4.908 -2.399,9.779 -5.098,14.092 -2.724,4.289 -6.472,7.91 -10.739,10.512 -4.257,2.632 -8.929,4.385 -13.709,5.43 4.335,-2.271 8.565,-4.595 12.325,-7.456 3.746,-2.861 7.017,-6.224 9.455,-10.166 2.503,-3.898 4.167,-8.326 5.357,-12.915 m -10.051,0.758 c 1.173,-4.605 1.856,-9.372 2.563,-14.223 0.605,4.853 0.614,9.811 -0.155,14.724 -0.741,4.907 -2.397,9.778 -5.097,14.091 -2.722,4.292 -6.47,7.91 -10.74,10.512 -4.257,2.635 -8.929,4.385 -13.705,5.432 4.333,-2.271 8.564,-4.599 12.323,-7.458 3.746,-2.859 7.018,-6.224 9.456,-10.163 2.501,-3.899 4.166,-8.327 5.355,-12.915 m -10.051,0.757 c 1.177,-4.606 1.855,-9.374 2.563,-14.224 0.607,4.855 0.615,9.811 -0.152,14.725 -0.743,4.908 -2.396,9.778 -5.098,14.091 -2.723,4.29 -6.472,7.91 -10.74,10.511 -4.257,2.636 -8.929,4.386 -13.706,5.434 4.333,-2.272 8.564,-4.6 12.323,-7.459 3.745,-2.861 7.016,-6.225 9.456,-10.163 2.502,-3.901 4.166,-8.328 5.354,-12.915 m -10.049,0.755 c 1.177,-4.604 1.856,-9.371 2.563,-14.221 0.604,4.854 0.612,9.811 -0.153,14.722 -0.743,4.91 -2.396,9.778 -5.097,14.091 -2.724,4.291 -6.472,7.912 -10.743,10.512 -4.256,2.635 -8.925,4.388 -13.705,5.433 4.334,-2.272 8.565,-4.597 12.324,-7.456 3.747,-2.862 7.017,-6.226 9.456,-10.166 2.503,-3.899 4.167,-8.326 5.355,-12.915 m -23.478,25.861 c -4.256,2.635 -8.928,4.386 -13.706,5.431 4.332,-2.27 8.563,-4.597 12.323,-7.456 3.746,-2.86 7.019,-6.225 9.454,-10.164 2.505,-3.901 4.168,-8.329 5.358,-12.915 1.174,-4.606 1.857,-9.374 2.564,-14.222 0.603,4.852 0.612,9.81 -0.156,14.723 -0.743,4.908 -2.396,9.779 -5.096,14.091 -2.725,4.292 -6.472,7.91 -10.741,10.512 m 40.62,-56.517 c -41.979,7.989 -70.197,-17.825 -77.088,-44.423 -4.203,-16.214 4.139,-35.135 37.589,-42.35 l 12.064,-2.241 c -31.638,16.912 27.435,89.014 27.435,89.014 m 96.899,-46.37 c 56.373,-67.598 150.959,-193.982 130.624,-191.923 -0.314,-0.008 -0.656,0.012 -1.04,0.084 -121.094,79.062 -243.072,134.941 -253.372,143.154 -45.653,5.5 -118.806,27.557 -171.471,79.532 l 0.018,0.127 c -0.039,0.038 -0.079,0.076 -0.119,0.114 l 0.034,0.256 c -2.993,3.215 -4.585,15.937 2.589,18.916 l 0.083,0.596 c 68.204,18.635 163.278,19.338 231.406,-8.679 24.804,-10.104 46.084,-23.988 61.248,-42.177 m -133.733,-72.496 c 0.121,5.983 0.756,11.81 2.014,17.335 -0.27,0.041 -0.532,0.087 -0.802,0.13 -0.96,-5.606 -1.335,-11.473 -1.212,-17.465 m 345.612,-317.263 c 0.255,10.6 2.24,20.988 5.156,30.949 -0.281,0.401 -0.568,0.789 -0.851,1.18 -2.805,-10.357 -4.528,-21.145 -4.305,-32.129 M -641.041,-27.81 c 53.172,-52.364 99.597,-133.864 163.148,-225.243 13.26,5.558 26.616,2.496 35.883,-2.295 2.965,0.877 4.98,1.234 4.98,1.234 -8.966,6.235 -24.994,11.916 -40.863,5.266 -61.44,88.344 -106.877,167.452 -157.875,219.929 -1.743,0.457 -3.512,0.835 -5.273,1.109 m -101.643,-213.538 c 0.497,-0.41 0.992,-0.836 1.495,-1.223 -2.192,7.41 -4.133,15.801 -4.41,24.774 -0.252,-8.395 1.081,-16.346 2.915,-23.551 m 346.795,-115.869 c -2.043,2.449 -4.042,4.892 -6.051,7.34 15.854,11.177 34.695,23.757 55.325,37.099 -0.356,0.899 -0.761,1.778 -1.223,2.629 -31.416,-20.262 -58.883,-38.855 -78.249,-53.564 -1.157,-0.879 -2.284,-1.741 -3.383,-2.592 8.55,-29.424 54.321,-87.525 25.061,-143.643 0.13,-2.566 0.21,-5.123 0.198,-7.65 2.912,4.566 5.284,9.156 7.193,13.75 1.186,2.848 2.19,5.699 3.026,8.547 6.293,21.4 3.2,42.683 -3.1,62.158 -4.645,14.361 -11.027,27.734 -16.671,39.451 5.121,10.639 9.678,19.94 11.843,27.393 -0.351,0.275 -0.735,0.56 -1.094,0.838 -2.596,-7.34 -6.988,-16.182 -11.761,-26.129 -4.561,9.47 -8.516,17.793 -10.488,24.586 3.718,2.881 7.779,5.924 12.149,9.113 2.868,2.096 5.858,4.248 8.982,6.465 2.721,-3.328 5.461,-6.66 8.243,-9.996 39.01,2.826 99.362,25.711 133.252,-3.369 1.74,-0.221 3.464,-0.473 5.145,-0.789 -32.6,36.584 -97.332,11.337 -138.397,8.363 m -67.704,83.871 c 14.911,-20.889 30.803,-42.209 47.905,-63.736 0.555,0.701 1.11,1.4 1.662,2.099 -17.16,21.514 -33.074,42.819 -48.034,63.709 -0.549,-0.66 -1.063,-1.347 -1.533,-2.072 m -283.766,122.819 20.6,-19.681 c 0.683,0.731 1.377,1.463 2.105,2.194 l -11.44,10.93 c -3.968,2.313 -7.745,4.512 -11.265,6.557 m 385.07,-263.659 c 0.019,-0.006 0.037,-0.008 0.057,-0.014 -0.018,0.151 -0.008,0.295 -0.022,0.448 -0.012,-0.143 -0.025,-0.289 -0.035,-0.434 m -128.222,84.957 c 0.301,-0.185 0.604,-0.392 0.899,-0.568 0,0 -1.224,4.754 -1.477,10.968 -0.161,-3.966 0.179,-7.646 0.578,-10.4 m -20.779,33.344 c 0.053,1.068 0.126,2.148 0.268,3.252 -0.103,0.064 -0.208,0.131 -0.309,0.191 -0.034,-1.168 -0.027,-2.318 0.041,-3.443 m -436.697,279.459 c 0,0 -7.018,-8.707 -7.887,-19.394 -1.054,12.511 7.887,23.599 7.887,23.599 6.848,8.397 86.679,69.628 189.241,51.11 2.814,-0.509 5.644,-1.065 8.489,-1.698 14.998,-3.322 30.438,-8.377 46.174,-15.584 5.417,-2.481 10.707,-5.254 15.9,-8.287 70.529,25.598 144.274,17.515 177.406,-25.563 -1.183,0.078 -2.414,0.117 -3.629,0.169 -34.661,39.217 -105.709,45.893 -173.777,21.189 -5.193,3.033 -10.483,5.804 -15.9,8.286 -127.623,58.447 -235.878,-23.986 -243.904,-33.827"
             style="fill:#ffffff;fill-opacity:1;fill-rule:nonzero;stroke:none"
             id="path5516" />
        </g>
        <g
           id="g5518"
           transform="translate(999.3564,713.1021)">
          <path
             d="m 0,0 -10.574,-8.964 c 0,0 6.068,-1.579 12.298,-2.644 C 3.912,-8.253 0,0 0,0 m 1.974,-13.175 -13.199,-4.234 c 0,0 5.001,-3.783 10.348,-7.149 3.307,2.259 2.851,11.383 2.851,11.383 m -4.14,-13.692 -13.734,1.862 c 0,0 2.882,-5.569 6.257,-10.911 3.958,0.615 7.477,9.049 7.477,9.049 M -11.618,-38.204 -21.67,-35 c 0,0 0.446,-5.321 0.207,-9.589 3.961,-0.601 9.845,6.385 9.845,6.385 m -12.113,-8.071 -7.508,7.337 c 0,0 -1.248,-4.599 -2.971,-8.973 3.405,-1.937 10.479,1.636 10.479,1.636 m -8.898,62.603 c 0,0 5.276,3.39 10.283,7.245 -0.981,3.883 -9.703,6.606 -9.703,6.606 z m 14.972,5.691 -6.462,-12.262 c 0,0 6.22,0.799 12.396,2.136 0.779,3.928 -5.934,10.126 -5.934,10.126 m 1.061,-20.915 c 0,0 6.123,0.388 12.232,1.308 1.005,3.786 -5.158,10.254 -5.158,10.254 z m -18.461,27.95 c -4.464,5.802 -11.01,4.064 -11.01,4.064 l 0.636,-12.589 c 0,0 6.447,3.573 10.374,8.525 m -14.571,4.336 c -2.705,2.955 -11.673,1.216 -11.673,1.216 l 6.053,-12.469 c 0,0 3.041,5.484 5.62,11.253 M 6.212,-8.719 c 4.201,-16.212 -4.14,-35.133 -37.589,-42.348 l -12.064,-2.241 c 31.636,16.912 -27.434,89.014 -27.434,89.014 41.979,7.988 70.194,-17.822 77.087,-44.425 m 118.749,48.315 -0.081,0.596 C 56.675,58.827 -38.399,59.53 -106.525,31.514 c -24.807,-10.105 -46.085,-23.989 -61.25,-42.177 -56.372,-67.599 -150.959,-193.982 -130.622,-191.924 0.314,-0.007 0.655,0.014 1.04,0.084 119.906,78.29 240.664,133.838 253.015,142.891 0.122,0.089 0.254,0.181 0.354,0.261 1.905,0.231 3.875,0.499 5.872,0.786 45.867,6.618 115.132,28.944 165.6,78.748 l -0.017,0.127 c 0.039,0.038 0.079,0.076 0.118,0.114 l -0.033,0.257 c 2.991,3.215 4.584,15.935 -2.591,18.915 m -221.458,9.52 c 0.709,4.851 1.388,9.618 2.563,14.222 1.189,4.589 2.854,9.016 5.357,12.915 2.437,3.938 5.709,7.304 9.454,10.163 3.759,2.86 7.989,5.188 12.323,7.459 -4.778,-1.048 -9.449,-2.798 -13.704,-5.434 -4.269,-2.601 -8.018,-6.221 -10.741,-10.511 -2.702,-4.313 -4.355,-9.181 -5.099,-14.091 -0.765,-4.912 -0.758,-9.87 -0.153,-14.723 m 26.041,40.083 c -4.27,-2.601 -8.017,-6.222 -10.741,-10.511 -2.699,-4.314 -4.353,-9.184 -5.096,-14.092 -0.767,-4.913 -0.759,-9.871 -0.153,-14.722 0.706,4.848 1.387,9.615 2.563,14.219 1.188,4.589 2.853,9.016 5.354,12.915 2.439,3.94 5.711,7.303 9.457,10.166 3.759,2.86 7.989,5.186 12.322,7.458 -4.777,-1.048 -9.448,-2.8 -13.706,-5.433 m 10.05,0.757 c -4.269,-2.604 -8.016,-6.222 -10.74,-10.514 -2.701,-4.312 -4.356,-9.183 -5.097,-14.092 -0.767,-4.912 -0.759,-9.87 -0.153,-14.722 0.707,4.851 1.387,9.618 2.561,14.222 1.189,4.588 2.853,9.016 5.356,12.915 2.438,3.939 5.709,7.304 9.455,10.166 3.76,2.857 7.991,5.184 12.325,7.456 -4.778,-1.045 -9.449,-2.798 -13.707,-5.431 m 23.757,6.187 c -4.778,-1.046 -9.451,-2.796 -13.706,-5.432 -4.27,-2.602 -8.017,-6.22 -10.742,-10.512 -2.699,-4.312 -4.356,-9.183 -5.095,-14.091 -0.769,-4.914 -0.759,-9.871 -0.156,-14.724 0.708,4.849 1.389,9.617 2.564,14.223 1.189,4.587 2.852,9.014 5.355,12.915 2.438,3.939 5.709,7.302 9.455,10.163 3.761,2.86 7.992,5.187 12.325,7.458 m 10.049,0.756 c -4.779,-1.045 -9.45,-2.797 -13.706,-5.433 -4.268,-2.599 -8.016,-6.22 -10.741,-10.512 -2.699,-4.312 -4.354,-9.181 -5.098,-14.091 -0.766,-4.913 -0.756,-9.868 -0.153,-14.723 0.708,4.851 1.388,9.619 2.564,14.222 1.189,4.589 2.852,9.017 5.356,12.915 2.437,3.941 5.709,7.304 9.454,10.165 3.759,2.861 7.989,5.186 12.324,7.457 m -3.657,-4.675 c -4.267,-2.602 -8.016,-6.221 -10.739,-10.512 -2.701,-4.313 -4.355,-9.182 -5.098,-14.092 -0.766,-4.912 -0.76,-9.87 -0.154,-14.723 0.709,4.851 1.388,9.617 2.564,14.222 1.188,4.587 2.853,9.015 5.356,12.915 2.437,3.939 5.709,7.305 9.455,10.164 3.758,2.86 7.988,5.187 12.322,7.458 -4.777,-1.047 -9.449,-2.798 -13.706,-5.432 m 44.462,-23.27 c -0.027,-0.635 0.342,-1.234 0.953,-1.776 -0.01,0.085 -0.047,0.167 -0.045,0.252 0.08,1.976 3.672,3.433 8.021,3.255 2.955,-0.122 5.473,-0.976 6.77,-2.128 -0.211,1.869 -3.52,3.479 -7.678,3.65 -4.349,0.178 -7.939,-1.278 -8.021,-3.253 m -424.439,-350.628 c -17.885,12.605 -39.557,26.99 -63.304,42.234 -1.622,-3.803 -2.278,-8.01 -2.439,-11.959 -0.16,-3.967 0.182,-7.647 0.581,-10.4 0.42,-2.899 0.895,-4.774 0.895,-4.774 -9.941,5.906 -22.59,19.285 -21.678,38.117 0.055,1.069 0.128,2.149 0.268,3.252 -0.101,0.065 -0.205,0.131 -0.307,0.194 -78.014,49.226 -170.917,103.966 -224.761,135.356 -3.969,2.312 -7.745,4.511 -11.268,6.558 l 20.601,-19.682 2.104,-2.011 c -15.395,-15.475 -20.512,-31.174 -20.942,-45.577 -0.252,-8.398 1.081,-16.349 2.913,-23.555 0.473,-1.859 0.975,-3.671 1.494,-5.423 -22.931,17.722 -41.783,59.925 -41.046,96.185 0.121,5.984 0.757,11.809 2.017,17.335 -0.273,0.039 -0.535,0.087 -0.805,0.13 -1.81,0.269 -3.599,0.566 -5.388,0.863 4.726,-194.914 159.812,-353.218 353.434,-363.08 -2.806,9.227 -3.858,18.434 -3.643,27.489 0.253,10.599 2.237,20.988 5.153,30.949 -0.282,0.398 -0.567,0.789 -0.852,1.179 -6.759,9.231 -14.582,15.702 -22.986,17.831 -3.119,0.791 -6.315,0.974 -9.565,0.48 -1.421,-0.215 -2.847,-0.512 -4.287,-0.992 2.573,23.316 -28.66,41.851 -62.533,48.023 -12.318,2.244 -24.971,2.848 -36.49,1.451 -1.937,-0.234 -3.855,-0.505 -5.717,-0.855 22.049,24.746 58.803,21.195 92.992,15.391 9.24,-1.569 18.286,-3.293 26.811,-4.678 6.567,-1.067 12.817,-1.924 18.6,-2.342 3.427,4.109 6.812,8.211 10.148,12.311 m 9.652,-121.045 c -2.581,-8.217 -4.537,-16.873 -5.772,-25.582 2.552,-0.053 5.104,-0.098 7.666,-0.098 1.3,0 2.588,0.037 3.883,0.051 -1.232,8.722 -3.192,17.398 -5.777,25.629 m -356.594,343.368 c 10.3,-8.211 132.28,-64.089 253.369,-143.152 0.386,-0.07 0.728,-0.091 1.042,-0.084 20.337,-2.058 -74.252,124.325 -130.624,191.924 -15.166,18.188 -36.444,32.072 -61.249,42.177 -68.128,28.016 -163.2,27.313 -231.405,8.678 l -0.082,-0.596 c -7.173,-2.98 -5.582,-15.7 -2.589,-18.915 l -0.036,-0.257 c 0.04,-0.038 0.082,-0.076 0.12,-0.114 l -0.018,-0.127 c 52.665,-51.974 125.817,-74.032 171.472,-79.534 M -831.07,68.557 c 1.303,1.152 3.815,2.006 6.773,2.128 4.348,0.178 7.939,-1.279 8.02,-3.255 0.004,-0.085 -0.036,-0.167 -0.046,-0.252 0.612,0.542 0.979,1.141 0.954,1.776 -0.081,1.975 -3.672,3.431 -8.02,3.253 -4.16,-0.171 -7.468,-1.781 -7.681,-3.65 m 46.456,29.099 c 4.334,-2.271 8.564,-4.598 12.324,-7.458 3.746,-2.859 7.018,-6.225 9.455,-10.164 2.504,-3.9 4.167,-8.328 5.356,-12.915 1.173,-4.605 1.856,-9.371 2.563,-14.222 0.604,4.853 0.614,9.811 -0.155,14.723 -0.741,4.91 -2.397,9.779 -5.095,14.092 -2.725,4.291 -6.472,7.91 -10.74,10.512 -4.257,2.634 -8.929,4.385 -13.708,5.432 m 10.049,-0.757 c 4.336,-2.271 8.564,-4.596 12.326,-7.457 3.744,-2.861 7.016,-6.224 9.453,-10.165 2.504,-3.898 4.167,-8.326 5.357,-12.915 1.175,-4.603 1.854,-9.371 2.562,-14.222 0.603,4.855 0.613,9.81 -0.154,14.723 -0.741,4.91 -2.396,9.779 -5.096,14.091 -2.725,4.292 -6.473,7.913 -10.741,10.512 -4.257,2.636 -8.928,4.388 -13.707,5.433 m 10.051,-0.756 c 4.334,-2.271 8.565,-4.598 12.325,-7.458 3.743,-2.861 7.015,-6.224 9.454,-10.163 2.503,-3.901 4.168,-8.328 5.355,-12.915 1.177,-4.606 1.857,-9.374 2.564,-14.223 0.604,4.853 0.612,9.81 -0.155,14.724 -0.741,4.908 -2.396,9.779 -5.094,14.091 -2.725,4.292 -6.476,7.91 -10.743,10.512 -4.257,2.636 -8.927,4.386 -13.706,5.432 m 10.051,-0.756 c 4.331,-2.272 8.563,-4.599 12.321,-7.456 3.747,-2.862 7.02,-6.227 9.457,-10.166 2.502,-3.899 4.165,-8.327 5.354,-12.915 1.177,-4.604 1.856,-9.371 2.564,-14.222 0.606,4.852 0.614,9.81 -0.154,14.722 -0.743,4.909 -2.395,9.78 -5.096,14.092 -2.725,4.292 -6.472,7.91 -10.741,10.514 -4.257,2.633 -8.929,4.386 -13.705,5.431 m 10.048,-0.755 c 4.335,-2.272 8.565,-4.598 12.323,-7.458 3.748,-2.863 7.019,-6.226 9.457,-10.166 2.502,-3.899 4.164,-8.326 5.356,-12.915 1.174,-4.604 1.855,-9.371 2.563,-14.219 0.604,4.851 0.612,9.809 -0.155,14.722 -0.741,4.908 -2.396,9.778 -5.096,14.092 -2.726,4.289 -6.471,7.91 -10.741,10.511 -4.257,2.633 -8.927,4.385 -13.707,5.433 m 10.05,-0.757 c 4.334,-2.271 8.564,-4.599 12.324,-7.459 3.745,-2.859 7.017,-6.225 9.455,-10.163 2.504,-3.899 4.167,-8.326 5.356,-12.915 1.173,-4.604 1.856,-9.371 2.563,-14.222 0.604,4.853 0.613,9.811 -0.153,14.723 -0.743,4.91 -2.397,9.778 -5.097,14.091 -2.725,4.29 -6.473,7.91 -10.741,10.511 -4.256,2.636 -8.928,4.386 -13.707,5.434 M 137.324,19.178 C 121.487,-1.327 60.127,-50.538 -32.175,-65.221 c -1.286,-0.204 -2.591,-0.386 -3.888,-0.578 8.249,-36.126 -9.346,-85.028 -33.231,-108.455 -1.895,-1.86 -3.828,-3.573 -5.794,-5.09 5.981,20.219 10.15,47.736 -16.534,74.555 l 14.266,13.631 8.439,8.062 c -52.307,-30.412 -156.185,-91.36 -240.87,-144.973 0.196,-1.041 0.344,-2.068 0.458,-3.078 2.263,-20.186 -11.104,-34.51 -21.489,-40.682 0,0 3.863,14.91 -0.684,26.481 -0.355,0.898 -0.763,1.777 -1.223,2.627 -31.418,-20.26 -58.882,-38.854 -78.251,-53.563 -1.153,-0.879 -2.282,-1.74 -3.38,-2.592 8.549,-29.423 54.32,-87.525 25.06,-143.642 -1.211,-2.322 -2.532,-4.639 -4.007,-6.949 0.021,4.187 -0.176,8.445 -0.544,12.72 -1.614,-0.019 -3.223,-0.062 -4.841,-0.062 -2.882,0 -5.756,0.047 -8.624,0.111 -0.371,-4.291 -0.569,-8.566 -0.549,-12.769 -2.762,4.324 -5.032,8.67 -6.887,13.021 -200.207,8.342 -360.995,171.844 -364.979,373.127 -86.308,16.621 -143.548,62.796 -158.761,82.497 -2.074,4.186 -2.598,8.445 -2.274,12.431 0.869,10.688 7.889,19.395 7.889,19.395 8.024,9.841 116.282,92.273 243.904,33.827 5.417,-2.482 10.706,-5.254 15.9,-8.286 68.067,24.704 139.115,18.026 173.774,-21.19 1.257,-1.416 2.472,-2.867 3.629,-4.371 -32.837,2.148 -78.663,-5.101 -108.04,-21.512 -3.056,3.8 -9.743,7.142 -16.948,9.039 -1.742,0.457 -3.513,0.834 -5.272,1.108 53.172,-52.363 99.597,-133.863 163.145,-225.243 13.262,5.559 26.617,2.496 35.887,-2.293 1.822,-0.943 3.502,-1.945 4.977,-2.972 0,0 -16.688,-2.93 -25.029,-12.955 -0.548,-0.66 -1.064,-1.348 -1.533,-2.073 14.911,-20.888 30.8,-42.209 47.905,-63.736 0.556,0.701 1.109,1.4 1.663,2.1 14.966,18.914 28.99,37.66 42.252,56.09 -7.474,11.933 -26.745,15.32 -26.745,15.32 9.035,6.281 25.249,12.006 41.239,5.107 64.649,92.353 111.485,175.09 164.826,228.564 0.698,0.702 1.4,1.4 2.102,2.091 -8.38,-1.309 -17.056,-4.859 -21.302,-9.137 -0.332,-0.334 -0.645,-0.672 -0.92,-1.01 -15.629,8.731 -35.916,14.841 -56.424,18.35 -16.139,2.763 -32.392,3.903 -46.647,3.393 -1.679,-0.062 -3.352,-0.126 -4.97,-0.231 26.611,34.598 79.426,46.6 135.728,36.731 13.79,-2.417 27.781,-6.151 41.656,-11.184 0.285,0.167 0.568,0.344 0.853,0.509 4.924,2.842 9.942,5.441 15.069,7.789 17.578,8.053 34.785,13.415 51.418,16.68 -59.402,127.187 -188.521,215.543 -337.912,215.543 -148.17,0 -276.412,-86.913 -336.454,-212.431 -2.847,0.632 -5.675,1.19 -8.492,1.697 61.006,129.379 192.681,219.147 344.946,219.147 153.561,0 286.185,-91.298 346.491,-222.456 26.102,4.049 50.646,3.009 72.795,-0.901 C 83.283,91.051 126.739,57.1 131.711,51.004 c 0,0 13.244,-16.407 5.613,-31.826 m -904.278,-67.089 c -1.724,4.374 -2.972,8.973 -2.972,8.973 l -7.507,-7.337 c 0,0 7.075,-3.573 10.479,-1.636 m -12.539,12.911 -10.054,-3.204 c 0,0 5.884,-6.986 9.845,-6.385 -0.236,4.268 0.209,9.589 0.209,9.589 m -12.028,-0.916 c 3.374,5.342 6.259,10.911 6.259,10.911 l -13.735,-1.862 c 0,0 3.52,-8.434 7.476,-9.049 m -8.766,11.358 c 5.346,3.366 10.35,7.149 10.35,7.149 l -13.202,4.234 c 0,0 -0.455,-9.124 2.852,-11.383 m -2.601,12.95 c 6.229,1.065 12.296,2.644 12.296,2.644 L -801.165,0 c 0,0 -3.913,-8.253 -1.723,-11.608 m 6.086,14.02 c 6.114,-0.92 12.234,-1.308 12.234,-1.308 l -7.074,11.562 c 0,0 -6.163,-6.468 -5.16,-10.254 m 7.362,9.481 c 6.175,-1.337 12.395,-2.136 12.395,-2.136 l -6.463,12.262 c 0,0 -6.712,-6.198 -5.932,-10.126 m 10.622,11.68 c 5.006,-3.855 10.284,-7.245 10.284,-7.245 l -0.58,13.851 c 0,0 -8.722,-2.723 -9.704,-6.606 m 12.712,5.481 c 3.924,-4.952 10.371,-8.525 10.371,-8.525 l 0.639,12.589 c 0,0 -6.546,1.738 -11.01,-4.064 m 14.57,4.336 c 2.579,-5.769 5.619,-11.253 5.619,-11.253 l 6.053,12.469 c 0,0 -8.967,1.739 -11.672,-1.216 m -6.186,-86.698 -12.064,2.241 c -33.449,7.215 -41.792,26.136 -37.591,42.348 6.894,26.603 35.11,52.413 77.088,44.425 0,0 -59.07,-72.102 -27.433,-89.014 m 375.743,-312.405 c 10,12.486 22.098,19.009 34.86,14.738 -0.157,1.426 -0.144,2.828 -0.057,4.219 0.01,0.144 0.024,0.289 0.035,0.433 2.517,30.723 63.368,51.735 104.762,43.967 -1.63,1.83 -3.361,3.463 -5.146,4.994 -33.889,29.08 -94.241,6.197 -133.25,3.369 -2.785,3.336 -5.523,6.668 -8.243,9.996 -3.125,-2.216 -6.115,-4.369 -8.983,-6.463 3.588,-2.628 6.961,-5.156 10.101,-7.572 0.358,-0.277 0.741,-0.562 1.093,-0.838 -2.165,-7.453 -6.721,-16.754 -11.842,-27.394 5.643,-11.715 12.027,-25.09 16.67,-39.449 M -26.097,-65.62 c 2.841,0.467 5.658,0.966 8.438,1.498 -4.39,-200.675 -164.642,-363.601 -364.243,-372.297 1.183,2.848 2.187,5.7 3.023,8.547 193.066,10.162 347.663,167.912 352.782,362.252"
             style="fill:#000000;fill-opacity:1;fill-rule:nonzero;stroke:none"
             id="path5520" />
        </g>
      </g>
    </g>
  </g>
</svg>
