<?xml version="1.0" encoding="UTF-8"?>
<svg width="140px" height="60px" viewBox="0 0 140 60" version="1.1" xmlns="http://www.w3.org/2000/svg" xmlns:xlink="http://www.w3.org/1999/xlink">
    <!-- Generator: Sketch 59.1 (86144) - https://sketch.com -->
    <title>Group 28</title>
    <desc>Created with Sketch.</desc>
    <defs>
        <path d="M8.3781195,0.0915883394 C8.12213208,0.211246407 7.92748113,0.451285988 7.85624214,0.655587308 L7.85624214,0.655587308 C8.47034591,0.855692637 9.39645283,1.47510762 9.39645283,3.38355974 L9.39645283,3.38355974 C9.39645283,3.72849908 9.36556289,4.11800273 9.29920126,4.55279414 L9.29920126,4.55279414 C8.99222327,6.49611639 7.88683648,7.8155383 7.00152201,8.06990212 L7.00152201,8.06990212 C6.7558805,8.14022113 6.53078302,8.12517344 6.34662579,8.04009612 L6.34662579,8.04009612 C6.90959119,7.30087839 7.38520755,6.41118376 7.71775472,5.49732602 L7.71775472,5.49732602 C8.73135849,2.57460176 7.44654403,1.4603493 6.80199371,1.4603493 L6.80199371,1.4603493 C4.69881761,1.39046436 3.41415094,6.39613607 5.24611635,8.19505838 L5.24611635,8.19505838 C4.61678931,8.85961643 3.88474214,9.22944233 3.13259434,8.96451619 L3.13259434,8.96451619 C1.42891824,8.36477896 2.95878302,3.88331665 4.75483333,1.24042154 L4.75483333,1.24042154 C0.353977987,1.24042154 -0.690072327,3.87854191 0.461575472,4.98266611 L0.461575472,4.98266611 C0.717562893,5.24238343 1.11144654,5.27710887 1.34186478,5.06253461 L1.34186478,5.06253461 C1.57183962,4.84752628 1.55661635,4.45802263 1.30062893,4.1983053 L1.30062893,4.1983053 C1.16258491,4.05303723 0.978427673,3.97852223 0.799,3.97852223 L0.799,3.97852223 C0.983748428,3.35375374 1.74579874,2.69917926 3.24019182,2.5793765 L3.24019182,2.5793765 C1.22894654,5.8118806 0.804468553,9.08952776 2.81527044,9.85377675 L2.81527044,9.85377675 C3.76738994,10.2182491 4.84720755,9.67378323 5.78853774,8.68454235 L5.78853774,8.68454235 C6.05472327,8.82445692 6.42318553,8.95916268 6.74065723,8.95438793 L6.74065723,8.95438793 C7.36998428,8.94425968 8.29106604,8.6648646 9.0943522,7.26586357 L9.0943522,7.26586357 C9.76491509,6.09662918 10.1692925,4.60285664 10.1948616,3.16377667 L10.1948616,3.16377667 C10.2253082,1.79024095 9.89808176,0.700875065 9.32477044,0.251180659 L9.32477044,0.251180659 C9.12287736,0.0924564753 8.91699371,0.0121539029 8.71657862,0.0121539029 L8.71657862,0.0121539029 C8.60159119,0.0121539029 8.48808176,0.0386320484 8.3781195,0.0915883394 L8.3781195,0.0915883394 Z M6.52546226,2.69917926 C7.65641824,2.69917926 7.04763522,5.68686902 5.74774528,7.56537046 L5.74774528,7.56537046 C4.62166667,6.08635624 5.29237736,2.69917926 6.52546226,2.69917926 L6.52546226,2.69917926 Z" id="path-1"></path>
    </defs>
    <g id="Page-1" stroke="none" strokeWidth="1" fill="none" fillRule="evenodd">
        <g id="landing-page-HD-v12" transform="translate(-250.000000, -783.000000)">
            <g id="Group-28" transform="translate(250.000000, 783.000000)">
                <g id="Group-96" transform="translate(47.000000, 0.000000)">
                    <g id="Group-95">
                        <g id="Group-91" transform="translate(0.000000, 0.101283)" fill="#151D49">
                            <path d="M44.6134642,36.5617468 C44.439505,37.1901325 43.9244264,37.4559268 43.2633226,37.3102246 C42.3997346,37.1199582 41.7325711,36.360918 41.6702,35.4968334 C41.651873,35.2429036 41.6359107,34.9886845 41.6171403,34.7098682 C41.8373604,34.7350441 42.0435396,34.7557347 42.2489799,34.7826469 C42.4054987,34.8033375 42.5262503,34.8195427 42.5481245,34.8269218 C42.5490113,34.8393651 42.5519673,34.9808713 42.5598006,35.1194836 C42.5821182,35.5075404 42.9427472,35.8038641 43.340178,35.7604573 C43.547983,35.7377411 43.6708038,35.6070866 43.6811497,35.4011937 C43.6922346,35.1864748 43.6093195,35.0048897 43.451766,34.8648304 C43.3044107,34.7340313 43.1329642,34.6292762 42.9804358,34.5035412 C42.6712409,34.2496115 42.3342597,34.0178192 42.0692566,33.724968 C41.6424138,33.2529914 41.5597943,32.656148 41.575461,32.0480188 C41.5803384,31.8641186 41.600439,31.6770353 41.6431528,31.498344 C41.7977503,30.8511487 42.306917,30.50592 42.9872346,30.5729111 C43.7939201,30.6523456 44.3147629,31.1933389 44.349939,31.9816064 C44.3629453,32.270985 44.3888101,32.5597849 44.4108321,32.8772333 C44.1236591,32.8501764 43.7928855,32.8276048 43.5290648,32.7962072 C43.5280302,32.7786998 43.5275868,32.7384762 43.5265522,32.7025932 C43.5238918,32.6131752 43.5142849,32.522021 43.4932975,32.4352074 C43.4279704,32.1672428 43.0705931,31.9889855 42.820222,32.1129843 C42.7424799,32.1514716 42.6681371,32.253767 42.6499579,32.3386996 C42.6020711,32.560219 42.6891245,32.7606137 42.8568761,32.9074733 C43.0352692,33.0637378 43.2318415,33.2024948 43.4306308,33.3344515 C43.8517094,33.6138466 44.2454453,33.9194304 44.4548761,34.3880791 C44.7696874,35.092282 44.816983,35.8264357 44.6134642,36.5617468 L44.6134642,36.5617468 Z M40.539244,34.2360107 C40.5878698,35.0697105 40.6360522,35.9035551 40.6858604,36.7611287 C40.3994264,36.7203263 39.862178,36.6733022 39.5943667,36.6627399 C39.5605208,36.616584 39.4990365,36.5144334 39.4108006,36.2874158 C39.0909642,35.4645677 38.7421591,34.6525712 38.4110899,33.8337743 C38.3191591,33.606178 38.237722,33.3729389 38.1752031,33.1363718 C38.1355931,32.9854609 38.0572597,32.9445138 37.9224673,32.9680981 C37.9741969,33.7447904 38.0250396,34.5077372 38.0766214,35.2828379 C38.2090491,35.2987537 38.3416245,35.3097501 38.4718352,35.3342026 C38.5099673,35.3411477 38.5590365,35.3495397 38.5699736,35.355906 C38.5937692,35.6993984 38.6081057,36.1029369 38.6259893,36.46712 C37.9104956,36.3798723 37.2106686,36.2945056 36.5006434,36.2081261 C36.4842377,35.8485731 36.4682755,35.5000166 36.4511308,35.1290331 C36.6119358,35.141187 36.7570742,35.1521834 36.9285208,35.1652055 C36.8704358,33.9454745 36.8129421,32.7378974 36.7547094,31.5175877 C36.5977472,31.504421 36.4464013,31.491833 36.2814579,31.4782322 C36.2656434,31.1344504 36.2499767,30.7964561 36.2335711,30.4410992 C36.3178164,30.4410992 36.3872818,30.4395076 36.4567472,30.4413886 C36.8883195,30.452819 37.4094579,30.4564362 37.8408824,30.4748118 C37.8663038,30.4748118 37.885961,30.5221252 37.9035491,30.5642298 C38.3181245,31.5656246 38.7263447,32.5694791 39.1338258,33.5737676 C39.1675239,33.6572534 39.1880679,33.7456586 39.2137849,33.8321828 C39.2664013,34.0087037 39.2661057,34.0087037 39.4600176,34.0058099 C39.4045931,33.2241982 39.3493164,32.4421525 39.2931528,31.6478081 C39.1664893,31.6402843 38.9483384,31.6334839 38.823005,31.617134 C38.8199013,31.6165552 38.8153195,31.5738719 38.8133981,31.544934 C38.7896025,31.2070844 38.7749704,30.8686561 38.7572346,30.5125757 C39.435483,30.5378963 40.0951088,30.5626382 40.7684799,30.5878141 C40.7921277,30.9777519 40.8145931,31.3497481 40.8375019,31.7289788 L40.3920365,31.7289788 C40.4409579,32.5623893 40.4903226,33.3992723 40.539244,34.2360107 L40.539244,34.2360107 Z M33.1265459,29.2641962 L33.1265459,28.4186319 L33.661134,28.4186319 C33.6357126,27.3982828 33.6108824,26.4003605 33.5857566,25.3967954 C33.4007126,25.4140134 33.232961,25.4296399 33.0473258,25.4470026 L33.0473258,24.6584458 C33.2498101,24.6300867 33.4661874,24.6010042 33.6821214,24.5690278 C34.3321403,24.4729541 34.9799421,24.3621221 35.6320302,24.2819642 C36.6233164,24.1602805 37.324178,24.5707641 37.6626371,25.4872262 C37.9781874,26.3413273 37.9839516,27.2078716 37.6233226,28.053436 C37.2931403,28.8275239 36.6794799,29.2416247 35.8189956,29.2600003 C34.9305774,29.2790992 34.0412723,29.2641962 33.1265459,29.2641962 L33.1265459,29.2641962 Z M35.4880742,34.6823772 C35.0207346,35.8906777 33.8429264,36.3402274 32.6568415,35.7597339 C31.9861308,35.4314338 31.5412566,34.8983984 31.2765491,34.2276187 C30.9179893,33.3189697 30.8797094,32.400916 31.3025616,31.4990675 C31.7931057,30.4529637 32.9527346,29.9760677 33.9947157,30.3842363 C34.6796151,30.6523456 35.1094138,31.168163 35.3946654,31.8095708 C35.6182849,32.3119321 35.7162755,32.8409162 35.7111025,33.4199629 C35.7193792,33.8331956 35.6491748,34.2658167 35.4880742,34.6823772 L35.4880742,34.6823772 Z M30.3690648,35.6694477 C29.6421906,35.6338542 28.9113258,35.5981159 28.1642031,35.5615095 L28.1642031,34.5918017 L28.6531214,34.5918017 C28.632134,33.4658294 28.6115899,32.352011 28.5906025,31.2104123 L28.0959201,31.2104123 L28.0959201,30.261395 C28.1179421,30.2587906 28.1469107,30.2521349 28.1758792,30.2525487 C28.8180648,30.2603822 29.6188384,30.2715233 30.2611717,30.2757193 C30.2611717,30.2757193 30.2673792,30.3039337 30.2635365,30.4261962 C30.2555553,30.6945949 30.2611717,30.9634276 30.2611717,31.2428227 L29.7848164,31.2428227 C29.8108289,32.3812383 29.8365459,33.5086574 29.8622629,34.6446133 C30.0345962,34.6557544 30.1920019,34.6658826 30.3690648,34.6774578 L30.3690648,35.6694477 Z M27.4881717,29.1617562 C27.4222535,29.1617562 27.3524925,29.162769 27.2828792,29.1616115 C26.9695459,29.1561133 26.6562126,29.1529302 26.343027,29.143236 C26.1163038,29.1361462 25.9460396,29.0392044 25.8269138,28.8428609 C25.6569453,28.5633212 25.4611119,28.2985397 25.2976465,28.0156721 C25.1726088,27.7992169 24.9980585,27.7128374 24.7540428,27.7281744 C24.6830994,27.7326598 24.6117126,27.7288979 24.5314579,27.7288979 L24.5314579,28.4786779 L25.0033792,28.4786779 L25.0033792,29.1333971 L22.561005,29.1333971 L22.561005,28.4844655 L23.1238226,28.4844655 L23.1238226,25.8953948 L22.5791843,25.8953948 L22.5791843,25.2646941 C22.6093352,25.2591959 22.6383038,25.249357 22.6674201,25.249357 C23.6232346,25.2467526 24.5791969,25.2399522 25.5350113,25.2471867 C25.7587786,25.2487782 25.9877189,25.276848 26.2045396,25.330383 C26.6396591,25.4378872 26.9730931,25.6759011 27.0667975,26.1316725 C27.1668572,26.6173945 26.9549138,26.9879439 26.5724107,27.2828207 C26.5322094,27.3136395 26.488461,27.3405517 26.445156,27.3673193 C26.3156843,27.4477665 26.3153887,27.4473325 26.3334201,27.6158955 C26.5540836,27.6432418 26.6952314,27.7772241 26.7913006,27.9663331 C26.8072629,27.9977306 26.8298761,28.025945 26.8443604,28.0577767 C26.9668855,28.3234263 27.1399579,28.5181781 27.4881717,28.4698519 L27.4881717,29.1617562 Z M27.198634,33.181949 C26.9745711,33.6083484 26.607439,33.8221992 26.1170428,33.8301571 C25.8195239,33.8347872 25.5218572,33.8310252 25.2102975,33.8310252 L25.2102975,34.5096182 L25.7042409,34.5096182 L25.7042409,35.466738 L23.4746969,35.466738 L23.4746969,34.5055669 L23.9749956,34.5055669 L23.9749956,31.1581794 L23.4869642,31.1581794 L23.4869642,30.2161073 C23.5574642,30.2161073 23.6216088,30.2158179 23.6854579,30.216252 C24.4306591,30.2213161 25.1760082,30.2341934 25.9210616,30.2291293 C26.5670899,30.2249333 27.0134421,30.5127204 27.2613006,31.0801919 C27.5693132,31.785697 27.5605931,32.492649 27.198634,33.181949 L27.198634,33.181949 Z M24.3638541,56.7376596 L24.3109421,56.7376596 L23.4844516,56.0978434 L22.6684547,56.7376596 L22.6049013,56.7376596 L22.9015333,55.6815723 L22.0892314,55.0280106 L23.1347597,55.0141204 L23.4738101,53.940815 L23.813895,55.0487012 L24.8442,55.0487012 L24.0036686,55.6953177 L24.3638541,56.7376596 Z M20.7578604,32.0373118 C20.5881874,32.7428169 20.4177755,33.4477432 20.2495805,34.152959 C20.1665176,34.5009368 20.1638572,34.5107757 20.1638572,34.5107757 C19.9488101,34.5151164 19.3769767,34.5116438 19.1472975,34.5116438 C18.9817629,33.6899532 18.8159327,32.8668156 18.6487723,32.0370224 L18.4535302,32.0370224 C18.4151025,32.8791142 18.3768226,33.7167207 18.3379516,34.5670598 L18.7044925,34.5670598 L18.7044925,35.5458831 C18.0116119,35.5774253 17.3358761,35.6083889 16.6543761,35.6396417 L16.6543761,34.6490987 C16.8236057,34.6370894 16.9756906,34.6262378 17.1466937,34.6139392 C17.2603509,33.4834815 17.3738604,32.3549048 17.4889956,31.210991 L17.0073195,31.210991 L17.0073195,30.2428748 L18.9680176,30.2428748 C19.1734579,31.2693008 19.3802283,32.3041189 19.5898069,33.3518142 L19.7698258,33.3518142 C19.911417,32.7555495 20.0527126,32.1575486 20.195634,31.5599817 C20.2934767,31.1506556 20.3945711,30.7421977 20.4919704,30.3327269 C20.5082283,30.2647229 20.5228604,30.2142263 20.6153824,30.2146576 C21.2170711,30.2176989 21.8186119,30.2161073 22.4204484,30.2163967 C22.4349327,30.2163967 22.4495648,30.222763 22.4755774,30.2289846 L22.4755774,31.1506556 L21.9680365,31.1506556 C22.0417881,32.2738788 22.1142094,33.3798839 22.1875176,34.4981877 L22.6672723,34.4981877 L22.6672723,35.4684743 L20.5949862,35.4684743 L20.5949862,34.5300194 C20.7283006,34.5216274 20.8533384,34.5138141 20.9706906,34.5062903 L20.9706906,32.0373118 L20.7578604,32.0373118 Z M16.6984201,25.887871 C17.070134,25.4130006 17.5892031,25.1720929 18.1826151,25.0858581 C19.089656,24.9537567 19.9588604,25.0797811 20.7520962,25.5410507 C22.166678,26.3637541 22.1260333,28.0317326 20.6815962,28.8091483 C20.1849925,29.0765342 19.631634,29.2066099 18.8107597,29.2100824 C18.1852755,29.2045842 17.4647566,29.0059258 16.8955836,28.434403 C16.2047723,27.7407624 16.1171277,26.6307059 16.6984201,25.887871 L16.6984201,25.887871 Z M16.1160931,35.6697371 C15.4672566,35.7134333 14.8394075,35.7556826 14.2183572,35.7974978 L14.2183572,34.7807659 C14.3596528,34.7675992 14.4759704,34.7567475 14.6126843,34.7440149 C14.5806119,34.5013709 14.5494264,34.2658167 14.5154327,34.008559 C14.1227314,34.0315646 13.7356465,34.0539915 13.3361465,34.0772865 C13.283678,34.3251393 13.232244,34.5685067 13.1781497,34.8240281 L13.5296151,34.8240281 C13.5296151,35.0412067 13.5331623,35.249704 13.5281371,35.4577673 C13.5250333,35.5862514 13.5257723,35.7470012 13.5336057,35.8459687 C13.5336057,35.8459687 13.2353478,35.8773663 13.1033635,35.8895202 C12.623461,35.9337951 12.1432629,35.9758997 11.6411906,36.0208981 C11.657744,35.6635155 11.6738541,35.3162611 11.6895208,34.9779775 C11.7137597,34.9645214 11.7220365,34.9564188 11.7309044,34.955406 C12.0170428,34.9251659 12.016156,34.9251659 12.0970019,34.6506902 C12.5126119,33.237799 12.9286654,31.8251972 13.3448667,30.4124507 C13.3559516,30.3746868 13.3705836,30.337791 13.3889107,30.2848347 L14.7882692,30.2848347 C14.8689673,30.6371532 14.9508478,30.9975743 15.0340585,31.357706 C15.2805868,32.4259473 15.5287409,33.4938991 15.7729044,34.5627191 C15.7933006,34.6524265 15.8274421,34.6935183 15.9257283,34.6807856 C15.9900208,34.6723936 16.0563824,34.679194 16.1160931,34.679194 L16.1160931,35.6697371 Z M11.4123981,29.2006776 C10.9861465,29.2144231 10.3751465,29.2241173 9.94859937,29.2362712 C9.94859937,29.2362712 9.93411509,29.1960476 9.92110881,29.1119831 C9.70561824,27.7220975 9.48628491,26.3329353 9.27301132,24.9427603 C9.25409308,24.8189063 9.21004906,24.7530726 9.0758478,24.7522045 C9.02071887,24.7519151 8.96573774,24.731948 8.88696101,24.7163215 C8.90469686,24.3875874 8.92184151,24.0704284 8.93957736,23.7427071 C9.65241069,23.8863836 10.3488384,24.0267323 11.0331465,24.1646212 L11.0331465,25.0483835 C10.8247503,25.0213266 10.6400019,24.9973082 10.439439,24.9712641 C10.5437849,25.8810706 10.6473918,26.7834979 10.7532157,27.7061817 C10.8024327,27.7115352 10.8757409,27.7193484 10.9180113,27.7238338 C11.2173038,26.577605 11.5131969,25.4458451 11.8127849,24.2990376 C12.1289264,24.3485213 12.4270365,24.3922175 12.7229296,24.4463313 C12.7560365,24.4522635 12.7935774,24.5143353 12.8021497,24.5557164 C12.997983,25.5121128 13.191156,26.4686539 13.3810774,27.4260631 C13.4063509,27.5531004 13.4104893,27.6841889 13.4258604,27.8278654 C13.5041937,27.8311932 13.5788321,27.8345211 13.6287881,27.8365467 C13.804373,27.0320741 13.9767063,26.2423598 14.1530302,25.43427 C13.9540931,25.4103962 13.7592943,25.3871012 13.5711465,25.364385 L13.5711465,24.5752495 C14.336005,24.6697316 15.0822409,24.761754 15.8268509,24.8537764 L15.8268509,25.574908 C15.6972314,25.5692651 15.5806182,25.5643457 15.4489296,25.5585581 C15.3308384,25.9461808 15.2111214,26.3322119 15.0955428,26.7194005 C14.8648289,27.4921861 14.6348541,28.2652612 14.4090176,29.0394937 C14.3809358,29.1354228 14.3581748,29.175357 14.3581748,29.175357 C13.9419736,29.1718845 13.2850082,29.1766592 12.8688069,29.1867875 C12.8263887,29.1853406 12.8238761,29.1578496 12.8028887,29.0449919 C12.6426748,28.1796051 12.4752189,27.3155205 12.3051025,26.4252471 C12.2787943,26.4226427 12.2090333,26.4154082 12.1231623,26.4065822 C12.102766,26.5304362 12.0919767,26.6487921 12.0628604,26.7628073 C11.8618541,27.5487597 11.6581874,28.3339886 11.4497912,29.1179153 C11.4401843,29.1537983 11.4237786,29.1985073 11.4123981,29.2006776 L11.4123981,29.2006776 Z M11.2907597,31.2834804 C11.2880994,31.3193633 11.2793792,31.3948912 11.2693289,31.3954699 C11.1948384,31.4003894 10.9452063,31.3957593 10.813961,31.4022703 C10.7498164,32.6144774 10.6859673,33.8210417 10.6213792,35.0423642 C10.7852881,35.0307891 10.9311654,35.0205161 11.100395,35.0085069 C11.0829547,35.3692174 11.0661057,35.7160377 11.0483698,36.0793526 C10.3509075,36.1593658 9.65935723,36.2388002 8.94297673,36.3208391 C8.9465239,36.2415493 8.94933208,36.1699281 8.95332264,36.0983069 C8.96721572,35.8383002 8.98480377,35.5784382 8.99426289,35.3184315 C8.99751447,35.2321966 8.99914025,35.1893686 8.99914025,35.1893686 C9.11590126,35.1853173 9.35134465,35.1657842 9.47786038,35.151894 C9.50076918,34.7422786 9.52338239,34.340187 9.54643899,33.9272436 C9.07643899,33.9686248 8.62181006,34.0068228 8.16821572,34.0516765 C8.13126604,34.0554384 8.07125975,34.1024624 8.06904277,34.1325578 C8.0417,34.5117885 8.02292956,34.8917427 8.00253333,35.2716968 C8.00208994,35.2802335 8.01051447,35.2892042 8.0182,35.3052647 C8.15668742,35.2922427 8.29813082,35.279076 8.46085723,35.2635942 C8.44903333,35.4916246 8.43839182,35.7089479 8.42612453,35.926416 C8.41932579,36.0463634 8.40380692,36.1663109 8.40321572,36.2862583 C8.40306792,36.3680078 8.40351132,36.3897112 8.40099874,36.3962222 C7.77536667,36.4807208 7.03903333,36.5834502 6.41369686,36.6698297 C6.39980377,36.6718554 6.3847283,36.6665018 6.35250818,36.6621612 C6.37748616,36.2927693 6.40128176,35.8791026 6.4320239,35.5117364 C6.43409308,35.4856923 6.48079748,35.4867051 6.52351132,35.4807729 C6.59947987,35.4680402 6.75747673,35.4540053 6.88724403,35.4359192 C6.96912453,34.1539718 7.05085723,32.8773779 7.13377233,31.5821192 C6.98567799,31.5890642 6.84512138,31.5957199 6.68461195,31.6032438 C6.69111509,31.4999356 6.69732264,31.4070451 6.70308679,31.3142992 C6.71786667,31.0694849 6.73294214,30.8248153 6.74698302,30.5798562 C6.75082579,30.5112735 6.75481635,30.4544106 6.85339811,30.4520956 C7.46986667,30.4382054 8.08618742,30.4196852 8.70280377,30.4033353 C8.7116717,30.4030459 8.72083522,30.4102804 8.74906478,30.4220002 C8.72985094,30.7679523 8.71019371,31.1205602 8.68964969,31.4903861 C8.53593899,31.502106 8.38961824,31.5133917 8.22718742,31.525835 C8.20132264,31.949196 8.17560566,32.3709653 8.14900189,32.807493 C8.64191069,32.7755167 9.11619686,32.7449872 9.61339182,32.7128662 C9.63748302,32.2958716 9.66113082,31.8845198 9.68536981,31.4631845 L9.22290755,31.4631845 C9.24241698,31.1065254 9.26163082,30.7553644 9.28187925,30.3833681 C9.96677862,30.3658607 10.6416277,30.3486427 11.3396811,30.3308459 C11.3243101,30.6647889 11.3135208,30.9745687 11.2907597,31.2834804 L11.2907597,31.2834804 Z M5.87245786,32.5832246 C5.5626717,32.6094133 5.27209937,32.6340105 4.95684465,32.6604887 C4.96467799,32.5529845 4.97132893,32.4560426 4.97871887,32.3591008 C5.00281006,32.0468612 4.87806792,31.9031848 4.55527547,31.8806132 C4.06635723,31.8469006 3.73129748,32.0755097 3.5063478,32.4793376 C3.30105535,32.8474273 3.22671258,33.2516892 3.19138868,33.6620281 C3.15591698,34.0767077 3.14778805,34.4925448 3.24858679,34.9020156 C3.26765283,34.9797138 3.29026604,35.0574119 3.32041698,35.1313482 C3.53369057,35.656281 4.00753333,35.8273038 4.52453333,35.5675865 C4.71371572,35.4725256 4.81820943,35.3240743 4.82737296,35.1139854 C4.83239811,34.9949061 4.84170943,34.8761162 4.84954277,34.7489343 C4.93127547,34.7363463 5.00118428,34.7233243 5.07183208,34.7152217 C5.30003333,34.6891776 5.52853019,34.6647251 5.77520629,34.6376682 C5.77018113,34.7380826 5.76707736,34.8214236 5.76146101,34.9044753 C5.74727233,35.1141301 5.71992956,35.3239297 5.71963396,35.5337292 C5.71889497,36.0062845 5.50798616,36.3719144 5.13745472,36.6572417 C4.77224403,36.9386625 4.35500818,37.1161963 3.89771887,37.1966435 C3.34096101,37.2944535 2.92608994,37.0672913 2.61881635,36.631053 C2.29203333,36.1676131 2.16788239,35.6357351 2.12309937,35.087652 C2.03929748,34.0662901 2.16049245,33.0682232 2.55230692,32.1115374 C2.76986667,31.5800935 3.06738553,31.0971206 3.54625346,30.7448021 C4.1174956,30.3240455 5.04389811,30.340106 5.60272516,30.7775018 C5.82885723,30.9547463 5.9497566,31.1878408 5.9389673,31.4709978 C5.92492642,31.8359042 5.89610566,32.1999425 5.87245786,32.5832246 L5.87245786,32.5832246 Z M11.0273824,20.9561355 L11.5904956,19.9771676 L11.6837566,21.1303414 L12.691005,21.3433241 L11.729722,21.8015552 L11.8568289,22.8951171 L11.8050994,22.8841207 L11.1352755,22.0877507 L10.1997094,22.5442455 L10.1374862,22.5310788 L10.6555208,21.5602134 L10.0025459,20.7532811 L11.0273824,20.9561355 Z M18.5695522,21.6345837 C18.221634,21.6345837 17.980722,22.0586681 17.980722,22.0586681 L17.2381811,21.5703417 C17.2381811,21.5703417 17.6993132,20.8859612 18.6517283,20.8859612 C19.2507566,20.8859612 19.911417,21.1835871 19.911417,21.8589969 C19.911417,22.7919536 18.3342566,23.0007403 18.3085396,23.4936968 L19.107244,23.4936968 L19.107244,23.1164917 L19.9984704,23.1164917 L19.9984704,24.1757623 L17.2381811,24.1757623 C17.2126119,24.0513294 17.1972409,23.8803067 17.1972409,23.7736706 C17.1972409,22.6011084 18.9004736,22.441082 18.9025428,21.9029824 C18.9032818,21.6845015 18.759178,21.6345837 18.5695522,21.6345837 L18.5695522,21.6345837 Z M21.6725868,20.8858165 C22.7119075,20.8858165 23.0500711,21.6101312 23.0500711,22.5209505 C23.0500711,23.4316251 22.842266,24.2292973 21.6109547,24.2292973 C20.4127503,24.2292973 20.2334704,23.4316251 20.2334704,22.5209505 C20.2334704,21.6101312 20.6331182,20.8858165 21.6725868,20.8858165 L21.6725868,20.8858165 Z M24.232461,20.9390622 L25.0735836,20.9390622 L25.0735836,23.4938415 L25.8155333,23.4938415 L25.8507094,24.1158609 L23.290244,24.1158609 L23.3319233,23.4938415 L24.1298887,23.4938415 L24.1298887,22.1255146 C24.1298887,22.0055671 24.1349138,21.881279 24.1349138,21.881279 L24.1247157,21.881279 L24.1097881,21.9055868 L23.7875868,22.3214239 L23.2020082,21.7775368 L24.232461,20.9390622 Z M27.2327755,20.8858165 C28.0060585,20.8858165 28.7633792,21.374577 28.7633792,22.3698949 C28.7633792,23.2850548 28.1739579,24.2381233 26.8727377,24.2381233 C26.3969736,24.2381233 26.0792063,24.1003791 26.0792063,24.1003791 L26.3622409,23.3876395 C26.3622409,23.3876395 26.6083258,23.4805301 26.8845616,23.4805301 C27.3301748,23.4805301 27.5811371,23.2406352 27.6936119,22.9208718 L27.683266,22.9208718 C27.5811371,22.9829435 27.2759327,23.088422 27.0506874,23.088422 C26.3028258,23.088422 25.8419893,22.5509012 25.8419893,22.0266918 C25.8419893,21.4797662 26.3187881,20.8858165 27.2327755,20.8858165 L27.2327755,20.8858165 Z M30.7611748,25.6607087 C30.7604358,25.6864634 30.7622094,25.7297255 30.7622094,25.7297255 C30.6204704,25.7475223 30.3705428,25.7550462 30.2319075,25.764885 L30.2319075,28.362203 L31.2936937,28.362203 L31.2936937,27.7058923 L32.3760239,27.7058923 L32.3760239,29.2186191 C31.0396277,29.2019798 29.6863824,29.1850512 28.3173226,29.1678332 L28.3173226,28.4762182 L28.8491025,28.4762182 L28.8491025,25.8564734 L28.2880585,25.8564734 L28.2880585,25.1185579 C29.1019862,25.0540264 29.9173918,24.9892056 30.7660522,24.9217804 C30.7660522,25.1733951 30.7693038,25.4171966 30.7611748,25.6607087 L30.7611748,25.6607087 Z M34.9959044,21.1303414 L35.0891654,19.9771676 L35.6521308,20.9561355 L36.6771151,20.7532811 L36.0241403,21.5602134 L36.5421748,22.5310788 L36.4799516,22.5442455 L35.5443855,22.0877507 L34.8745616,22.8841207 L34.8228321,22.8951171 L34.949939,21.8015552 L33.988656,21.3433241 L34.9959044,21.1303414 Z M45.1347503,26.517993 C43.9520648,23.7910333 42.2593258,21.342456 40.1036811,19.2393967 C37.9480365,17.1369162 35.437527,15.4863005 32.6416182,14.3326925 C31.9731245,14.0570594 31.2945805,13.8139813 30.6079075,13.601288 C30.8978887,14.1405451 31.1218038,14.7088847 31.2636906,15.2942977 L31.2636906,15.2945871 C31.2762535,15.3436368 31.3599075,15.670924 31.3773478,15.8078001 C31.3885805,15.8938903 31.4222786,16.203236 31.4377975,16.4052223 C32.1527,16.8939829 32.5122943,17.2936148 32.5714138,17.3619081 C32.6093981,17.3993826 32.6915742,17.4938648 32.7032503,17.6243745 C32.7100491,17.6993236 32.7118226,17.7327468 32.7041371,17.7898991 C32.8138038,17.8525496 32.9514044,17.9322734 33.0054987,17.9677223 C33.0300333,17.9840722 33.0519075,17.9973836 33.0723038,18.0098269 C33.1303887,18.0452758 33.1902472,18.0818822 33.2472975,18.1407707 L33.2548352,18.1480052 C33.3059736,18.1964761 33.425395,18.3097678 33.4215522,18.5658679 C33.4203698,18.6570222 33.356373,18.8277556 33.2753792,18.9205015 L33.2753792,19.100495 C33.4624925,19.3079795 33.5501371,19.5300776 33.5353572,19.7618699 C33.5207252,19.9899002 33.4097283,20.1701831 33.3104075,20.2882496 C33.188917,20.1026132 32.9765302,19.9787592 32.7351748,19.9787592 L14.1423887,19.9787592 C13.8822629,19.9787592 13.6550962,20.1225803 13.539961,20.3326692 C12.8968887,19.2777394 13.4577849,18.7080975 13.4835019,18.683211 C13.4999075,18.6671505 13.518678,18.6536944 13.5390742,18.6434214 C13.6686937,18.5781665 13.8142755,18.4954042 13.982766,18.3993305 C14.0958321,18.3349438 14.217766,18.2656376 14.3498981,18.1927142 C14.3055585,18.121527 14.2692,18.0384754 14.2524987,17.942691 C14.2103761,17.7039537 14.297873,17.4627566 14.5123289,17.2256108 C14.5848981,17.1455976 14.8318698,16.8893528 15.2958101,16.5596058 C15.3763604,16.0501547 15.5761843,15.1253006 16.0563824,14.0929423 C16.1251088,13.9453592 16.2027031,13.7919885 16.2866528,13.6360134 C15.6388509,13.8401701 14.9981434,14.0709495 14.3665994,14.3312456 C11.5714296,15.4842748 9.06136352,17.1340224 6.90586667,19.2356348 C4.75051761,21.3371025 3.05763082,23.7840883 1.87435409,26.510035 C0.649102516,29.332779 0.0270176101,32.3304523 0.0249484277,35.419714 L0.0249484277,36.022345 L23.5035176,58.9334647 L46.9800176,36.0344989 L46.9800176,35.4318679 C46.9800176,32.3415934 46.3592629,29.3420391 45.1347503,26.517993 L45.1347503,26.517993 Z" id="Fill-1"></path>
                            <path d="M21.6109843,21.6135314 C21.3784969,21.6135314 21.2513899,21.9920387 21.2513899,22.5208782 C21.2513899,23.054203 21.3124308,23.4806024 21.6109843,23.4806024 C21.9643711,23.4806024 22.0391572,23.054203 22.0391572,22.5208782 C22.0391572,21.9253369 21.9643711,21.6135314 21.6109843,21.6135314" id="Fill-3"></path>
                            <path d="M27.2276173,21.6135314 C27.007545,21.6135314 26.8727525,21.7522885 26.8727525,21.9701906 C26.8727525,22.1830286 26.9921739,22.4054161 27.4326142,22.4054161 C27.6217965,22.4054161 27.7165355,22.3298883 27.7165355,22.1118414 C27.7165355,21.8147943 27.4938028,21.6135314 27.2276173,21.6135314" id="Fill-5"></path>
                            <path d="M25.2004393,31.2632094 L25.2004393,32.7649399 C25.5554519,32.7461303 25.9333733,32.8770741 26.1872915,32.5221512 C26.3519393,32.2918058 26.3442538,31.7539956 26.1739896,31.5151135 C25.921106,31.1601906 25.4783009,31.2685629 25.2004393,31.2632094" id="Fill-7"></path>
                            <path d="M13.9416189,31.3492562 C13.8103736,31.9484146 13.6826755,32.5325254 13.550839,33.1337095 C13.8301786,33.1205428 14.0934082,33.1079548 14.3692006,33.0949328 C14.2890937,32.4989575 14.2116472,31.9229493 14.1344962,31.3492562 L13.9416189,31.3492562 Z" id="Fill-9"></path>
                            <path d="M25.4552,26.0490259 C25.1559075,25.9309595 24.844939,25.9748003 24.5314579,25.9778388 L24.5314579,27.0443438 C24.7633541,27.0443438 24.9786969,27.0527357 25.193005,27.0405818 C25.2867094,27.0350837 25.3844044,26.9996348 25.4690931,26.9568067 C25.6672912,26.8569711 25.7447377,26.6817523 25.7414862,26.4722422 C25.7383824,26.2744519 25.6467472,26.1246985 25.4552,26.0490259" id="Fill-11"></path>
                            <path d="M35.6624028,25.3107342 C35.4124752,25.2844008 35.1563399,25.3126152 34.8895632,25.3168112 C34.9203053,26.3273214 34.9503085,27.3005017 34.9811984,28.3095651 C35.2565475,28.2799037 35.5166733,28.2650007 35.7713305,28.2208705 C36.0469752,28.1734124 36.2503462,28.0071644 36.3620821,27.7606138 C36.6661041,27.0907022 36.6604877,26.4199225 36.3143431,25.7654927 C36.1805852,25.5125758 35.9541575,25.341553 35.6624028,25.3107342" id="Fill-13"></path>
                            <path d="M32.490361,31.9838346 C32.3025088,32.2781327 32.2395465,32.6044071 32.2391031,32.9455845 C32.2454585,33.5574756 32.4670088,34.1015075 32.8469994,34.4381995 C33.308427,34.8468021 33.9101157,34.766789 34.2428107,34.2531419 C34.4028767,34.0057231 34.4786975,33.7315369 34.5014585,33.4440392 C34.5469805,32.8707801 34.4392352,32.335719 34.0540717,31.8796583 C33.5989994,31.3409799 32.868578,31.3910424 32.490361,31.9838346" id="Fill-15"></path>
                            <path d="M19.0355469,28.3298732 C19.7701066,28.3274052 20.3490343,27.7920548 20.3502184,27.11433 C20.3513991,26.4445631 19.7469022,25.9102255 18.9864777,25.909066 C18.2696538,25.9079104 17.7250154,26.4114293 17.7261959,27.074251 C17.7272324,27.7816371 18.3017261,28.3323247 19.0355469,28.3298732" id="Fill-17"></path>
                            <path d="M30.4146755,14.9065304 L30.5623264,15.0111407 C30.5623264,15.0111407 30.4056597,14.4260171 30.2846126,14.1991443 L30.1329711,14.1204333 C30.1329711,14.1204333 30.2890465,14.4653726 30.4146755,14.9065304" id="Fill-19"></path>
                            <path d="M29.5345192,14.4343078 L29.7421764,14.4960902 C29.7421764,14.4960902 29.6632519,14.0683885 29.5124972,13.739365 L29.2878431,13.6403975 C29.2878431,13.6403975 29.456777,14.0246924 29.5345192,14.4343078" id="Fill-21"></path>
                            <path d="M28.5404987,14.0456 L28.8684642,14.1465931 C28.8684642,14.1465931 28.6837157,13.4478884 28.5954799,13.3084079 L28.3347629,13.2166749 C28.3347629,13.2166749 28.5263101,13.7841464 28.5404987,14.0456" id="Fill-23"></path>
                            <path d="M27.4067494,13.714681 L27.7156487,13.7929579 C27.7156487,13.7929579 27.6079035,13.1771602 27.5273531,12.941606 L27.2184538,12.8497283 C27.2184538,12.8497283 27.3932997,13.2953714 27.4067494,13.714681" id="Fill-25"></path>
                            <path d="M26.4935453,13.5309979 C26.4935453,13.5309979 26.4400421,12.9547004 26.3591962,12.679646 L25.9431428,12.600935 C25.9431428,12.600935 26.0501491,13.2560882 26.036995,13.4654537 L26.4935453,13.5309979 Z" id="Fill-27"></path>
                            <path d="M25.1238057,13.3478791 C25.1238057,13.3478791 25.0902553,12.7320814 25.0632082,12.5095492 L24.5865572,12.463538 C24.5865572,12.463538 24.6538057,13.0464913 24.6400604,13.3347124 L25.1238057,13.3478791 Z" id="Fill-29"></path>
                            <polygon id="Fill-31" points="23.2437761 13.3084513 23.7606283 13.2952846 23.7338767 12.4570993 23.2437761 12.4570993"></polygon>
                            <path d="M21.7397318,13.37401 L21.9141343,13.3478213 C21.9141343,13.3478213 21.9345305,12.8498006 21.9614299,12.679646 L22.2364833,12.6340688 L22.2568796,12.5158577 L21.8066846,12.5751803 C21.8066846,12.5751803 21.7128324,13.2821323 21.7397318,13.37401" id="Fill-33"></path>
                            <path d="M20.4236874,13.5771972 L20.4907881,12.928555 L20.7055396,12.8696665 L20.732439,12.7452336 L20.4102377,12.8371114 C20.3562912,13.0464768 20.3160899,13.5965856 20.3160899,13.5965856 L20.4236874,13.5771972 Z" id="Fill-35"></path>
                            <path d="M19.0135396,13.8322411 L19.1209893,13.8059076 L19.3156403,13.0334114 L19.2013918,13.0727669 C19.0807881,13.3608433 19.0135396,13.8322411 19.0135396,13.8322411" id="Fill-37"></path>
                            <path d="M23.9369374,10.7044631 C23.9301387,10.6561369 23.9230443,10.6094022 23.9155066,10.5645486 C23.917428,10.5755449 23.9251135,10.6243052 23.9369374,10.7044631" id="Fill-39"></path>
                            <path d="M26.5086947,11.9675285 C26.4877072,11.9102316 26.4736664,11.8729017 26.4686412,11.8598797 C26.4820909,11.8944604 26.4955406,11.9304881 26.5086947,11.9675285" id="Fill-41"></path>
                            <path d="M26.4685673,11.8598652 C26.4672371,11.8565374 26.4664981,11.8546564 26.4664981,11.8546564 C26.4672371,11.8563927 26.4678283,11.858129 26.4685673,11.8598652" id="Fill-43"></path>
                            <path d="M21.053783,10.2172653 C17.3871918,11.791051 16.9523679,15.0294873 16.9024119,15.8971892 C16.5955818,16.0382613 16.3215629,16.1812143 16.0790252,16.3208395 C16.425022,13.5293485 18.4170535,11.1526817 21.053783,10.2172653 M21.3074057,10.1327667 C18.6913679,11.3035927 18.2547704,14.4051529 18.1822013,15.3961301 C17.8756667,15.4971232 17.5910063,15.6036146 17.3267421,15.7124209 C17.7578711,12.0967795 20.3133113,10.5869465 21.2268553,10.1580873 C21.2536069,10.1492613 21.2805063,10.1413034 21.3074057,10.1327667 M19.4027233,15.0535058 C19.0966321,15.125561 18.8065031,15.2034039 18.5323365,15.2857321 C18.8067987,12.0400613 20.281978,10.6890971 21.4135252,10.128426 C19.6000346,11.3153125 19.4169119,14.2127161 19.4027233,15.0535058 M33.0469119,19.18945 C33.0469119,19.18945 28.3912516,15.9411747 18.6510189,17.3381501 C18.6510189,17.3381501 26.6365849,15.4868503 33.0469119,18.8054445 C33.0469119,18.8054445 30.504478,16.4303693 23.6647956,16.4999649 C18.874195,16.5488699 16.4202925,17.4029709 14.9983208,18.1025438 L14.9983208,17.5825304 C17.4693679,16.0805106 20.4058333,15.2073105 25.0969654,15.4522695 C29.7879497,15.6966498 32.4379811,17.8969403 32.4379811,17.8969403 C28.507717,13.9896052 20.1192516,15.2073105 20.1192516,15.2073105 C28.7091667,13.8321832 32.402066,17.5130795 32.402066,17.5130795 C32.402066,17.5130795 31.8569843,16.8644373 30.6463648,16.177163 C30.5672925,15.4826543 30.2266164,14.6048242 30.2266164,14.6048242 C30.3982107,15.1695466 30.4842296,15.8504545 30.5120157,16.1025033 C30.2653396,15.9673635 29.9927987,15.8317896 29.6936541,15.6999776 C29.5363962,14.6747091 29.1522673,13.9765832 29.1522673,13.9765832 C29.4055943,14.5120783 29.5261981,15.3226279 29.5661038,15.6447063 C29.2319308,15.5021873 28.8653899,15.3656006 28.4661855,15.2400103 C28.3443994,14.1871061 27.7829119,12.8765103 27.7829119,12.8765103 C28.126544,13.8404305 28.2808459,14.8376293 28.3288805,15.197761 C27.9796321,15.0921378 27.6061447,14.99563 27.2069403,14.9117102 C27.1080629,13.6877833 26.650478,12.3564968 26.508739,11.967572 C26.8192642,12.8439552 27.0096289,14.3773726 27.0662358,14.8832064 C26.6584591,14.8017464 26.225261,14.733453 25.7653113,14.6823777 C25.7174245,12.8591475 25.2310189,11.4352599 25.2310189,11.4352599 C25.5348931,12.574833 25.5947516,14.2490332 25.6050975,14.6655937 C25.1829843,14.6229104 24.7389969,14.5948406 24.2726918,14.5839889 C24.2623459,13.0041262 24.0128616,11.21403 23.9368931,10.7044342 C24.1092264,11.9204032 24.0987327,14.1645346 24.0951855,14.5809504 C24.0470031,14.5803717 23.9994119,14.5793589 23.950934,14.5790695 C23.5934088,14.5770438 23.2477075,14.5832655 22.913239,14.5964322 C22.9181164,13.7617195 22.9482673,10.3176796 22.9482673,10.3176796 C22.7939654,11.671827 22.6862201,13.9911968 22.6593208,14.6078627 C22.2206541,14.6301448 21.8019403,14.6648703 21.4031792,14.7103027 C21.3276541,12.2615807 21.9813679,10.24765 21.9813679,10.24765 C21.2649874,11.5540499 21.1446792,14.1021735 21.1254654,14.7437259 C20.6257579,14.8081127 20.1587138,14.888994 19.7221164,14.9821739 C19.713544,11.7810674 21.0013145,10.4824808 21.6361101,10.0372717 C22.7311509,9.74745903 23.9181226,9.7018819 25.1327327,9.96825494 C29.752478,10.9809355 31.0411352,15.3473698 31.0411352,15.3473698 C30.1144371,11.5219289 25.6726415,8.35467964 20.7915881,10.0511619 L20.7915881,9.81184578 C20.7915881,9.81184578 21.7440031,9.17231899 23.6183868,9.21225324 C25.4926226,9.2520428 26.1374686,9.74196084 26.270783,9.8413624 L26.270783,10.011517 C26.270783,10.011517 26.4550881,9.87160247 26.2809811,9.7018819 C26.2809811,9.7018819 24.9497579,8.77297646 22.1640472,9.17231899 C22.1640472,9.17231899 24.4476855,8.64275608 26.2809811,9.59177332 C26.2809811,9.59177332 25.5541069,8.91289104 23.597695,8.93285816 C22.227305,8.94689303 21.5258522,9.19098391 21.1192579,9.39108924 L21.1192579,9.24234862 C21.8257358,8.81276603 22.6659717,8.56303226 24.0073931,8.63306189 C25.3491101,8.70294683 26.107022,9.33220069 26.107022,9.33220069 C24.982717,8.21462038 22.5839434,8.56303226 22.5839434,8.56303226 C25.0408019,8.17005607 26.0965283,9.22238149 26.0965283,9.22238149 C26.0965283,9.22238149 25.4002484,8.39360107 23.6797233,8.38306448 C21.9590503,8.37305518 21.1805943,9.01258198 21.0271792,9.18259193 C20.910566,9.31107604 20.9883082,9.3997706 21.0327956,9.43507479 C20.9040629,9.50278939 20.8085849,9.56240139 20.7302516,9.60190158 C20.7302516,9.60190158 20.5765409,9.75151033 20.7914403,10.0511619 C20.770305,10.0583964 20.7491698,10.0651968 20.7278868,10.0727206 C16.5374969,11.5647569 15.6653365,15.5532627 15.4999497,16.6853119 C15.0787233,16.9759928 14.8097296,17.2254371 14.6761195,17.3730203 C14.2684906,17.8234381 14.5408836,18.1330733 14.6962201,18.2564932 C14.2460252,18.4933497 13.9121478,18.702281 13.6376855,18.840604 C13.6376855,18.840604 13.1002893,19.3643794 13.8524371,20.4125088 L13.8524371,19.5737448 C13.8524371,19.5737448 17.1827862,17.3381501 23.7358868,17.4780647 C30.2891352,17.6175452 32.5457264,19.3293645 33.0108491,19.6787893 L33.0108491,20.2724495 C33.0108491,20.2724495 33.6553994,19.7831103 33.0469119,19.18945" id="Fill-45"></path>
                            <path d="M32.6118811,19.9780068 C32.6015352,19.9480561 32.5775918,19.9217226 32.5496579,19.9221567 C32.5124126,19.9225908 32.482705,19.9347447 32.4828528,19.9707723 L32.4825572,19.9814793 L32.6123245,19.9814793 L32.6118811,19.9780068 Z" id="Fill-47"></path>
                            <path d="M31.9939937,19.9815372 L31.986456,19.6578672 C31.985717,19.5999915 31.9370912,19.5363281 31.8776761,19.537341 C31.8179654,19.5379197 31.7703742,19.5630957 31.771261,19.6214055 L31.7765818,19.98255 L31.9939937,19.9815372 Z" id="Fill-49"></path>
                            <path d="M31.0529296,19.9788604 L31.0513038,19.3021485 C31.050417,19.2151902 30.9771088,19.1198399 30.8878384,19.1204161 C30.7985679,19.1218656 30.7271811,19.1620892 30.7283635,19.2491922 L30.7274767,19.9788604 L31.0529296,19.9788604 Z" id="Fill-51"></path>
                            <path d="M29.9033066,19.9788604 L29.900794,18.9489619 C29.8996116,18.8479687 29.8140362,18.7398858 29.7101336,18.7413327 C29.6066745,18.7423455 29.5231682,18.8041278 29.5244984,18.905121 L29.5264198,19.9788604 L29.9033066,19.9788604 Z" id="Fill-53"></path>
                            <path d="M28.5374689,19.9796996 L28.5370255,18.6942797 C28.5352519,18.5542205 28.4170129,18.4070714 28.2736481,18.4090971 C28.1307267,18.410978 28.0150003,18.4863612 28.0169217,18.6258417 L28.0178085,19.977674 L28.5374689,19.9796996 Z" id="Fill-55"></path>
                            <path d="M27.0343557,19.9796996 L27.0303651,18.511103 C27.0284437,18.3419612 26.8862613,18.1806326 26.7128934,18.1826583 C26.5399689,18.185118 26.4008903,18.2836514 26.4029594,18.4527932 L26.403994,19.9772399 L27.0343557,19.9796996 Z" id="Fill-57"></path>
                            <path d="M25.2726094,19.9777174 L25.2737918,18.3914884 C25.2717226,18.1986175 25.1175686,18.044234 24.9297164,18.0459558 C24.7418642,18.04843 24.591405,18.2070095 24.5934742,18.3998804 L24.5925874,19.979743 L25.2726094,19.9777174 Z" id="Fill-59"></path>
                            <path d="M19.7675349,19.97928 L19.7670915,18.6218048 C19.7651701,18.4532418 19.636733,18.3182466 19.4805097,18.3195395 C19.3244343,18.3215745 19.1993965,18.4596081 19.2014657,18.6286052 L19.2019091,18.6660798 C19.2097425,18.6650669 19.2172802,18.66362 19.2251135,18.663186 C19.3437959,18.6621732 19.4410475,18.7544849 19.4361701,18.8742877 L19.4419343,19.97928 L19.7675349,19.97928 Z" id="Fill-61"></path>
                            <path d="M18.1206874,19.9787157 L18.1212786,18.8288697 C18.120244,18.7229571 18.0447189,18.6510465 17.9356434,18.6520488 C17.8358792,18.6535063 17.7556245,18.7448052 17.7436528,18.8420364 C17.869134,18.8595439 17.9663855,18.962852 17.9680113,19.0907574 L17.9666811,19.9787157 L18.1206874,19.9787157 Z" id="Fill-63"></path>
                            <path d="M21.622823,19.9796996 L21.6226752,18.434273 C21.6203104,18.251241 21.4738418,18.1043814 21.2954487,18.106407 C21.127845,18.1081433 20.9933481,18.2414021 20.9791594,18.4090971 C21.127845,18.4494654 21.2383984,18.5795411 21.2404676,18.7379759 L21.2404676,19.9796996 L21.622823,19.9796996 Z" id="Fill-65"></path>
                            <path d="M23.5022022,19.9777174 L23.500872,18.3337573 C23.498655,18.1553554 23.3484915,18.012547 23.1656645,18.0150068 C22.9826896,18.0168877 22.8360733,18.1631686 22.8382903,18.3414259 L22.8382903,18.3444643 C22.9544601,18.3906202 23.0370796,18.5013076 23.0388531,18.631528 L23.0403311,19.979743 L23.5022022,19.9777174 Z" id="Fill-67"></path>
                            <path d="M16.7889764,19.9787157 L16.7876462,19.2059301 C16.786316,19.105371 16.7144858,19.0367883 16.6111745,19.0378011 C16.5275204,19.039248 16.4583506,19.1073967 16.4354418,19.186397 C16.5884135,19.2190968 16.7042877,19.3501853 16.7062091,19.5102117 L16.7066525,19.9787157 L16.7889764,19.9787157 Z" id="Fill-69"></path>
                            <path d="M15.683161,19.9787157 L15.682422,19.578071 C15.6810918,19.4824314 15.6129566,19.4173212 15.5148182,19.4187681 C15.4353025,19.4193468 15.3695321,19.4838783 15.3479535,19.5592614 C15.4932396,19.5902249 15.6032019,19.7152365 15.6052711,19.8668709 L15.6055667,19.9790051 L15.683161,19.9787157 Z" id="Fill-71"></path>
                            <path d="M14.7258538,19.9787157 L14.725706,19.9722047 C14.7245236,19.8813398 14.6597877,19.8195575 14.5663789,19.8205703 C14.4910016,19.8215831 14.4284827,19.8827867 14.4080865,19.9542632 C14.4329167,19.9596168 14.4568601,19.967864 14.4791777,19.9787157 L14.7258538,19.9787157 Z" id="Fill-73"></path>
                            <path d="M21.8337613,6.20002417 L21.8337613,5.62430536 C23.3915601,4.92994132 25.0296135,5.61113863 25.0296135,5.61113863 L25.0296135,6.16081336 C25.3255066,6.10814645 25.607211,5.54559437 25.0837079,5.19182899 C24.5596135,4.8380636 23.8883116,4.73301915 23.3781104,4.74618588 C22.8674657,4.75935261 22.0485129,4.82489687 21.6457613,5.38817239 C21.2427142,5.95130323 21.8337613,6.20002417 21.8337613,6.20002417" id="Fill-75"></path>
                            <path d="M23.9688324,5.97125588 L23.9688324,8.16127343 C24.0789425,8.17675518 24.1906783,8.19773514 24.3046311,8.22479204 L24.3046311,5.97125588 C24.3046311,5.88082506 24.2296972,5.80746757 24.1367318,5.80746757 C24.0437664,5.80746757 23.9688324,5.88082506 23.9688324,5.97125588" id="Fill-77"></path>
                            <path d="M22.0217613,6.06254037 L22.0217613,8.39001277 C22.0675789,8.37265005 22.1165003,8.35412982 22.1694123,8.33618835 L22.1694123,6.06254037 C22.1694123,6.02275081 22.1364531,5.99062978 22.0955129,5.99062978 C22.0547204,5.99062978 22.0217613,6.02275081 22.0217613,6.06254037" id="Fill-79"></path>
                            <path d="M24.65385,6.06254037 L24.65385,8.32634947 C24.7027714,8.34342281 24.7519884,8.36194304 24.8012053,8.38133141 L24.8012053,6.06254037 C24.8012053,6.02275081 24.7680984,5.99062978 24.7277494,5.99062978 C24.6868091,5.99062978 24.65385,6.02275081 24.65385,6.06254037" id="Fill-81"></path>
                            <path d="M22.7873145,8.17918596 L22.7873145,5.97122694 C22.7873145,5.88079612 22.7120849,5.80743863 22.6192673,5.80743863 C22.5264497,5.80743863 22.4513679,5.88079612 22.4513679,5.97122694 L22.4513679,6.08148021 C22.4643742,6.07771828 22.4773805,6.07366698 22.4915692,6.07366698 C22.5657642,6.07366698 22.6259182,6.13212147 22.6259182,6.20446613 L22.6259182,8.21087293 C22.678239,8.19958716 22.7315943,8.18888015 22.7873145,8.17918596" id="Fill-83"></path>
                            <path d="M23.592995,8.12676502 L23.592995,5.91186092 C23.592995,5.79639884 23.496778,5.70249547 23.3780956,5.70249547 C23.2592654,5.70249547 23.1631962,5.79639884 23.1631962,5.91186092 L23.1631962,5.96872382 C23.2325138,5.96872382 23.2883818,6.02370576 23.2883818,6.09127567 L23.2883818,8.12821192 C23.3871113,8.12430531 23.4882057,8.12242434 23.592995,8.12676502" id="Fill-85"></path>
                            <path d="M24.3277912,4.73264296 C24.2549264,4.5004166 24.0419484,4.15200472 23.4253321,3.94741402 C23.4253321,3.94741402 24.3821811,4.02655908 24.5916119,4.82046938 C24.6658069,4.84926255 24.7408887,4.88181765 24.8161182,4.91726653 C24.6822126,4.29134054 24.113483,3.82052149 23.4318352,3.82052149 C22.7522566,3.82052149 22.1851528,4.28859144 22.0487346,4.91133427 C22.4378887,4.73466861 23.3135962,4.4382002 24.3277912,4.73264296" id="Fill-87"></path>
                            <path d="M23.6397585,1.53732402 C23.5391075,1.29482472 23.6196579,1.03293705 23.6196579,1.03293705 C23.5861075,1.26863596 23.9556044,1.63542338 23.7002082,1.82540046 C23.4959503,1.97732424 23.5410289,2.53886349 23.5673371,2.75719968 C23.5417679,2.75184617 23.5157553,2.74793956 23.4892994,2.74547984 C23.4015069,1.49348316 23.7373057,1.77186541 23.6397585,1.53732402 M23.5756138,3.73949547 C23.8243591,3.5318663 23.8159346,3.33364193 23.7071547,3.18113938 C23.5525572,2.96482885 23.2370069,2.97799558 23.2370069,2.97799558 C23.6535038,2.85992909 23.888356,3.09606206 23.908161,3.38428319 C23.9201327,3.55284625 23.8307145,3.68552635 23.7544503,3.76655237 C23.818595,3.7797191 23.8843654,3.79621368 23.9526484,3.81864053 C24.0463528,3.70534879 24.1031075,3.56051478 24.1031075,3.40352687 C24.1031075,3.13324722 23.9366862,2.90145493 23.6987302,2.7988702 C23.7000604,1.92364451 23.7398182,1.87213511 24.0207836,1.85506177 C24.3072176,1.83755436 23.9312176,1.45325953 23.9312176,1.13884964 C23.9312176,0.824439744 23.7522333,0.615074298 23.7522333,0.615074298 C24.2177994,0.405564163 23.7522333,0.19576465 23.7522333,0.19576465 C23.4657994,-0.205748213 23.4298843,0.19576465 23.4298843,0.19576465 C23.1793654,0.335534533 23.0540321,0.423071571 23.161334,0.562552075 C23.2689314,0.702466648 23.6090164,0.580059483 23.2868151,0.789858997 C22.964466,0.999369132 23.3765289,0.911976783 23.161334,1.17371976 C22.9465824,1.43618619 22.9286987,1.75016201 23.1257145,1.97703487 C23.3150447,2.19580512 23.2726264,2.72088266 23.269227,2.76052753 C22.9697868,2.82939965 22.7469063,3.09070856 22.7469063,3.40352687 C22.7469063,3.55819975 22.8015918,3.70057404 22.8927836,3.81285295 C23.0314189,3.7648161 23.2720352,3.70838727 23.5756138,3.73949547" id="Fill-89"></path>
                        </g>
                        <g id="Group-94" transform="translate(17.735849, 41.627117)">
                            <mask id="mask-2" fill="white">
                                <use xlink:href="#path-1"></use>
                            </mask>
                            <g id="Clip-93"></g>
                            <polygon id="Fill-92" fill="#FEFEFE" mask="url(#mask-2)" points="-1.46778931 11.4314691 11.6922107 11.4314691 11.6922107 -1.45166795 -1.46778931 -1.45166795"></polygon>
                        </g>
                    </g>
                </g>
                <rect id="Rectangle-Copy-36" stroke="#F8F8F8" strokeWidth="0.1" opacity="0.01" x="0.05" y="0.05" width="139.9" height="59.9"></rect>
            </g>
        </g>
    </g>
</svg>